<mxfile host="app.diagrams.net" modified="2024-04-23T08:41:54.057Z" agent="Mozilla/5.0 (Windows NT 10.0; Win64; x64) AppleWebKit/537.36 (KHTML, like Gecko) Chrome/123.0.0.0 Safari/537.36" etag="otPU5_wmgDXHRkZuzlku" version="24.2.7" type="device">
  <diagram name="Trang-1" id="NvtGb7Lh8hWOAyFujsoS">
    <mxGraphModel dx="1702" dy="435" grid="1" gridSize="10" guides="1" tooltips="1" connect="1" arrows="1" fold="1" page="1" pageScale="1" pageWidth="827" pageHeight="1169" math="0" shadow="0">
      <root>
        <mxCell id="0" />
        <mxCell id="1" parent="0" />
        <mxCell id="Ib7L2-6Yxjfy-kbsQUxr-1" value="&lt;a class=&quot;CIDa50fdf09-d142-417d-9a53-fd385e8c1dd1&quot; data-sessionid=&quot;3efcc845-4ff8-9f24-92e8-1a98f3a213f4&quot; data-shapeids=&quot;91&quot; data-slideid=&quot;&quot; style=&quot;color: rgb(0, 0, 0); font-family: &amp;quot;Times New Roman&amp;quot;; font-size: medium; font-style: normal; font-variant-ligatures: normal; font-variant-caps: normal; font-weight: 400; letter-spacing: normal; orphans: 2; text-align: start; text-indent: 0px; text-transform: none; widows: 2; word-spacing: 0px; -webkit-text-stroke-width: 0px; white-space: normal; text-decoration-thickness: initial; text-decoration-style: initial; text-decoration-color: initial;&quot;&gt;&amp;nbsp;&lt;/a&gt;" style="text;whiteSpace=wrap;html=1;" parent="1" vertex="1">
          <mxGeometry x="290" y="240" width="40" height="40" as="geometry" />
        </mxCell>
        <mxCell id="Ib7L2-6Yxjfy-kbsQUxr-3" value="" style="shape=image;verticalLabelPosition=bottom;labelBackgroundColor=default;verticalAlign=top;aspect=fixed;imageAspect=0;image=data:image/png,iVBORw0KGgoAAAANSUhEUgAAAlsAAAEeCAYAAAC9uNAzAAAAAXNSR0IArs4c6QAAAARnQU1BAACxjwv8YQUAAAAJcEhZcwAADsMAAA7DAcdvqGQAAD1PSURBVHhe7d0NcFRlnu/xf4RdnRJWt4SZBKGKCDjCvUxJUCRZGTXgOPJilYlBSaZGWHypGZgZBdRxiFkvhuuUhhdXmCqVqKuTgIbEKsWg4xhU7iaUDsSBuTAKbKgSSbZgax1FLwqYe/7POadzutPdSb+/fT9F06fPe5+cPv07z/P0OXm9FgEAAEBCnOM8AwAAIAEo2QKQVOecc45w2EGgs2fPmn0DyEaELQBJpV+o+sWal5fn9EGuGzJkiJw+fZqwhazFng0AAJBAhC0AAIAEohoRQFJRjYhAVCMiUgcPHkybtp+XXnqp0xUaezYAAEACUbLl4Cw7s7DbZi5KthCIki1EKtNKtghbDj3wsykyA3+rzEbYQiDCFiLlDVtDhw41z8l25swZ80w1IgAAQIoRtgAAABKIsAUAMeh4JE9W73JeZIUeaZyfJ3nzG60uAPFA2AKAaB1tlLoapxsAQiBsAQAAJBC/RnTwC7fMEepvtWnTJvn1r39tup9//nmZO3eu6dZfrVRVVckHH3wgy5cvl/fee09+9rOfyX333ScXXHCBPPnkk3LvvffKli1bZMqUKWYaJE5sv0bUKq4CqWpyXkqZNHzSLJWjnZdq12rJK652XlgqGqT75UrJd17aw/cETOfMV9xxndeT26V7fJ0UVLY443mWF3Q5pdJmTdd8c4MUVVaJGWr1f21ylcyrqZX23pVSbEa2aRVkyb6A9fOx1yFwXn7r59sOIrUdvbJyuvPC0bO53LPuKsj2kg5ZnVdiz1+tapCGfVWebZF4+mvE/fv38wvVHDJhwgQ5dOiQjB8/Pqq/O79GBFLg9ttvl507d8qRI0dM0HJt27ZNFi5cKA8//LD5YBYUFMjEiRNl0aJFZrzLL79chg8fLtdcc43k5yfjawXR01DgBCLrb6l/z+5Gkaox5dJ41B5Dw4UGIA0eOry3t9sau0oK8lZbU0ehpkSWyMa+eVW0WMtz5jV9pfR+0mDFFzvo9HqCSYsVjsRdB6v/3Otrrb7V0ubXtqtD2mqs+HNzadhAEziv/CDbobejVqqL86R8c18rKztoFVkBzxnHerSv8qy/Otoo5Rq0VrX3jWPN2RvigETS0PTxxx+bh+5/ida5YZyMG2c9NnQ6fZKDsIWM19nZKadOnZKNGzfKsGHDTImWPrq7u+WJJ54woWr27NnO2CIVFRXmuampSUpKSmTGjBny9NNPmyCG9NWzuc6KK7XS7gk1+Qs2mgDUvFNDRofUV7ZIWWO3p4QnXyrXaiCqljpPEBm0igbZuMC3NKlcpqFpj3Q54S4ka7rF3lKm6aXWmltx6y1P5NvVZq1VmZTPGCDkB8wr2HbQ4Ne+SoNZvROk3G2x2K8krXiRvS3c0NfxXJW06Lwe6hur+CENlc4LIImSHbySibCFjNfW1ibTpk0zQcursbFRfvzjH5viaqWh7KWXXpKpU6eaIHbs2DGprKw0wxA9rRZMRjV816EWK3gUSqHz2mYFoJd7pVkD0dEuKwaJFBUGhJfRpVJuhYeWQ11OjwhMLuwLNJHoN12xLG4sE6lp85UqdbxVbb2fcin1q9ILImBewbeDtQRTeuYGwWJZaf09zHaxaHWl/o3yxmi4cvVI1z7raVWpXyDTbVo42ekEUiTbghdhKwU++0ujrJhfIpfowS+vQCaV3iFrdgQ56z7RIRt/PkcmFdgHykuKg4yn7UasYav/z2fS+dxSmTO5IPS4lp4da+SO0klSYJZ9iZTMXyGNf/nMGdrns7+0yOp/9qzjTUtlY8D8TJWNVs8caZE7zHKt+VlfJqec4cmkwUm1traatltq7969pk2W0v4avrQKUUuwdu/eLaNGjaI0Kw6+/fZbs88lNnQ5wSAcK2x5WyclTsvAJVtB5M8o95QqDa4Ksb9BbAeH/fm0jx0lNdpWq9dX7Wnrkq4Q1YWF4/vGAlItG4IXYSvZPlwjsydXSfuwcqltfVvebtsoS8bulxWlU2Tpa57Qc6RRqiaXyNJXTknJb5qt8Zpl+eQuqbPGq9rc/wz99ftmy+wXT8nsVQ3ydssGKf3O69Y8Z8vqXX3R57PXlsqU0jrpvny5bGyzlt1aK6WnGqzlzJY1HzojWbqa7pCiyeWy4cgkWd6i462RqvNaZam17DlPdgaEqddl+YI6OW9ZvbXc5VJ1XZGc5wxJltLSUtNeS79UDhw4IHfccYfpr9WF2mBeS700VGmbrHPPPdd8cLUK0a1OROzcwKWSVdLVz+hCT5BIQ04Jm6lKHGwVYj+DLHU62ihLnCpV/Tv09gY2ileFUhjiI2BKz4A05AavTAtdhK0k69xeZ53TrpQ1zy6XyhtLpfS6MlnybL1suP47smdnu9hx6zNpWVUljT3W2WjH27LpF2X2eE+/bvUvlMbKpVJ/yIzo0zFmqbS3bZIl1ply6c1LZNPLG2WxdFoHdrcRYI+0NW2UnpvXyIa1i6XsOmu8GyultrFeluR/Jq0dznin2qT+l/XSVdHQNz9rvJUv75f2hwqk9ZfV0uC37A45VbZRNiyabZa75LoLnf7Jo78gfP/9982HT39t6NJ2WydOnDDDdBwdpm2ztFrx3/7t33y/VkR8eAOXim/oyrf2LytKNXVJ4KmGqSLTC3BaYavIeu3XLkodbZPmJpGy8YEVb16hS3nix3kPNW2yWqsQV60IEoAGZkqdmpqlLaB0zVRLWlugUOfplPIFVqn27Gz2lP45wc1TtWkbfOkZgMEhbCXZhfn6dVAvtY+2yoETbhnRRFnyh/+Q9sdmi4kqPdaXw3PW831LpGys9nCdJ8WLllrnw63SuMP/K6dsXrF/G44RhTLxcuv5YLd16FQXyoWjrQPvKxtkzXMd0nXS9BQZNls2dO+Xt39mX/Lg1M5WWW1NsPzOsoA2Idayf7pESoMsu3wGl0uIhQYSb0jJZIGBS8UrdOUvWCG1Ui0l3iub71otJTUitcu0sbjbLqrEc0X3HmlcZjcCX+E2dDeN1VukyvocuDoe8Vz6IBJOwNvT1b/KPhj3PVTrOl/v31JqsOx5WOu/rP928DWId0r5/IKnU9rlVfxQu71NH+kbr2fzEn6NiLSmJ8yZdswkbCVZYUWtbKj4jrT+Zo5MGvkdyZtQInfcXy8tH3oO1kcPSJv1VHreZ9K+o03avI+D/y3/aA1r+yTg4D70O06Hq0AKtF34KTfQnSeld9XL8uu6ZKO2xRqeJwWT58jSxxul7VBf9eVnJzRIlUnRxCCVgeMnWWHLWnaPd9lWKIu0JgQ+3gNGNgcuFXvo0kbf7qUc7IBqXy+r7/pS+QuafZdBMMP1EgmT9bIG3utbWfPRtktWKLPHyZO68d3m13yRK5ZS8ytAbbM4mMtL2ONbUUtKA66JNXiht4PbIF5GV0pzwHvMG9MlK3o1XHlDmM7L6ucZr+CVcmmIalsAiaMBS69npQ/dTzNNnnXgy6yKzwTRP14yN8Vnf22T1rdape2VVnl9xwFzhlq4qFnany2T/MCLJQZT4Vxw0BlX22b4DrRG4EUaXaek50NrmS328lt2abjKl9LHrH73TZHPzLV5JMiFD1WHVOeVyGq9Js9DxaYBbuhxEycTP2joL1Qoy259F0vVzxBsXNQ097gXNQ33vRuuBEvbbrnTRnJRU73O1i3rrI57t8rhpbHVynBR0wxw4WWlUvmLOtnUtl+6/1+3CTpdz22U17U91NiJohckKHvhP8zOFPThF6AicZ7kX14mi1dtkOYOa/7H98iGih5pu79B2k9Z6zVCKw9bZM8B/2bwxqH95sy9NA0u/hl0m2TYI5Rg42biI9wXZ24GLYtpP1YmDYsIWkAwmV6CFQolWw79oyZ+U3wmrfeXy4q/lElz6xKZ6PRVXc/MlEvuulAaupqlcmyX1M++RO7471ppf2ulFHsuH3Vq12opLa6Xf3z2dXl9kTWHQZdsdcrGm5bImrHVsv9fZ3t+MXjKClrfkZmPr5T23lopPtUm1YUzZfWMBvkPa7q+dlunpKOmREoeOU827GuXJf9T23akrmQrW3bbwINJtrwvrTIM9l40ZGkpRvS368lQeqV25xpXwW6rk+t0nzh9+rTZb5A73NKpaNpgxVyyFcrsdbLryZtkpPMyHEq20taFUjJjovz39qUyZ/4KqX9F22G1SuPjd0jVXW2S/7PFMts0iC+Uxb9rkMoj1VIypVxWb271jTfn5mrpmL5Yqiu8UW0wpkjJdVaoe3KxzLlrjTRu12W3SP2ycql6XKR4bbmYc+3zSmXxvy6WwqYqKSm9QzbqOm5vlNXzJ1lBq1tK//caWWwFLcSHN5Bkc9DSkKX9cipgeWkbKuv96zYgaAE2txQrF44LhK0ku3DeBjmwc4PMlnZZXTZTZpbOkeqW/5aif22XA79zfo2oxlZKQ+fbsuF6kddr5pjxlr/QJYU/b5b92/1LuwZryr1tsr9lqRQeqpfls3XZS2TNhwWytGW/tN3bV3ddWLFJ9uxrlqVj98saXcfZy6Xh1GzZ0NYpbz9Y7CkVQ7xka9DK+ZAFIK1MWXpYDh8O8xhkqVakqEZ06JcBmyIzZNvfKlvejzdohWuTpePlXDUiwqIaEZGKthoxnqhGBJA0+gXpBkZKsgCgP8IWgJgRsgAgNMIWgJiEqzLMaPoLQu/V6mPSIautbVS+2Zmb/oo4r1wao7ihNYDMQ9gCgCA6nrMv1QAAsSJsAQAAJBBhC0AG0Yv1Ovf6M48gVXGmis4zTmBVoK8Kz67a843nuxmzvQy9sbM02fcftG9sbY+/enOjlPebJmBeUVURDjSPcMsHkM4IWwAyhIYN564IvfYFQrsbRarG9IUSvauB3lFBr9Kuw3t9N2wOvEl0izVdm5Q689GbV0tNidOmKl8qX+61b0yt9yC1hnsvRFpd2SzlnzjT6f0NtW1XXolU6z1DnfnZ6+WGtEEIOY/+oa3f8gFEoVM2jhsn46zHxk6nVwIRtgBkhJ7NdWLFKGn33Bc0f8FGaahokeadGpI6pL6yxdy6qi8cWcFpbYOUWVPWuY3THbUdK+27Jqjpi635WBHskN6YfQCrVvjdnsq07dJQ5gk+9npZwWjt4BrY2+3DrPfWbx5WKFwWMI+A5QNIf4QtABmh61CLSEWh536dyi6FMvcFPdole6w+RYUBN0ofXSrl/YJUmRRGGVjKxnvXoEe69llPkwt9AdCWL6U3l4k0dcnA8a1D2rTKclVpX/gzgs/Df/kAMgFhC0AGcEJNOFbYivnXg/u6BlUS1ccKQk1OZ6xqSjzttexHQSW/hwSyAWELQHYYXShlTmfyFEphhdMZI63+dNtr+T881Z1ZRN8bkCsIWx6BZ5U80vOBXBS6Wq7jEWu/0F8cWmGryHpd/VbAL/SOtklzU6Kq3/KlcLL1VNMW0AC/R9peCVbtGUyxlK4SaXmlrV+pmu+9Oa8BZCbClqP/2SSPdH4g9+QvWCG1Ui0l3vCxa7W5REPtMm00XyyLG61AVlPi+RVgjzQusxufr9B2XREoHD+4NlfFi+wG+CWeyzD0bF4iVVbAs9drYGYeepkJ76Uc/N5b9uHECbmEsAUgQxTLSt+lHJySzuI90vBJ36UZ8hc0m8s4VBc7w/VSEZP1cgqRV8Xlzyi3Q5Q1H99tdoIZXSnNve1S62lzVVBZJO3WSYH3khFhBZlH4HsDkLnyeikmAFJKv1hz6WN4zjnnyNmzZ837BtSQIUPk9OnTZt8ABuPgwYO+4+bQoUPNc2T0Olu3yFqra9nWw7Jkit03EmfOnDHPl156qXkOhz0bQEz0CzLXAiMARIKwBSAm3377rQlbhC4ACI6wBSBmbuBShC4A8EebLSDFsimYaNAKfC/eIKZ0HNpswYs2W4hU7G22YkebLQApERisFCVdAHIdYQtAXAULXIrQBSBXEbaADKbhJR0fAwWqYNWNAJCtCFtAhtPQko4PDV2hhCr9AgZSX18vx44dc15FLtbpgWgQtgDEXaiSK0IWYrF9+3bZv3+/FBQUOH0iE+v0QLQIWwDiKljQ0pA1UGkX4NLSp5EjR5r9pa6uzuw7CxculDlz5sjatWtl27Ztpp/+Iu2qq64y4y1fvlymTZsmzz77rJl23Lhx8vrrr8tll10me/bsCTp9MN3d3TJ+/HgZMWKEmW7Lli1mfj/96U9DTgMMhLAFIG4CgxYhC5E6efKkvPXWW/Lmm2+afWfFihVm/3n00Udl1qxZ8umnn8q8efOktbVVFi1aJDU1NWY/u/jii2XixImm3/PPPy9TpkyR4cOHyzXXXCP5+fn9pg+1T2qpV1NTkxlXw5z6wx/+IN98841ZNyAahC0AceENWoQsRGvYsGHywAMPyGuvveYX3LWUadSoUSYMaenTE088YUqxtLTK3c8qKirMs4al4uJimTFjhjz11FNmOu/0A9mxY4d51pB22223mddXXnmlWTdkvuOv/dyUfAY+NnY6IyQAYQtATDRk6ZedfjESshAPWio1depUU52o+5OWKK1fv17Ky8vN8M2bN8sNN9wgEyZMMK87OzvlpZdekqKiIunp6TEN4BcsWODbDwOnD0fH1bZdV1xxhfzwhz80we6NN97wmx8yld58epxMv+dN57W/tbdYoWtDYhIXYQtAzAhZiAcNOvfff78JS1ot+Mc//tH00+q8zz//3PT78ssvZe/evXLBBReYaTQYNTY2mrZZWmoVrAQrcPpwdNyLLrpI7r77brM/u/Nj3850x+XVX9wia033DbLu3w/L4cPuY6ssM/0t625JSAkXYQtATDRo8UWEePjiiy+kpaXFhKLrr79eqqqqTLsr91INGnzOP/98U1344IMPmsbx3/ve90x137nnnmuCklYhBpZgBU4fTmCVoc7v7//+7826IYN1viz3tmqHBq3fyU35pq9jiixxAteyrYdlyRS7bzxxb0QgxTSoRPsxjGXaVNFqR+6NCC/ujYhIabB2j32DuTdi54Zxcss6q2P2Otn15E0y0u4dE+6NCAAAEOj7Y+IStCJF2AIA5AxtTO9ewyvw4V5bC7lDS7z6/TIxAY3kCVsAgJTTqsRgASjeD/3F4okTJ5yl+vuv//ov8yvIYNMl8qHtHpEkH30ix53OZCJsAQBSTtvxaRucXHvQTi05pvyT83vD1nvlZU/B1ZSl7i8Sd8m62U7PBOCvDAAAstuU+b4wpdfT6nd5B9+vFRODXyMCKabVCNF+DGOZNl7cK8cP9hIQ/BoRgXL514j8EjM6kf4a0aYXNXWvtRXaYC//wK8RASSNG7L0yyIdwh8ABKfX0zosh7f6LmHqR0OWVilynS0gC8USUNIp3LglXK5QJV2UbCEQJVuUbEUqupKt+KJkC0DSBYYrSroAwEbYAhA3wUqzCF0Ach1hC0Bchas+JHQByEWELSBHafBJ1GOgQKXBi9AFIFcQtoAcpoEnUQ8NXaGEKv0CgGxE2AIQd6FKrghZAHIRYQtAXAULWhqyBirtAoBsRdgCEDeBQYuQBSA9HJdXfzFOxo2zHhsC79Vj6dxoDxu3UYIMjRlhC0BceIMWIQsA+hC2AMREQ5aGKg1XhCwA6I+wBSBmhCwACI2wBSAmGrQIWQAQGmELAADkjnW3OI3hPY9b1joDE4OwBQAAkECELQAAkDvu3SqHDx/2f2xd5gxMDMIWAABAAhG2AAAAEoiwBQAAkECELQAAgATK69UrEQJIGffq69FI1bSx0CvOnz17lmtzwWfIkCFy+vRps2/kmlx+77E4ePCg7/g1dOhQ85xsZ86cMc+XXnqpeQ6Hvy4AwI/3FkwAYkfJFpBiuViyxWEHgbS0k5ItDFamlWwRtoAUy7WwlSr6ZUb15eB4AzG3Y0oswlZ0qEYEAGQsb9ACEB+ELQBASIQvIHaELQCAQbACEoOwBQAIixAGxIYG8kCK0UA+OTQw0EA+tIECFQ3lE4MG8tGJtoF854Zxcss650VIy2Tr4SUyxXkVCg3kAQAA0gQlW0CKUbKVHJRshRZYqqWlWFriErh/ULoVf5RsRSc+l37olI3jbpG1VteyrYdlyUBFWQEo2QKAJOru7pbx48fLiBEjZM+ePU7fPgsXLgw5bDBOnjwp119/fUzzGCxvoCJcAfFB2AKAGBUUFEhTU5PMnDlTJkyY4PTt8+ijj0p5eXnQYYMxbNgweeyxx2TWrFlRzyMUb6lWsHDl7RdYAgZgcAhbABAHbW1tMm3aNBk+fLjTp8/u3btNVYOGpmjt2LFDrrzyypjmEU64UixKuIDYELYA5KTW1lYTjjRErFmzxlcVOG7cODl27Jhs2bJFRo4caYa5tJ3IVVddZarzNm3aZKbXcZVO/9VXX5lhWgLl9lfvvPOOlJaW+gKLLlvno6/r6uoGVVqk89N5vPTSS2a9BjtdOG5J1WDClDsOpVtA5AhbAHLOtm3b5Mknn5SGhgbTBur99983JUY7d+40VYHvvfeeGe+5556TvXv3mnDR2dkp8+bNk5qaGjlx4oT89a9/lYkTJ5oqRA1aOq1W8R05ckQuvPBCX9sqHabz+N73vmdeu8t+8cUXzTh/+tOfTJuscNx5aNhTul779u0z3bGKpNSKEi4gOoQtADlFg8sjjzwiq1evNuFIq/9Gjx5tqv+0uu8f/uEfTOnNbbfdJlu3bpUf/OAH8uWXX8r9999vSpPmzJlj5qOBS4dp+NDpLrvsMrn11ltNaCsuLjbjKB2mgcwNZe6ytVpRqwYvvvjiAasGdR4u73rFKprwROACIkfYApBT3GA0atQoWb58uWzfvl0efvhhM0xDzPHjx+XGG280pU2nTp0yVXdaDajju0HLO0zp8HvuuceEEB32wQcfmBCldJ4VFRV+oUyD14oVK0x1oi57oPCi89CQ412v6667jtADZAjCFoCcosHlhRdekGuuucY0OP/9739vQouWOh04cEB+9atfmVIu9zo+2o7LG5jUU089ZUq2dJhO98UXX5hu5Z1Oh2lbKw1qGpLcZV977bUydepU37LDcddLf43orpeK968SASQOYQtATpk8ebKpDvzoo49M4NFwpSVTPT09MnbsWF+I0erFSZMmyX/+53+a8KTDNTDV19ebaWfMmGGqF7W0SqsE3SC0cuVKeeCBB3zVklqKpdNqIHOXre29rrjiClMapssOR6e9+uqrZcoU+4qLWvWobcV0vQBkBsIWgJxSWVkpb7zxhilRqqqqMsFo7ty5/S7doA3QP/30Uzn//PNNqdaDDz5oqg01ZH399ddmmAYoLaX6+OOPffNbv369FBUVmXloKNNSKS3l0tDlLlvbhOm42g5Mlx2OhistGXNpQ/nPP//c1+AeQLSmyJLDh+Ww9Yj06vGR4nY9QIrpl3S0H8NUTZuJNOBwu57BY3slB7friY5bXa+iv11PbLhdDwAAQJogbAFACun1u/QipVqCFPhIxr0QASQe1YhAiumXaiqqAmOZNhNRLRYZtldyUI0YHaoRAQAA4EPYAgAASCDCFgAAQAIRtgAAQA45Lq/+YpyMG+d5bOh0hiUGYQsAAOSITtk4brrc2+q8dK27Rcb94lUrhiUGYQsAAOSGznZZazpukHX/bl89/vDWZaaPtN4rLyeogIuwBQAAcsLxo//X6fofMibf6ZwyX9bNtjv/79HElG1xnS0gxbjOVnJw3ajIsL2Sg+tsRSfq62z1vCo//6d75U3npdy7VQ4vje7GiFxnCwAAIFD+TfK/1t/gvLBoWy3TSH6jJLKJPGELAADkjJHzfieHD28Vp6WWY63cYoWujbTZAgAAiIcpskQbx+vj39eJW9a19tnE/CKRsAUAAHKA5/pa3utq5d8kv/P9IvETOWp3xRVhCwCQVN3d3TJ+/HgZMWKE7Nmzx+lrW7hwYdD+QOxGSvGPnDKsdc/Iqz12pwlhz9oXhJDZY2S03RVXhC0AQFIVFBRIU1OTzJo1SyZMmOD0tT366KNSXl7erz8QDyPn3em01XpT7v0np5TLc5HTZf98kxXJ4o+wBQBIuh07dsiVV14pw4YNc/rYdu/ebX5KH9gfiA9tq7XLd12tPvZFTpdEdxWIARG2AAADam1tlauuuspcd6uurk6OHTtmqgK1ZEC7t2zZIiNHjjTD3Osf6bWQdBqtFty0aZPp1nGVPn/11Vfy3e9+15Rwuf3feecdue6663zX9wpcbrhrw7nVk+HWCdDqxJuedBrH+x6/k5vci5wmAGELQFbRi0NG+sUazTS5ZNu2bbJhwwZ58cUXTVuqP/3pTzJ8+HDZuXOnCUrvvfeeGe+5556Tffv2me7Ozk6ZN2+e1NTUyIkTJ+Svf/2rXHbZZaYKUUORTqvBqKurSy688EJToqX99+7dK/n59rdesOWePHnSDAtG5x1snf7yl7+YbiBVCFsAsk4k4YkrpYenAeiRRx6R2tpaU72n1X8XX3yxqebTgKShS7fhrbfeKlu3bpUf/OAHJhDdf//98vjjj8ucOXPMfDRw6TCl002cOFFuu+02M5+SkhKz/bX/qFGjfIEs1HLD0VAWuE6TJ092hgKpQdgCkFW+/fZb88U9mMAVSSjLVRqA3BKpFStWmGq9hx9+2GxjDTLHjx+XG2+8Ub788ks5deqUqQJ89913TWiaO3eumYeGL3eYTqdVhb/85S9Ntw57//33zfg6P20cr/3dQBZsueFow/tg6zTQdEAiEbYAZK1wYcod5oYzBKcBSKvxrr32Wpk6dar8/ve/N9tLS54OHDggv/rVr0xJkrbPUvorQp2moqLCt12ffvppU7Klw3S6L774wvdrQ3c6LbHSdlZaeqUBTOfxwgsv9FtuOOHWCUglwhaArOMNUMECFyVag6dVf1odqG2urrjiCrnnnntMlV5PT48UFhb6goz205Io7a/0WUPVs88+a6adMWOGCVFaYuX+2lDD0MqVK02V48cff2xKt9wwFmq54f5uA60TkCqELQBZzxuuvN2Uag1swYIF8sYbb5jtVlVVZYKRNnzXIOO9dIM2bP/000/l/PPPl1tuuUUefPBBmTlzplx99dXyzTffmGEaorSkSoPVkCFDzPzWr18vRUVFpp+WSmlQ0qrDUMsN9/cKt05AKuVZBx1O74AU0i+PaD+GqZo2UwxUgkXYCk23HT8cSDwNnadPnzbbG4OnpaLuZ3vo0KHmOdnOnDljnrWkdiD8dQHkJIIWgGQhbAHIWgSq7KLX7tKLlOrfNPDB/RSRzqhGBFJMvyii/RimatpMEqwqkRA2MKoRk4NqxOhQjQgAaYRgBSDVCFsAcgrhC0CyEbYAZD0CFoBUos0WkGIaAqL9GKZq2lgEa0MFaPuwXGy3RJut6GRamy3CFpBiuRi2aHgNr1wOHISt6NBAHgAAAD6ELQAAgAQibAEAACQQYQsAACCBCFsAAAAJRNgCAABIIMIWAABAAhG2AAAAEoiwBQAAkECELQAx0StfcyMKAAiNsAUgJnqTZ73lSKpu/wMA6Y6wBSBmGrg0bGkpF6ELAPwRtgDEhRu4FKELAPrkWQdDjoZACsUSSlI1bTjB2nAFBrGzZ8/6XgNaDb1//372iRwyYcIEOXTokIwfPz6qv/vBgwd9x5mhQ4ea52Q7c+aMeb700kvNcziUbAGIK2+wclHSBSAYDU0ff/yxeWTz8YGwBSDuggUuFazUCwBUNgcvwhaQBjSYRPNI1bSDeYQ7WBK6AISTbcGLNltABhso1IQTy7QDGShMhSr5Qm6izVbucdtsRXoM0ul0P/G22Uo12mwBSLpQQUsDlvbnCxVAtNwSr3QJWoNF2AIQN8GCFiELQK4jbAGIi8CgRcgCkAhuVWImIWwBiImGLD3wuUGLkAUg3jRgadsofWTisYWwBSAuCFkA4inTA5YXYQtATJIesnattpZVLo1HnddB9Ujj/DzJe6TDeT04PZvLrXmvlsimAhAv2RSwvLj0A5DB9GAU7Uc4lmljodWOMd2uR8NW8R5p+KRZKkc7/eJEw1ZBZZG0966UYqcfEk8v/XD69Gmzb+SaXH7v7uUbommDxaUfAAAABuCWYmVTCVYohC0Ameloo5RbB2k9UJuHX5Vh8GrEjkc842t1YagqSdO/b9zyzT3OgA5Zrf2CLSug+jGwStJ+3TdPv+U676VvOQ6n/+pdzmsAGYmwBSADtUhVcZes6O01VQm9nzRIWU1J/7DiYweikppaaXensVJQSXG1M9yrWkrWFkq3b7xaaakscAJPsZSusp72dVlzdBxtk+Ym7dgjXb7Q1iNtr7SIrCo11ZF91ZPOPK1H+yrrPYxxwtjoUimvsN7VK21987X07Gy23mmtlE53egDISIQtABmptsPTrsoNK4e6nB4BdtVLlRWI/KaZvtIKPE63nzJpWFsp+c4rmV5qxR0rSnXZMaj4eutVU7O0+UqluqSlolZqK1qkeacTlZwAVnu9Lq1D6itbpKxxsV87sOJFVkC0gl2bCXH5Unpzmf98AwIbgMxF2AKQgcqkMFjjeG+Jk0dP1x7r//4lRIXjrYDTT1HQefuCnAlffcGq461qkcmlUjrZM44GMN/yimVlb680L7Djm68qc0yVNU6f/AUr/ObrH9gAZDLCFoCs13XIG2v65BcWOV2RsKsS7WDVI1377EBkSrxq2ky1oAlgnhIpb3utkpoyafik1676dIbbnPk6VYlUIQLZg7AVgb6GrTzS+QEECl6C5ZZ4Rc7MT4OVKX1yStlGF1rhSdttdUhbjadE6mijLDHViN1Oe63Ql6zoq6KkChHIJoStCLmNW3mk5wMIxi7BcttH9QlV4jWQ/BnlJli1PdcsLRXlUmrClrYba5HmZXXWkjwlUqZKUaSo0NcKzLBLrgK4VZTP1ZsQ17CIqAVkA8IWgOw3fbE0VFhxq9hzeYZdq6WkRjuCt9EKywlW1TVWXJpc6DSmz5dCbbfVFFAiZUq8rGW/5Vuyr7Srv2JZ3FgmLTXVfSEOQMYjbAHIAflS+bJebqFaStwqZysNtXfo7wyj4fx60OJtwG6qAS1+jdpHV0qzc2kKX3X3GL1sRbvo2H4hzGKXmomU3VzqhDgAmY7b9URAD5JsrvSWa3+jWN5vqrZVzLfriSNz/atXyqX7Zc+lHlItgbcjSlfcric333ssuF0PAKQb54rwfldidxuup1kJkv1LxhU5E7SAXEDYQs44efKkzJo1y3zpBj5uv/12ZyxkpekrpbuxTKqLPX/3MVVS1NF3/atUc6+/VbKvQbofomE8kE0IW8gZWux82223maLnuro689DuPXv2yOLFi804a9asMYFMg1kqbdq0Sbq7u51XiIf8Bc3m7+19rEyja1gVP+SsVzpVaQKIC9psRUDPOtlc6W0wfyMNUhqufv3rX8uUKVOcvumjtbVV3n77bRP8BhLLPpmq/Tmd2mwhPdBmizZb2Y6/LnKOlnCpCRMmmGfXtm3bTAC49tprZcSIEaaEa+fOnTJt2jQTfDo7O33dXlu2bDHj67TeYd7+d911l6+0TEuttL8uT7nz1ZIsrc6cM2eOrF271jccAJDZCFvIOW1tbSbcDBs2zOlj05A1c+ZMWbFihTz//PNyySWXmP633nqrvPHGGyakLVu2TPbu3Wv6Kw1XH3zwgRw5csRURx47dsz0X758uQlVHR0d8sUXX8jXX38t77zzjpnH1KlT5fLLLzfjKV2fiRMnSkFBgfz2t781IU/nM3fuXGcMAEAmI2whp2jp0vvvvy+lpaVOnz4ahD7//HMThpqamuT73/++zJgxwwSfq6++WubPny/bt2+XiooKM76WSOmw++67T9577z35zW9+Iz/5yU9Mfy0Re/HFF03pmTfUuaVp7nJ0fbzz3L17t4waNcoEr0yh1R9UrwNAaIQt5JRQVYhKS5i0FEsdOHDABDKt2tOSLK0G1BCl/TUkKR1fq/uuueYa+eijj0xA0zZg7nzcwKTT7dq1Sy6++GLz2jtcqwovuugiU6qmwWv9+vW+4JVJNHClqg1Ywh1tlPL5jebm0LHrkNXWdirf7MzNXJKiXBqP2i8BZCfCFnKGG2aCVSG6JV5anffuu++aZw1O3pImt7rP27Bbf9GoQUur/LTRvQYr5VYnari7++67TVjT+Wl4e+mll0yQ03H19aRJk8zy3ZI1DWX6OlN8++23JmTpdsnG0NXxXFX/exgCQAQIW8gJGmzGjh0rL7zwgmmTFdjIXYPOhx9+aEKSt1pvx44dcs8995huLeHShu1uUKusrDTBScNFVVWV1NbWmkCl4erPf/6z6a8hTNt5aRsu1dPTI3/7299M+y0NcLrMTz/91LTr0melbb8Cw2Am0NDlBtGsLukCgEhZB0MMEpsr/eXa30jfb7TvOVHbygpZvvVyH1YQc4baw72vo9Pd21DhXUZZb8MnziBXR61nuPWoaLCm8jDDdbr23lrveKvanREClyG9tR3a3x6/trGht8wd5psmYF791sseXtborIlvHeyXtsHNI/jyM5MVznvPnj3rvMotufzecwklWxlIrzTtve2I3t8tL2+1+N/OFtnOLUVS3u5U85ZwueJb0qXtngqkShrEiixmnt2NIlVj+to+mc9EcbVY4cgMt4KTNXaVFPT7nLRY07VJqTMfK/yI1JQ4barcm1dbnRX2srwXQa2ubJbyT5zp9Irv2rYrr0SqV7U7y3TXK+A2QeGEnEf/dl39lg8gbeVs2EqnL6eIWAfjuhqn22FfGXulcLjNHcH233QPXEpDl4aDWPRsrhMrRkm750rr+Qs2SkNFizTv1JDUIfV6z8PGbk84soLT2gYps6ascxunO2o7PJ+d6Yut+VgR7FCX0yOMgPsXmrZdGso8wcdeLysYrR1cA3u7fZj13vrNwwqFywLmwf0T4dALo+rnLdUP/dwjuJwNW3rAd3cQZBfvhz9bH6EEGzfUI9LxI32EC1WxhK6uQy0iFYVS6Ly22aVQ5j6HR7tkj9WnqDDgpjejS6W8X5Aqk8IoA0vZeO8a9EjXPutpcmHArXbypfTmMpGmLhk4vnVIm55IrSoNOHEKPg//5SOX6R0Z9POknyu3OxWPv/u7vwt6LNB1ynU5XY2oO4dyd4i0pz8TH2P/MsrcUNf5Obp/NaL70/IOaZzv2eGdcd2b3dqPYFWP9vR94wRWX9jDV2/W6g5nnEfSqwIz8ACQrY9AwcYJ94hmmsE+dL8IJ1TJ18CcUBOOFbZi/vXgvi7/UqQBWUGoyemMVU2J89nrexRU8ntIpL9QQe/cc8/1259zMXzlfJst3RFc7o6QtqavlN5PtCpEqz6snTjMDWtbKkuka5mzs+s0TdpeJU/qxnc7H4BuaaiolhLv9YNoL5JRdNu7vN2pFqrUSgOW9k/4Z2x0ofmMJFehFMbp8mha/Wk+V/0eNBXIdVpdGK6qTkOMW7qUTlV6Z86c8e3H+h6GDh3q+77NleBFA3mL7gBe7k6Q0azA5Guv4lSfaCPfjVrNYvSvmqC9SOZxD2DpIljQim/ICl0tZ0pt9eTBCltF1uvqtwJKXI+2SXNToqrf8qVwsvVU0xZQWtwjba8Eq/YMplhKV1knSq+09StV87035zVy02DClFu6pOOlU+ByeYOXPtxSr2wPXYQth/7RA2Vy6Ir8C4X2IohNYNCKb8jqk79ghXVKEFAqu2u1lFj7b+0yLe0tlsWN1j5bU+L5FWCPNC6zTyZW+E44BqdwfPBwF6h4kd0Av8RTrd6zeYlUWQHPXq+BmXloKbS3at7vvSHXaSjRz5rbKD4dA1UkNHzlQmkXYcsjWOBS7g6QE2gvgih4g1aiQlafYlnpu5SDs58W75GGT/ouzWB+odthRTJt22jGKZCqyVo9HnlVXP6McjtEWfPx3WYnmNGV0tzbLrWez1BBZZG0W9vCe8mIsILMI/C9AW7gUqFCl46TrqVbgXKhtCvPemPBE0Ya0I2djlK6ybRd1ZgqKeroO/hqA3n7oK5fJNqAvUT2NHbbv8yyx5DG+c51iTztvAaeLpjBjpcaus+k8S6dVuK1rdygpQf1wXxmdXw9iKbr5xvJp4Hh9OnTvgCRS2J57zptsJDlnVcmb1st7dL345Z+ZbK03/p6EE/WYzAGO17mob0IopP4kiwAwQQGK6WhRD+LbgjTcTKlhCuQW+KVDSVdmRd1EyTcF0UkYSzhnMa/e7riH31oLwIAmSVY4FLe0JXJgUtlQ+gibFlCBa20Clk+TglUZYG13nG+RU8OtRfZtGmTdHd3mxtSz5o1S06ePOkMSR13nQCkh4ULF5og89prryX0u8ANRtE+woWowJKuTOZtTJ9pgSvt22wlevV0GV7hlpeM9UFsBvM3am1tlbffftsErXSRinVK1f6sX156oAz87CF36RdoJO2K6uvr5cYbb5RRo0Y5fSIz2On15Of222+X559/PuplJZpuu3BBylvyFel2TmcauL7++mvznhJFT8JffvllWbRoUVTHK+/0OV2y5d14+qVDkMp+euCcM2eOrF27Vu655x6zD2i/zs5OGTFihCnl2rlzp0ybNs0EH+3vdntt2bLFjK/Te4d5+991112+EjMttdL+27ZtM6/d+boHc3ed3OEAgtu+fbvs379fCgoKnD6RiWT6PXv2mJAV7bISLVzQ0pCl32nZEKyC0VKuRFcrvv766zGVCHqnz9mw5QYtQlZu+e1vf2sC1bFjx6S2tlZmzpwpFRUVMmXKFHP2eskll5jxbr31VnnjjTfk4MGDsmzZMtm7d6/przRcffDBB3LkyBFzMNZ5qeXLl5tQ1dHRIV988YU563rnnXfMPKZOnSqXX365GU+1tbXJxIkTzUHcu05z5851xgBym5Y+jRw50hyr6+rqzHFaq/W8JybaTz9fV111lRlPP4N6EvPss8+aaceNG2e+8C677DLzWQ02fSh6orR+/XopLy8389D5/fSnP02b74tQQWugkDVQSVgm8bbliiVw6b723e9+1+xDjz/+uDkW/+hHP5IFCxbInXfe6atG1n1t+vTp5sT5mWeeMfudPus21X3t3XffNcO13/XXX+83fc6GLd1w6fKhQfLs3r3bd6aqH5zPP//cBCHV1NQk3//+92XGjBnmw3b11VfL/PnzzZmwBjKlJVI67L777pP33ntPfvOb38hPfvIT019LxF588UWZMGGCDBs2zIyv9LVyl6UHce88vesEwA46b731lrz55pvmOL1ixQrzRfjoo4+aE5NPP/1U5s2bZ6rftYqmpqbGBIiLL77YnMRoPz150pOo4cOHyzXXXCP5+fn9pndPuoNxjw8aWvTxhz/8Qb755htfaXUqBQYmN2DpI1xJlo6XjSVdbilXNIFL/55//OMfzcm1blM9tuvx+LHHHjPH/7/97W9y0003yZ///GfzXF1dLcePH5ePP/7YhPjFixfLq6++ar439Biu3xt6nNfp9aTdnT5nwxZyj3um6oYcLV3SD4N+QLQ678CBA1JaWmq6tSRLqwE1RGl/N5DpNHpWrAfvjz76yAQ0PaB756V0ul27dpmDv/IO1zPqiy66SK699tp+65SJ9ODNiQviSU9WHnjggX4N073Vevo5feKJJ0wplpZWucHJ/SzpZ7O4uNh8CT711FNmukiqBXfs2CGjR482486ePdu8vvLKK/1OpFLBG7QGKsUKJZtKt1zRBi79e+rfWQO4lx6zzzvvPDNcj9P333+/CVDuvnbixAmZPFnv0SUmeOkxXQO9lsIWFRWZWg1dH3d/IWwhZ7hnqhqAenp65P333zdnwfpB0tIl7dbg5C1p0g+c9veeAeuHSYOWVvnpWY0GK+VWJ+py7r77bhPWdH76pfDSSy+ZIKfj6utJkyaZ5XrXSV8nS7gz+mjowV7nSehCvOhnR09ytIpH9yv3xESr9dTmzZvlhhtu8JUc62dLP2f6Raefb/08ajWOu68HTh+Ojqulzz/+8Y/9PsPXXXdd3D87kXBDUrQhS2Vr6ZaKth3Xv/zLv0hjY6PZh9xj2L59+8y+ovPS6kH9TnCDlu4fp06dMvvDV199ZfYVPXnWUlSXnrC70yvCFnKGe+aiZ7d68Pzwww/NAVnPPPQs2D0j1jNYbTyv9AOj9fPu2UllZaU56OoHqKqqyrT70oOxhistZtb+GsK0nZe2H1F64NeiZD3T0QCny9V10XZd3nVyl5Fo7odfebujpQd/PUDpvAhdiJV+kWkpgn429SREq3i0n/fE5MsvvzSfzQsuuMBMo192+mWp1Tr6GQtWghU4fTg6rpZU3HbbbWZ/1vmNGTPGb36pEEvIyhXRtOPSY6+WpOo+pNPq94Pufxrc9e+/detWv+D09NNPm5ItDfruvqK1He7wwOkNa8ZpK91WL803Fyz8jcLT7RPsES/WgcVvvlYQc4b00XGC9UfussJDr/XFaLqtL6necePGmf3H+hLrffXVV83+sm3btt5p06b1PvPMM77X1olQ75VXXtm7e/fu3rq6ut4777yz96OPPuq9/fbbfdO5AqcPZ82aNWZ+7ng6P3fe2cC7vbPZkCFDeq3w5bzqzzrh7bWCfa910mv2j1tvvbXXOjE23bNmzTJ/bx1n4cKFvVbA6rXCem99fX3vXXfd1fvwww+bfdXdV7zbM3B6lfPX2YpEuq0P+uNvFJ5un2Diuc30rDtwftaXlm/ZOlzPOEOtC3KPVo/l6r0RU8FbHZnt2zzc9bi0BOqHP/yhHDp0yJROafs//eHEunXrTA3GQw89ZKoO3R9ijB071vwISn9Brlfk1x9u6I8uysrKTI2Ge0zT6fUyQO702p+wFYF0Wx/0x99oYO4BwZWI7RUscCk9wOtBj7AFL8JW8uXKNk/GxU8Hgz0byDHeEJSoYOotyfIKFcKAZNKG0O41vAIf2kZT22ghO0TbaD7eKNmKQLqtD/rTvxEyQ6hAhtxDyVby5do2T3UJF2ErAoSt9MffKD0MVIJF0IIXYSv5cnGbpzJwsWcDiKtQQUsDlvYnZAHINZRsRYBSk/TH3yi1ggWtwFIsHYcG8vDSkgbdT1ItF36d58rV0kQt3Yqm7Za2/YqlRIySLQBxERi0KMlCJPQLUPeXVD1yLXTkIrcaMdjfP9wjHtWO7F0AYuYNWoQsAPBH2AIQEzdoEbIApKtU/xqRsAUgJoQsAAiPsAUAALJWqku1FGELAIAcoqEjHX79mQzpELQUYQsAgByTC5e5SJegpQhbAABkgFwqkYpVOgUtxUVNI0AD4MyQxrs0LHo2zUVN4aVfiKm+wGY6rMNguIErlpKpTHmv0Yp30IrH/AhbAJKKsIVA6fDln0kBRNfVLeGKJnRl0nuNVCJKtOIxz+yMtQAAZClvwNIAoCcug61ezNagpYFIt0M6VR16EbYAAMgwgSVakYaubOKWPGlNWDoGLUU1IoCk0i8IPtcIFEsbpHjI1BIfXe9gASvY9szU9xiKhix9n7HeJHog8ahGJGwBAHJeJgeRUIFLBVY5ZkvYikcAGizCFgAAcRAusGSTVJcgxipZpVlehC0AAHLYQCHRDVc6XqaXaqUiaKl4hK3ML0sEACAHhQtaGkq0sCKbgpYGHn1PyQxa8ULYAgAgw4QKWt6QpTI5aGnA0houfSSrfVaiELYAAMgggUHLDVjekJXpvCVZmVqa5UXYAgAgQ3iDVmApVqBMK9XKppKsQIQtAAAygBu0BgpZKpOClhuysqkkKxBhCwCADDCYkJUpAkuxsjFgeRG2AADIEhpYNMCkW6mWN1x5A1a2hywXYQsAgCzgVh2muvTLDXyhwlWuBCwvwhYAABnODVrJDlnBgpUb+HI5XAXiCvIAAGQwDTKhLm6aaNqOLBvakIXjXoYilsBI2AIAAAghHmGLakQAAIAEImwBAAAkEGELAAAggQhbAAAACUTYAgAASCDCFgAAQAIRtgAAABKIsAUAAJBAhC0AAIAEImwBAAAkEGELAAAggQhbAAAACUTYAgAASCDCFgAAQAIRtgAAABKIsAUAAJBAhC0AAIAEImwBAAAkEGELAAAggQhbAAAACUTYAgAASCDCFgAAQAIRtgAAABKIsAUAAJBAhC0AAIAEImwBAAAkEGELAAAggQhbAAAACUTYAgAASCDCFgAAQAIRtgAAABKIsAUAAJBAhC0AAIAEImwBAAAkEGELAAAggQhbAAAACUTYAgAASCDCFgAAQALl9Vqc7rSTl5fndAEAAKTGmTNnZMiQIc6ryOUNK1pqha08yTvHmokJN1Z3nvayC73yRGeu/fSV1c/qMN2m0x5m+ulg9/+8oeZZ5Q1x5nOOPcyM22uvcJ6zDNNPO50Zmyd96Szb/DPT2w97Mme+zv9mXr7ZOevsDO03jT45C7HHcabXLmd9VZ4Z3xlPl+9O447rTGu6hzjP5n97OrMdtdua1p7UHt8d02+bOH3t/s6zmcg3tv1sluPfT/nmZfGGVPMerH++6fXZzF+3s7N+Fnu4M455r9a/Xv/XptvtsPhtU19/q8v0sp77RvWtk/978izfWf/+87e5/YMvU/u70/cJPa7z7PTz23baz3npvx2dZ2daZe8fOp55MoKtk+p7/+bJcDv7+ll/E6dL+dbTO43vhXdJfeP4T2+/8lsnzwjBx9W/iY7X90b9l+90WNxOv+3kdIZcjl9/+4VfvyDTBe3n93dwWXMMMq5y+/ue7SfDO4331NPtdPsFG6bs/nYfv/7fOs/2k+Gbl/1k+M3XN7yvZ/jlBgx3XgQbT/l32yvY62yN3m/7Boac3hkSbFz/8Tz/ewa4ne62UXYvZ13c4faT4evnnY/f8j3d7rjO/FTwv4NvRP/pnfn2vU/zZPSN922Q9e+bVgUb1385Toelb1meaXx7qDXUWdf+29EaZubjDHee+6+f09968r0/PfZ7XusLv+nNsd+aifXP7W+ezeu+mQ/8N7G6znqmd7vMdNazmZVnuPtezbzcKZxufTL93fVzuq3/lbscezq7293HdWL/9+p5D2ftbnvcvmntaexOsxzT7czXPFv/9541r3V2fdO7vNP0Ot8WAAAASACR/w+EVEXBrvmVrgAAAABJRU5ErkJggg==;" parent="1" vertex="1">
          <mxGeometry y="400" width="603" height="286" as="geometry" />
        </mxCell>
        <mxCell id="Ib7L2-6Yxjfy-kbsQUxr-4" value="" style="shape=image;verticalLabelPosition=bottom;labelBackgroundColor=default;verticalAlign=top;aspect=fixed;imageAspect=0;image=data:image/png,iVBORw0KGgoAAAANSUhEUgAAAWAAAADiCAYAAABwbh0rAAAAAXNSR0IArs4c6QAAAARnQU1BAACxjwv8YQUAAAAJcEhZcwAADsMAAA7DAcdvqGQAAJo6SURBVHhe7Z0HYBbF1oYPSQgJJRTBBopdwd5/C4rKVey9oiJ2ufaCFKkqIjbsFQsWsPerKAoWBEXFriiKIL0khEAage8/z9mcsHzSQyCBecOw++1O35l3zpxp1RIKCQgICAhY40gpvQYEBAQErGEEAg4ICAhYSwgEHBAQELCWEAg4ICAgYC0hEHBAQEDAWkIg4ICAgIC1hEDAAQEBAWsJgYADAgIC1hIqZCGGe1mtWjW7x3AP/N5/V2UkZ9yiFOmb0jxILFgo1VJSZcGCBZJaPc2elcxPSFoatrGz0J4FBKw0tA4t0PKVmhqVK1mYkPnFxVK9Rg1ZWFIiKWmlz0sLptZE+z+C1sFYiV0ZxOv3kuDvuaakRDJeicYnTeOzcOFCe0Z94LokP3CHwS5ugLsDvCsPf3j8KgMHVTgBr8tIzrhFqdU3mgdFBQVSI7Om/o7eLNBCRNYs1IqSnp5qz/7tS0DAimERiZV2ZLVcGah3FDSvf6WXlSXg1UF0ye6JM8+cTJN/gzjZAsg7NTXV7PEuTsxVHRVKwI7kj+Dv48+X9KyyIznjYqmJDBVCK0dCrxS0tPTqZW9B1UlpQGVEvBxZ/dFyVq2UuOYXFZkkbCgtaGuagONE6hIwKCwstOf89vdLslus0jzhV68e1Zu4H+sKKpSA/QNi/JnfY+KtXFVEcsYtKqq8UWMWqkn2rGxNr0jR/PlSol1G0h2lXfPnX74EBCwflJqSkvlWjiClBUpOtbS3Rb2q36BBZMmxigRcXnj9BxCsc0GcbEGcD+JuAIIL0i9wd8l2VgS4ScbK+lERqHAJ2BNJ5gHP+FXJxMqG5IxblJrSN3p57dVX5eabb5XpM2dKWvV0rSzVrcLQmi9cuCCyFxCw0khI7dq1JS9vjtWl/Px82UCJd5utt5G+t/eR5jvuWGpPUVowVxcBe/1eWv2Nv6ecU+edOOerEJKenr6YHSTijIwM+817JN64tDt37lxLqyNuv6pjjRFwPMMBv5f2AasKkjNuUWr0jf6bpwXnnn73Stdu3WSDDRpKow03krnz8rVVX1wKDghYFRQWFlgZ2mCDBrJQJcXffv1VUvX3kCEfSsuWLSNLZYUyot84KoqAlwaXYGks7r//fjnyyCNll112KeMCJ11+P//88yb5nnnmmWXhcY3qzIphVeO5JlGhBOyt3ZKAfscV68mZyofCD+96VFbEM+5fn9heJqRzp87S5/a+cull7aXtee0kQ7uJEDC6Yd4nKm/ZCKjEqFZaviIVlkrA8+bJlVdeIaO/+UY+/vgjOahFC0lJ1TKWVL5w4Vhe0fMBMsA1mciop/Fnye+B24ELIFfq+owZM2T33XeX++67T0466aRSmyIFBQWSmZlpBH3aaaeZ3ddff914AH8wLhWvCDzs5HjBLZiVIfOKQoUSMBlJVyGZSPmwdCMgZzIB45mEW89sV75XVnjG/avYxXL02muvlX4qBd/e9w5p/98rZMHChBQUFkl6De1CqcPVnvkB6wUgXlRYqVpvSuYXS1adOnLYYYfI8M8+k08+GSYtWhxYWjDjpbS0jtn//mvpgDSB189kwkKIAv7Oyc7rMsjOzpYaNWpIrVq17HdRUZG522mnneThhx+W//znP8YTdevWtTqPP3AD0nGDBg3k1VdfLSNv/MUuHFGzZs3FwlkR4A7uidR/C82PtY3VSsAkisy66667ZNSoUZb5tHAnnHCCNG3a1BL+7rvvytChQ+X777+X+vXry957760t95X2gXDzyiuvyH777Sd33323daO6du26GBHHdUMVDR8ASNY5UYBoPBhQoxCkaDlYrDAoyZKtjEjf2LGT9FXy7dqtu1x/w41SVKyFmpkRmuuR9LtyhSggIAIFCAlVb7XepVdPk9atD5cvR46QYVq/Dj74oMjOcgiYckr5RvIE3FPmn376aXn77betDlB3L7jgAtlzzz3NzjPPPGP1FTJ97LHHjDyPOuooadOmjT2nLnyjkvjAgQPl22+/NV6AcC+66CLZbbfdZObMmXLggQdKu3btZPr06fLbb79JkyZN5IYbbpCtt97a/D3xxBONICFg4jR58mS57bbbZNasWZKTk2OqCeJEXL0+JoNw4QvePfnkk1KvXj0LD44hjm3btjV/8APegmdwg1lTHFNuGZzIOkjUWWedJYMHD7YW7OKLL5Y777xTOnfubC0XxHvhhRfKhhtuKFdffbUcccQR8sQTT0inTp3M/e+//24fFPKli7LNNttYBtI18dY2WZquSHhYyW0UrTTxStUuXoqyL+mmoPIReU7Jrkb3zxAV/ITaiapDaSWwC8+CCWblTVR2KGN6pWypicoacOJdvNwmg7pL2YV8vZ4haPTr109uv/12Ofzww41UEaTOP/98+euvv8zNjz/+aOQHyV511VWy8847W0/v008/tboxZswYOfXUU23wrH379mYHIsaOk2VeXp6FA3lfdtllFvbJJ58s//zzj0nMvIcEc3NzjYCPO+44i8c555xjfvfu3VvuvfdemTNnzmLkC3k7XCqn/iLcEWfScPnll1tD0KFDB3nttdfMLuRL3HBDuHFeq0iUi4AhHSIMuQJass+0C4TUevbZZ9vHe+ONN6SOdo/IBOz26tVLrrvuOjn++OONjJGQR44caRlJ60lB+O9//2uZS6ZTODCeyWSok/GaAKTq0gGFBPCBMKSbuJA2yJqPaC2nVYYYSiuHVQe9jch3edUjIGDpiMrOIhKO7qNrBCfgpZcy6hL1jXpMuaWcf/fdd/LSSy9J9+7djagQqJAeIeYBAwaU1fk99thDbrrpJqu/t9xyi+y4444yZMgQ82/atGlG2PSEIUvsIGn+/PPPRqYQLPUFiRgSPOaYY6y+U4/efPNNi9umm25q16ysLOnZs6cJY0jeSMbwBuSNG8ICXg/xG1BvAXWS59Tdfffd1/iHHnmPHj0svePGjTN7gPxwd6RxTaBcoZAwQFeBjB8+fLipFbbcckt7RqbQbXnggQfsA7do0cJaMDIZEr700ktNJUGiyWj3a/vttzf/6DIAPjrGsaYyhzCXJgXTQhJXGgY+HL+xT7zdxF3YvdrjukiKCQhYVURlKG74BxIrWLS83HoZ557uPUT5wQcfyCmnnGIkfM0118jUqVNNsqUeUP822GAD09ECSLVZs2YmkFDPDz74YBPCEMaQpFE1QOKQIYIW4RB2q1atrP7AE9R1uAIhDskZVYFLszQKY8eONcJHsLviiitMvYEd/AOEi59eT00QUhAnniPcNW7c2BoS/Kfu0ojMnj3b4g+IH3mBH3G+qUiUi8lIpEeUezKWj0MCSDiZSybyjpbprbfeMhJ+6KGH7B0fDbL1zIK0kJbdDf55BnIfD2tNIE70xMElYRoMK0Q8tyeRXT4ecXPDy3hlKKsoZa4CAsqDqCxFZSoqX160FhcXFkfkKoL3LCFByji/qYcIUtRPiJG6C+mhInCJ0iVNl2iRWL2+Q6KM4yC5orvddttt5YADDjDyo57gBvKmbhMW7vATIQz9MHN+MdjBLvUOQzjwRaNGjcxPCBlhD3hdpV4i7ZIW+CI+dgPwD795h92EGrdDHPDH3a4JlFuUJBHeUu2www6mJOeZS8W8O/30001vRGuI7uX999+3LgD6oY033ljmzZtX1r2nIJB4zwz84eqtk8O7ChUJPgTxiH8MPiBxgWDLPqLacXukOYq/VwIv6n6NngciDigv4uXISRj8m3wjm8lvvFxT/yBByjvlGfK95JJL5Oabb7bxG6aLQXjeI0XqpA4ASBF3f/zxh13xp3///iZJo35ETYDud7PNNjOJlfpMPYYnJkyYYPYBOl9UkagyAGFMnDjRyJH44B7+uPHGG6Vbt25Gvki0Hg/4g/TgtzcO3DsxE15dJXj8I41O0k6+uOUZ74DHq6JRbgImgSQY4uQj0Wp26dLFWkEyGFUDVwgLuxAVH4IPxKAco5y0dLRw+OHSI5kDyXoh8Yxx4o2TcUWCePhHhFyJP2AWB90XlxwwxGnR1awFBFQgylfIKKuUZ7rnAImU+osKAT3rTz/9ZAIHiyaYqcQAGWDgjG68l33qKFIpwD/qMgSKf6guqCvM50VtQZ2hflOfmWnxxRdfyKRJk2xK2t9//206Y+o4pAvh4z86W9SbAwYMsIF6/EMV8fLLL5v/IC7pUl+dLxi4A3DUPI0PccVPpGCEw0I1pIM668Iev9cUykXA3uJwpcXYZJNNTDnOyCUDcOh7f/jhB8toug60qHxUFPvMkIB86dqQGWQ614022sg+IiYu9TrxecY6KVY0PC6AD0fhIq4PPvigHHvssdYiM+uDBgUQX+yz2CKaLP9vRDJLQED5EC9HyMCOFS1bXoeccKhvDRs2NP0tEickd8YZZ9gYDgPj6HKxizveu5ToZR4S5h11f6+99jK35513nknQqC9wAzHjB3zAKjikWuy/8MILRrD0or2HiToSMIiHxMsA2mGHHSaHHHKIvPPOOzZNFaEPTnAu4h7jaUO4g2hRb8BPvKMeI0zRINADJzyv42sa5ZoHTMJc3PcM8A+E0pwrLRkf1VtKWiQ+Am7JbLo/TuAA9/hDq+yZuLYA0XoXB/CbuJGWs7TQDBo40Ob61tKWk1FaJpUztW7XXXe1NJOzN93UXXr36SNdu/eUTp06St68Qimez1zmyr3IJKDyg3qTmZkhxUXanVYCPumk4+WLTz+RkV9+IXvvtYekaDldBKfrGFUvp+ojbVIHEYwgK+ooBEadpZ5Cal4/kGyhEp7hBjvoc+nWQ8xIzdR7/EBaRSWAhIs7pGnqO9NTqV+kC4EGkoQgAc+Y8cD0VSRfgD/bbbed1TmEIaauElcH8aGuAsLDD+LCM9LBM/xAqHKp3AmaNLjbikS5F2LgHGIiwiQCjBgxwiZxk/meEBLmXXieuYGIeeYfEr+wD7Fzv7ZB3LywEX8McWUmx8TJk7TwF6mlUssK3jG6etBBB0uLA1vI2++8K4/3f1KuvPpa6a4kzObsxaRRr+RJQMCqgvq2oIS558VSPS1Fjmx9uHw3+ls59pgjZYvNN5OFidKxi8Qi8rWfpVdJLLv8UQdRQUBchJUsYVJPeeZ1xOsxz6knkBtqCAiO5xAt9nnOvbvHL9zG+YHnqAQQ2OAR7xkj+aLeJD68h9QBYTAfeZ999jHpe6uttrL38AuLO3APPO6Ad54uB2EQrzWF1ULAHmE+FBnGABszHch0z9Q4PNPj7zwT8APgZzmjtlpBy00hA6TLGgdNdorGO7VapHMizsQ/inc12XzzzaV6eob8PeEf6d6jl1xzzXWSOyfPCDirbr1K0cAEVF1Q5lJTkNa0TCoBH9LyIPnum1FGrKmpWhbZjxr8qxo5wSy7fkFqlHnKtNfxeH0l/KXVX+o39QT37hb7ALtuj3tIkHdeH7DPM35D1tjFuHv8jt9jFy7hGf65/hjipd4yCYApdd5bJ84YJ+I4eO7xXRMoFwH7jADPfMdXX30ln3zySZkCnASRWAzBkVlkqD/jvUfD78lMMnZtgngQB48brbkXiI+HDpVvvv3G4smxQw4+PhO+DzjgQDn6qKPlmQHPyr33PyBXX3u9Nky9bI/2Ii2UKalRoQsIWFVQfjIz6CkWycIF87W8tZZvR30l57Y9WxpvsrGWsVIiSXB1oz9LrzFlxBKBhAicJKmblH3qg5MXdZnnrkJ0EsUN77zO+zPg7uPEym/nEn/uxArPQKjE58MPP7R5wYB3ADeoOJCAUUdgmjdvbn4gIcdVG16nHR43B2lZkyi3BOwgc/yjkJFkGmRV1cFH9g9GVvGBIOK2550nr7wS6aJq16pt+qejjz7aRpDRbVNgyNlOnbpI37vulq7desjVV19rG/Gkqn8QMAUiIGBVYeVRSZRql1ItEakgVCj49NOhss9eeyrpuISXTMARVpZqCA/j9Xx58PqSDMq9k3Ec2Pcr7iBm7FEH/crCELYrADz7v//7P1sxy+Ac+024lEtDAA85kMSxj3HCBx7mmiZex4rl5FLgkQcknAR7C8hvEoodrmQ678jEuDsHz5Kf+7O1ZYCnB5AOQNcMndKuu+0mPXv1shU/6LzZTIQCAfk6udIwJfTePzgFAEKngQoIKA8oRz7Ogr7T6xZllnKmpTj6SyrX+q/ULOndIpMMf+b1Og7KO+E74na87jsPLM1/RzIZ8htDeql7+++/v6k5WbHHWAz1jnEX/PS5vHBRPD5OwIC65+G733Hwzut6RaNcBEzESWQ8od4VIRGeOAoIiSdTyMTkBAO3G4c/W1sGJEvxfBje/bd9e9vgg2lotLx0gUgn7/nA/rGpGOrAnpFPvCdvvKUOCFhV1KiRZvWNckWvDFC+OJ4IaCmO/mJlOjJWJJOe/dtAmi5IAMo3hnfx58DruMPtAq/7bifOAdQFJ+V42BgnQdwwtZVn7B3BAg/2qmAGBCo/d0tdhaAJBz95xjsQnx1BnsXfOfjt9XNNoVwE7CBDAa0M93w4MoFEAhK1JANIbDzB8d9+v7YMBdvTwD0FgXQh1TJhPS1VK0D1dHvOe9zw3sm1sDCa4aH/mT+1akWFg1ba/Q0IWFXk5kZ7GlD+qE/16tazpbVppV1vLcXLlICXB0gTv4GV41JQdqnnhAnRceUZBntet0H8Ph4H71nihjDcLcZB+B4GAg5gyTNTybxuUp8wAHv4ix/4ieGZw3Xazle4T4b7535WNModiicGuPRLxsURT1TcADIhnhHx336/tkw8bfH7ZOnV7XL13yAjo0ZZASC9xcWRZIL7eMEICFgVUOZ8lgL3LgV72dJSvEwJeGXgZToOyjQk53UZYC/+O/mdm2SOAP4uDg8jGfH66MAe/sb9WFa9TUZy2GsC5SbggICAgIBVQyDggICAgLWEQMABAQEBawmBgAMCAgLWEgIBBwQEBKwlBAIOCAgIWEsIBBwQEBCwllAuAuagvXPPPddOQOV4IQwbrPObHfVZs82ZUKxa+frrr22CtE+G9gnXTKhOnqydDJ/fCFjEAJLdOfy9I9lO8m/mTBImK204VgX4JPGAgICAikS5CNgP0GMJIMeVPProo7aJMwsymAA9ZcoUW8ECWc6YMcMmOjMZGkL1Sc9cmWzNUl3IMD4Z2snYlvMqsONb5OE/7rh3UiUc3vPbiR4/fWI6z+ITwwGTt9kU+rTTTrOjk4D7GxAQEFCRKBcBsy6b86I4eK9Tp062JwJHl3CECceQIPlCqBxFxGkRTmq+Yg5JEwJkc2ZInHtIFkCWLp06gWIHu7hH0sU99xAm9iB2SJjfED1E7Msp8S+++gb3TtI8pzEZP368/SbOHseAgICAikK5dcAuwUKOSLkQIdIpBAYZQp4QNTvZ8wxi5mynW2+91c56atWqlR1Xz45iHMjHto4cwsdhe/iD/xxvdNFFFxmJH3rooXLBBRcYgUKckCjqg44dO9oZdIcffrgceeSR5h/xYj9QwmQbO44gAZC8Nxp//fWXqU44EPDxxx+Xnj16mDuIPiAgIKAiUW4ChmCRNLkidULAbiBQpNJhw4bZGU9IwBArEjLnO6EnZtd6CBVChJD79OljqgAO68NPiNbJk5NZkapRc5x55pn2jLCvv/56I3gO/mObuiZNmpif7FbGwX5Itty7bhfiHjdunJ2uSqPAjvmcPcVGziepH4Qb3z0pICAgoCJQbgKGzDAQJdIqhMgV+LlP6HCRKrHH+y222MJOOT3++OONVDnwjw2VkV55xsDeN99Ep0289957JlmjxmDDc8yAAQPk119/tf1AkVzff/99eeaZZ+wUVyRoBv84gZVBQofrqh0eXw7PRLLmno3U2VUfqZqwAwICAioS5SZgBxKvbwXnvyE9BsWQMjklFUB8HJjHMSFg+vTppqNlmzmIGHd+WikS9PDhw02Cveuuu+yIa466Zg9eJOgxY8aY+gFVB+evQfJ+lDUH8/msBvzEDtI40i1kyymsEC1uUEmwryj3gAbD0xEQEBBQUSg3AUNikJVvhAyZApcgITzUDy59crow9t2wtyfuIGZ3w8wJJ0sIltMnWrduLcccc4ypC5ix8Oqrr8pRRx1lxA7BQ/YQKUQLiFd8xgRh+abpELDPqAA0HEjruHFgPyAgIKAiUW4ChnAhNIgOFQP3ANKDQAEE6cSMPb+HLCFeJ0nIETcQMVIozw488EAjyBYtWtjJpieeeKKpKRg8g0AhdHTPHATqUnNeXp7NakDKJmyOCILQPUyAWgN/CRMDsAt4jj8OyJg4OuJE7fC0grj6wvOD96SbsAK5B6wP8DrhdcfLPfVrZRGfHbWi6sF4nY2D55WlDpaLgMlgJyoyBmk1DgiH9xAzhIcdJ1mIyQkb4iNTnYj5QJyozLVly5amVkAH/Msvv8i3334r1157rQ3a4Sc621133dXUEp9//rkNrjHI97///U/atGlj/u+5555ml6PyIe6nn35aRo8eXRYWH4O4Dh482BaMEC9mTxCneFwhb55B+NgbP2G8LFgYFTLS5QXD70tKosYkVd2SRhobzwMn5oCAdRVeH5JBXXJyXh6ceBGucEPdo/64ILUsuEAFr+CW+FDXeV5Z6l+5CBjSQgVA4ho3bmwHUibrT5FEmR+84447WiaictiiaVN7hz0yZbfddrOP4i0Wsxi23357e8aAnQ+6Mc2M6WYjRoyQJ554ws6Ewg6Dbrvssou9Y3YEMx769+8ve++9t/nH4B7645dfflkuu+wyGTJkiE2NQxft+l+mrjErgsUk6KCRrPnQ3lrzwfjt5PrwI4+YSuTSSy+1gwFpMHhHXuAn92lppUdsqx/8Jv3xQhEQsC7De7rUUUBdcG5YUQKM28P9ygBhxwnXe5+Vrd6V61h6EuitCUTFb3SxJNKJBpBxZAASIFfeoSaAkPg4RMEzGvLyzPIPiHsnQiRZZji4n351+PxhZjc4IEz8ozHALgNw8fjRmro0DIgThNqgQYMy/7315J44ntu2rRL6S1INok2JBhEheqbSQfwMKKoT6dq1m/S+rY907NLVjqjPLyiUhepPjYzMsvACAlYFlMcUrTaJxAJJr54qRx5xuHw18gsZOuwjaXlQC2xEFoW65Wbxp2sK1CPqEHXL6+OKAvvwAwZu4eqkvjxQxwiLK3XX3fF7Rf2oSJSLgIFnZjxTmfeLVAixQXae+ZAzg138ZkAMEgZkBM+RniFxdLvYIaO58tvJiuiikkBKdfIHLCeG0CE+3vlAHu4IF3/4eITBPeA3ccZP4ok072SM37gnbrzHQLw+y+LjoUPl669H2b0WjbK44x6J/9BDD5Ojjzpa3njzLZWWH5Wrr7tBevW6RQqLipWEC6RW7Tor1I0KCFgaKJOVnYCd6OJCWbKAtjzAHRjqJWn2Or88xO3G7wkfv1amEagorBYJGEIjQQDyYzEEelhaHCe7OMgIgnU3EJE/g2yRlB3YcaJK9o8PywfGLboh7GG4J26Qog++AQgaEo3D/XB4+P7cw4zHy+OUlh615gtLojhhlzTwLDU1TTbZZBPJrFlbxv8zUbp17ynXXHONZOfMkSItAPUbbGAFISBgVUFZqyoEDIgvdYi6ZHFfAQKkjrh7J1DGZ+LqvKUBgQrB6qeffjKVIlNVwco2ABWJckvAEB0ZQ4I8sxksY0DMn0NgvCPDyTg+As8gKn5DZlzJWDIMadglZ9zwHjLFvkul+Is9gKrAN/4hTDKYmQ/sxMY7nmHXyRQ9NHHAP4B9sgHixg7qBz4Y73lOGpGiiYfbffGll+Szzz4192UlWoG7/fffXw47rJUceMCBMnDQi3Lfgw/JFVdeLd2VhNNpKBYslOL50TH2AQGrCspPVVFBAMZuWDjFOM2KgrpHvQTURwb6n332WVusRR1fHqjL7E9zwAEHSLt27YxXAH6tExKwZw6SJSQK8BLS80RCehCbkzDvXfoFbt/h9uOA/HDrmRa3E7/3ML2V8xY3Dt5hH3tun/CJh8cFE/eX59jlN/enn3GG6YBTNR1162TZQCJ7WLCqjsE9wlZr0rFjZ+l7193SvUcvlYCvMx0wemMNZbE0BwSsLCiHlZmAvf543b3lllvku+++s8Fwr1crC6absuIVMkfduDwgeFEn27ZtawPmLiQuiWPWBsrVBDj5Aidf4MTiZOkJJeHcx8kXJBPRkjIGN+4fiNuJ37sdCBAkky/gHW4I16+Aq5Ox/wYQttsFdG0YCDzu+OPltttuk08++UQ+/PBD2wvZZ28sBiVuCqFVGPV/URhqEqtoKrz6rAiS4rQyplLEP6C8QCgBlG3ANNAHH3xQ7rjjDtsigF4tdffTTz+1WUasan1Je48MiOOG388//7z069dPXnzxRZOQAe9YyfrBBx/YlE9mNb377rvyxhtvGIk+/PDDtl0BIA4eD94Bjw+8xD2E+8UXX9hU1Oeee67sPdcSrZvJ6VhTKBcBry/wBoOPiEEdcZm2puw1Aeky6Aap8o4P6cQdELCuA/LycZUff/zRdjR87bXXjDiZ8nnxxRebAMOWA0i/EC8EiDDz9ttvm32mfkLWSMiscoWEqUMjR460jbjYN+aee+4xQYf5+6gV2HwLdYT3qrFP3XMhyYkVlSVjMRA801QhcMao6K3SOOAuLtw5Wa8pIg4EvAz4R/AW1j8u2GabbaRB/QZSIz3qBWCX926Hj798qP/VVtGUdSTXJpLitDKmUsQ/oLyAvLz3C7FyD5lCkBh0rpAuRIvut1mzZraNALOJPvroI1s7gHTMlrQQLLOZIGTqD34xjrPffvvZQBqLsTDofpllxdx/J06IlHsnUO6JG/f4Sc+UBVhDhw61fWWQqhmrSpaYXXjya0UjEPAKgI/phArBovvmwxUVF0nx/GJr4XnPx3a41BwQsC6Dco+BsFDLTZo0Sbp06WKECekhuTJH3seLmJ8PsVKPbrjhBlsQhZSK6uLjjz+2OlSkEjX1B/0txMgRZ9Q33KPewy/Cwy+uXjcBddXrIc8ha667KlkzNgMYkEN/TJhOwNghLPxbU+QLAgEvAxQSPoq3pv6xvCAg/aZXTzedsuu3+fhxIg4IWFdBfaDsUzcQQlAXcLgBK01ZWcrWsEibjJlQZ1hExdx/H1Ph+dVXX237veCO2Q08876Rz7lnIJ36Rb2ClFm5Stj4Q/10SReDvz7+Q73FLb83K52CBrCDH9hndhXwnivAzzVVhwMBLwd8ZMDH5MO5sh6wD0TJgsWnk/EhsedkHRCwrsIHm6kj1A9wySWX2EIsVApMFUNlwOAaYJoo4ycQInuysLMhdeXOO++0QTVUE02bNi0jP8iWQXQnSeoe4VC3qHMu9AD88XvsueDkZEocIXfgvdM46Xr8Qfy+ohEIeDngYzgJ+4fjA9NlSU1ZtL6cQhH/8F44AwLWZVD2IVTIjIVGqBWYC4/0ywAcOt4ffvihzC6H91JP0Mv++eefdnINx4yxrwukzcwGiBrSRH9MPWOwjIE+6pSTI2TqQg5Xf+710IUg4oVB7YHx+slAHvYIhzCAE3+czCsagYCXAT4gH50CxscCXPmAkHFC//hYrpLgube4y4cPRJXXrC0sKS6rYgKqMqgbEBhlnj27GXhjvi3TxjjHkXccPcZ7diVkN0Pm5FJnmJ/LjATObLz77rtl4MCBtlqNRVXUK3TDEC+EDnlS995V/yFuFlUwrQx/qYtOosAFJeokRM87VB/4iUGHjH9eXzGO+P2aQLkImISRGOCtEQnwzPB3PPN9HxxknCeW+3gGJi8XTobb9TDjwK+lYUnvkv1youV5XIr1FtY/LmAPCP7iwN6Ktp6kP9oxTaXpVAYPomtJCfsRR89TUiB4JAz0WSyrZnenaAk0hcn9AV7A/Lk3HKSbtKAP8/jjhnfE1fPfC7Lbx477x338N26pRMSxsLBAu4kZ+r0Ly+K8cCG7whVolzN6Tvw9HYnEIjXO8uDpJF+598Ec7r0C8Z64U26IO7+BP+fKcwz2ccczN/zmHSD9mZnR2YbLA27cL+IDcOdx5p7wMeQzz5ECPW8d7gfP/RusSPi4wa4LAPPyoy62z31HQLA/9WtxQzyjuJbHkB6Mp/GQQw6xGRAsSmKGAceMsS0sg3G8Z4rZU089ZTsjMovokUceMSkZQuXQBfTFqCEgbvKEAxfQCzOIBwhrzO+/m2TMQgymgDJ1jZNxeMf3IB/cLkDXywHA7FyInwD3PEPyJv/cjb9fkyj3UmSArgbdThy+mxitmOtwqCC0PCSaDxJ/BshAKpjbB97FgTwoaMmZ5O8BSaFQ4o+ToHdD4u74OJ5s3jGfkG4P8Aq+IvCMW9qYKUHYSrg77pQu3XrI9dd3kKLi+bYSjh3RIFrSTh54flB5XFflBEor7sussUeXLNpgiHSYVQPvgaeNK+5Je2Zmhvqbb/6TJ9jlOYbfTgz4z/fhmYfvhdnzMfIXMosInGdOYFlZmTJzZq65JQz8xD/893C9a1mtGt9kabm36DsRJ64eX56TZ54WgL+E6fHAvjc4hId9J27KJsvRuad8kpf+3XGPO9x7uVoaSIOnH+Px9DjxDn+9jHrZ93Txnt+A3wB/PC3uzzKh36BaNc2j1GpyZOvD5ddffpZbb+kpzXfYXv1wAYI89nzWhqH0nrvygPSSXxjiT7wB6cOQnzxLzhOe4QbJliv1j+fMWKDs8024Jy/4Fnw/prLh3/3332/zjOPAH6RrJHBIn7MdceO85N+ecOMNOPd8E493choIv6JRLgKOKlEUYTIQr9y7ZUWeTCeBuPfWGsQzIE7MwN95YYaEeM+9ZxZ2PFMdbt/DhBD4qIQbz2T846ORjvgHWxY845Zmi6xYFgFDihQS4kB4HN1EvLgn3sTZ40G8KJgUeuINnMA8np73gGfxfCHd5A2/eY5/hAEIA1BJPK/i+YXxvPdvXr16mvoXNRzYJc/xn3eEgcE+q5mQQpiihP9162bKrFl51sgWa14sPfei9OAPcaVick9cCYdwPS/8u1MR+Y7YIz68J77xeAGuTnx5eXM0PtkWHyQt0h+NtLNz379PPkkGfuE3aSMc8oL8Inz/fsSRMkV8eMc94XCPO9JHz4D84Df+ud/LAulOsx6TNp5pKXLE4a3k21Ffajjaq9HGPTWtNG8TXN3oz9JreQmY9EVxXzT4FZWNRQf18oy0+jciX3hHjxj35LvnH+nFHs+5p/xgn/wC5B/g2xEm76gTuAH4w8wJ9MnMN2aPck7Q2Weffew97jw+yfC4e9572ioaq0UCBhySyV68JB4SYc02R8gPGDDAMoVgeE7CSCwfwcGH8YIaL3TY5SPwzEkCJJMziD/jw+M/7jDuP+Aj8CH54BQCjrhnJVtcgieu/iGWBc+4pdkkZ5dFwFQUKjsf2qUB4ochDsTdCzjEQmElj0gL8cf/iIQj4MbjjuGefCAP+Y3/gPTzmysFGOA3eUiYhE8YGRm8L7bn2OcZbvAXCVgf2XMvvP79PBxUEF263CQTJ06UQYMG2XPckp7oSoVaej7jJ8BP4uDhkx788HB4T37UrVtTv2lhWTxIB2XO8xTg3v3QSMhbb79lCwG+HvW13H777bL/AQdYecEOfiwP5o+CSo1JU9IjWsSX+OEPIC34x28kPsqbkwfPKLvYJ558MyekZQE/U1NoGPW7qRR81JFHyOivv5Jtt91GsurUknn50WZVFUXA/n1IA8bv49+ZtHm5QsChISV/kXB5Rx54mj29XHGL/+Qv/tGIIwWzoo5n+OHAPt+Z/GduMAs0qNP0GlEzcGIO8fFwAHFyvuCdlxlPk/+uaJSLgF2SBKzT7tatW9n6bCQfNt247rrrLCEkHBKBaAAfgg9CQjF8DAodGY99Mp17wHN+k2HJGUeG8Qz3GOzxDD/wl3sM93w04uvu0C9xnD3zFgHvsceH9LCXBc+46JP9G+Tssgh4/vxiywMKBmFTKQmfAkb4GNLmnwi7/pt30eOlS8DkBfmO/8ALWI0a1ZUE8ux3VlYt/S7zyvKOtJPf2OOKey+0xA2/sAcB16wZqUuoTMTfv9Eid6kyYcI/mu7r5YrLr5Dd99jD7GzYqI5k57C1J/FeWu5F8SUvuOIfaUYdQ2Wk7AGPM3a8PJIWGjbgbgFX7Ls9rhttWFseePBJGf3taBscIo51aqfI1Gl55u+yQHy8jPk3xA2G34QNuCdOkA3CCL/dDn4QD+ziF9+Q70wexr/nksB7JGBUEFrCpfUR/5Efv/9OhZ6n5KADD1AJuJRAEvF8hnaj+9VBwB5n7kkLV37znDT7e9LKPeXD08wVcOV9crnHPd8Mu+QJ3+6qq66yaW0eJnWGU3MOPvhgOe6442zVHM/4Fi50JQN/CIMr+e5xBtwD97+iUS6Kd/KlUnBkEIWGzTXIyG233daOASIhZCJ2IF9GOFktQ+L947gkij0yxAsm75m2QsuH3g44+WIHIHkjYfGej4Z7DP4jkfvgH/Yp9OxXTEXgSpz5uPjBMz6YE/SaAFIn8crIqCE//PC99OrZUwYNHGgf3gmRPKXSTps2VW7r3Vv+pw0d73nnBcTzkd9ueAaSn/N7/vwSGffXX/LoI48Y+XpB9XR7xSEfuccd8SRM7GZl1Tbpgjxn0GXoxx9rBcmINk154gmzDwEWFUVEvs0229oa/tq1a1pF+mPsxOWSGyAOXiEh/B++/15e0UYdv/EXQ/yI51z9zrzDDnlGPKmIvKfhr1Onukq6n8gzTz9tYWOnQYPa8uGHw2XY0GF2isn/7beXNSiQr5P2skB5I47oWvGTsCifNWpEqo909YM9Ed584w3zb6ON6mn5n6zPBsv9991nZTM9PcXcel4D3BK/5SH6lhFRWz6lpNoqMrreG2+8sTRq2CgyjdxsWHptWGri71be0PBy8C0DaFxZXcYzDPfUJeo8UqnFR93QeFJ2GB/inisG9xxFxr4N3DMbApUQbnhOHeCe9JLHnAXJ2ZAsf2YJM7phZlXwzUG8TGMouw6vG16G4ve88/drAuUiYDKDyHIGG5IkS/vY5OLnn3+2ysgIJyQIyTE1pW/fvrYenP1yaa3YbKNr167WTTjiiCPsYE0qAAWRFoyz3jgNmYzFHSOXECXvsMNmHjxnnTkjsKzEgUzJbEZhOSIIYke3SiFnM5CDDjrIlkkyN/GFF16wHZqOPfZYs0fDgVsqw5qC68LYyKTfHXfIffffZ6PCVEIKBHFhsI6Nf+5QAh704iCrbKTf4+mFzO37M+xxBXwnL4QLShZYw0bhhZwAbrHvdrinEOOe/AborPPU/v/efc82SGHT/csuuEC6duuq8f/FNlH55ddfzC2VJEcJunv3HvZNXnnlFenV62YrC1QoyGtFQDrxb+GChfbN2EkLP/w5BlAuCIOyR7kkH0gbxGdkr9nAaDkNQfSNq8mvv4y1aVDpNdItLW+/9Z7FGzekdXlwqWzu3HlWdsgvZoF88/VoeeSRh608syyXniEN66RJM1Uw2Uwl7Do2TetHTU9OTp7lL3H29Pi3WB68kSAvCZ88cfh3r0jEwyMfSAMg7uS/5yV1mvhxT9qw6w0Wv0l/PL5eBt1P7GCfK1PafLMfVEbwCESOe+zGyzvlBDceJnUKeL55XYnD7WPWBMrFNCSEhCI9MMWEFurxxx+31gkpBRKkBSThkDQqCbqjTDUhgRA0H4GpKbRmbJbBChn8hBzJYOYI8pwpJ1SwAQMGWEGn1eNjsOSRysMWeJAoK3G8EENkkAIfCD+JE8/4SM2bNzfiJq6csMxUGauoCj6MF4KKRIGSRqOGKinU0IpXLUXqNKgvc2bnytg//pCaTIVSqa92rZpKenkycsQIaaxdrVqZNaWwIF9JVLu4WkboeiYWasFKKKloVxTDM35r71SJSwulvsfwLqNGdfUTffsCqZ6WKvXq1lGpqUDmFxdpPGpYgUho2jHF9Cj0d5rmx0INjzCzVBJptsP2csD++8nuu+4qGzbeVHbbZReL56mnnCxXaxdxbt4cDSddCaqm7L/f/0nnTh2ld+9bbT0+g0OkK+oIL9uQvpL5xWZq1cy07na29lzq1K5lfpCekvlFZpjilj1rphFnrZoZMm/uHMnM0EqrecHvWbPmyJlnnK6N+M2aVu3eql91s+pI27bnaM+jh9x5Z18tM2L76jKgNW9unrmNzJLjR7yqa/nN1B4MuljSRpibaQPTvFkzOfaYo6Xp5k2k4QYNZKedmmu8a+o3L5FDDzlYy+v9Wn9SpUH9OhqP2hYm6fW8Sa+u5ORhaXn9l9HnlFFIznuiXmYLS4lHm+XoT+0vbiBozJLerbgBXAmXOgMfcOVZnAxpqKhb/HYSBNjBvjf0Dm98uDpZOhDGENiQqHlP2NRt0otd/OE3/pI3gDCd8OPhA+y6H7jFH8yaQrkImMSQKLocW265pXVFmA5CYnhOoslk7JHJjEgi6WKHDTH4MEjAzBukJaOrwvw+MgD9LDo55u/x/pRTThEOvERyQJ2BJMR8Qlbe4BdSNdIMg3/Dhw+38PHfwQehy89HI07efaKBQG/kmc57WmSupAND650MPpofSe8fD3gBAAsXlhaq0o+KG8K2/FH/yfyCeflKkhqu1r4NNf1HHdlaBj7/nBTmF9hRR5lKmF98/plUU7+2atrUyDJD87W6Esiff4yRB+67Ry695AI59eTjpVePrvLzj6O1EhcrAaap33ny8ZAP5KILzpdTTjpB+vbpLX//NVYrO6SqgSdKZIh2h9tfeomcdfppcuvNvYzc1QMzEAvETJgQYPbMGSrJPScdrr9W3njtFZmTqz0LJfHmzXaQHbbbQj4dNlReffklI6Ei9Wf61CkyO3uWdO92k9x/7z3auORIDQ08Nydb5hcVSqcbO8hn6ob7+nUzZNqUSXL1lZfLN199qenWCgOpKcnxnhlVxI3BJTIsIz1N0/ahXHfNVTL6m1FqX7v/aib8/Zfc2bePnHzi8er/DTLs4yGWV7WVhD//dJj0f/xR8zdVyXvypPEy5tef5MrLL5NBLzyn4eRrvs/Td1q2laR79ehm+dP7ll5y4nHHWtzG/PKz+UejlFCpvIZ+i5L5JdaYlui3HTlipFxxeXt5RXsqP//0g75PlU03aSS777aTRrtQxv35u9zSq5s88ehD8riap7Q8kx+Eyfd6fsAzlo+PP/qIHK8EfpkKKSOGf27kTqNGwwFR02Dzjbx+Ud693HFIANBSF/2Vlr9Fxopk0rOVNxaGXqkr/htwDxnGnwF+E0/sgzi5Uj+Xhrg/uHVBCfA77pZ7/+3uCNMRvwfYdT+S47smsPRUrwBIDN0fCAty8S68Ey/PuSdhkB/SJplO1wDio+X2j8Az3OOOK9vQIQVDzBA3V5TvdGcZCaU7CekSBiAc/KfVY7UNVyd+QBeVrpBLCzzHDs8Jm3vC9nd0X/ko+OEfHHuO+Ifm6gRMWrknXnRzzU7phyWt+E1FQfVAmFSm4qJirUsLlSRqyUEtWqj0NVemTpliUlBuTq58MHiwtvyttNGoa1IoUldO9ky56KILNB9+NdJue+452gP4Vf7b/jKTjhLaFX7u2QFyU5fOsteeu8u111wtn3/2mVz+3//KpIlTrQGYPGmSPPbYI3LwQS1Uej3FVD6dtNtcv15NWhIl32JtGFJUSq5LayLPae8Dfw499BBpceAB8tST/WXi+L+NoDU4+f670fLpJ8OMnCZPmigdlWB//PEHaX344XJIy5bSs0d3uU0l4cabNjKyeklJ6peffzJJdE5uvppc+ejDIdo1/96kSwiXd5A/OQj5IF1n1aktg997T9q3v1R7ChkmWdNQkIfPPfuMxbv9ZZfKV19+KbfecrPMmD7NGrjfx/wmH380RO0tkHHj/lL3l5lOtt1558k2W29leffmG69Zz2HevLkybOhQue7aqzUOWXKR9rZ++fln7YldLrnakCAh8x2L9TsT1yaNG+i3+M3mojbedFM5/oTj5DMl/I+UwAkbaZ04Xnfd1fLbbz9rfhwkOzZvJnf0vV0efeQhS9tCrTsffviB5dP4v8fJZZoGZjhcfNFFprPnW6DjTdHyhFpKP3NAFUe5CBhygkQgFUgHQvYWxlsTCinEA1G73g9CgwwhKdxB2vjDc55hcIe03KtXL9Ptcq4TG3ag/0F6RbqlMBK224cgac1Q3qP3hch9NJwGADtusMuVuDnBQsDEkXTRQPgzgF1vuf2Zky6//RnwVpqFEqRNHZc1TuQPcSH+TtwYwtQ7+b999zWSHf755xqHDJk+Y4Y1KOiuncAh78mTp6hUtZutv7/4ovPl/PPbyiknnyJTp06T7777Xgo1T9j9n3zr2rWjrSpipRHh5ubOKc2rFNPNs/KoffsL5Korr5Sff/5FsrPnWljEi+vcvLny408/Wa/j9j63y9VXX2Vr+Dt36SJZ+i1Ij1orG8gk/UztGjt2rNytYZ5/fju59torbGtClpuOHPm1beXJwIp/D74hAyjkAf6Rf1wZgGWVXV5evsWHriebvfS79145/bTTpV+/+2QD7eIvWJDQMpUvJ5xwonTr1t2ut95yq0ycOEm+//4HdU85qKYNcE1rhF979TWVKDNkoEq+5E337p2lT58+tjGMLXzJqivZWoZO1jy9UvPl3LanW1p4R+PPIBN549/6r3FTLG/OOOMMueueu+Wss06TPrffLrvsupuVQQbIUJMVFhRK586d5Yor/6tlu5upv15+Gd31L6Yqo4wwZ7p3795y/PHHS4cON1qZQjVHHhEmZcjLYkDVRrkI2AsBhQYCgVQB94AK5eTkFRpDAaISUFldYgROiPiLSgN37OEJEWOYufCZSnEUVN6P/u47I0z8gcwYUIPoGAVmFJUrI6w+g4LZFxRiD5/4Er6ngwpPQ+DxJz6uxiCNVDQnJdx5I8Nv4gC8oYn8LV2WXBqG55E3RMQVNUUG+l79Tdw22mQT2Ukl+SEff6wkmrA0NtEK2axZc3vPFLa0tOqy2267yx133Gm9gUcf6y8dbuwsgz/4wLqfxPWvv8bZfNPmO+6oBEDPokS22257eeON12X77beT+g3qW0N1ZOsjLT65eUWy1dZbS55KdsDjS9oya9U0MmXnt4NVkoXMWPZ61FFHSsNGjZRMtXHR3i95xaGjc7SBYMAsRf1g8PDWW3ur6Svfjh4tszVOkDl2i/X7pmpa+PyQMXHEr5RU5hpbNDQeDMhq46Z5WKdOlhEVWxgSn6uuutrszJqVY3GrV7+eNN1iC8v7GkquO6tk3GCDhlaOGm1YX/Nby2LJApk6bbp8/fU3Ul2/J6dVM4Zw88195OtvvpFZWlaIH+ljtL615g+zNyZMmCabbNrY4oc/1bXN9kaVb0+Z+k0lYMZDatZMlYmTpmnZ3dq2Wox6evQKpui3mCcffTxUbrn1Ng37Zgvz999+s54de0tTjnfZdRfL/5o1021ePd+fmT4skeY5vTMvewFVG+UiYAoBhAJRMX0EtQFnpFHxkSCRQilQEAd24m545oRN4UUio2DxnMrJFLbXX3/dBt0YOOMoEXTCkDB+stUdMweYZ4x0wGbODNq1VIJgByb8wCBtULiR3nynfSd8GghIm+NK2KuUOGKID6ByObwBcXJmlodJ0YlF+l8AgWMA5EolhU0gb56TfvzF4GyBhqde63OVhk1fl6Ld1xO1mzpGG4zJ8v77g2WnnXZWElSJXyt+gUpQENvkKVPkcpXMLr/iSnn5lVclZ3aubNCwkaSpZzXVLpIzKugaGZlSomHM07ii78hR6ZcTmZmdUqJd8ZnZs+x4fdJspKMSbbqSV2FRsdRWwstTwqDS587JNRLEbkpaqjUE8/ILZDslc9KYn68Nm77L0e45aSzWLvJM/Vb4j5k8dYrpzG/ocINsseUW5peRK26RxjX80hJicYaoCwpVStZyxJUlzkj12G31n8OlWfMd5U6VSPMLCzTd9c0/QPpV2DQina1x5nsSd14z9xqyJB6TpkxW0l5gfk6dPk3jN9Uaj+tv6CCNm2wmWXXrWcM0W8skjUv9BhvI/NJvxn1OTrSsm3KBVExZJw8ZB6HBo/xXr15NSbye5g3qNVbDFVkDMHPmLBUKcjReefbdOnXtKjsr6Vr6ND0laof8yJ1TIFO07FavoQ2/xV+FG40DDYeVzcDBVR7lImAAyVEIWX2Cnnbw4MFGxEiTdKG4QnRM9WLQC1Bwt1Zpi3XbEC6kBoEzK4GBNcBeoXTPmG6CxEP3kEE2znUCe+yxh7z33ntG2u3atTMphkE6rgCyY/YEU57ohjNljZkWnFOFCoMCTBh0P9kwBEkSYsdAqC7pcvXGIy7J33vffTYBnK44fk+YMMHeO7hHBwx5AcLjN/GCBPAnGiypppVS7RuxVzMJicUAkOyrr70uM7QLfkTr1lqRkc4zjWDqZNWW17VBGvbJJ6Ynp3F69NEHTeKjEhcpeTLLI0Pz2RscCAECuPnmW6wngGRIA0FeYMcWhuiV7jKGrjqqCsiU9zs0a2ZdcmaV1KmjZKh+0dCiCoEcMmtFq/MgMQhj4403UeltW7nv3rtMAr799r6W95uqFNm06RZqt8Sk30wtHw0aZOnv6Kw94jE7d7Y0VFJNUSZFjQNRFxQqgWnatt12O+l7xx1ywYUXav68pnn/jhLVXG3gahhRI51CVDVVaq+uYip5XCerrpEohFqgpn79BjbrZRPtAfTo0dOmxz30YD8tR+dbz4rGEpIkfpTvCFE+IJ2TTr4FfkGIkDXfFCmeBp20pak99sRABcL820gdtVB22XkXm5Z22219TFjpoITPnHn8xl9ULBDsvPx8KzOUXy8vELOXS+IRUPVRLgL2rjSFB70VhIdhMAxyYos5l0R79uxpc3oBJAf5od81iUQLGkTA5s1MK4PwsIM+jaln6A7R+6HvpJI6qbHnKHo1TlVlZyWIFqKB1AHLESEnusFPPPGEzVEmTmzWgR80CEjYvHPiJy28g3gAcXMCpmICKgr20E8y//nkk0+WVq1a2SodyBgyp5JAhEbqSHfqB9IrbvHT8w6paf78aM4uFQ9/yRN0vkzdohu80447Kdnlm44Vgs7Li+ZKM5CGxMXzUaO+k4EvDLT3kAUkQ/e3a9duUlRYrETAoOZAzc9XVWLLtThgjziSX5mZkVrGJXWeEad69dizIVpYs//++xmZ/vEHJ9dWk6eeelp++Ha0SvgMMpF3CyS9OvtYzFe7B2jPZZx079HbfhNmz5699Fv2s3sIfkdtJNgDduzY8Ua6fIt5SuqUhYKCqDEjDpAOeYc6CYl52tRp2lifIK2PaC333Xe/5CkBo/+tWbOW5l2GzM7RhkOLNg0MzyG+ggIIvo6Wxdr6bVPkkEMOla++HGV5gp2/x0+xebv9NH6++5YGa+9QgZAHfDPKH+5pDPjGkDB7Lmy5ZVM588yzSk/r/dbC/HjoUPlwyIemAqMxQdc+YsRIubfffTJLCZ7phb2VhJnJg/8QODp8JGam9dGA8G0pZzR4GRnMzGHhUrQQJaDqo1zNqHe1IQMKCtIuxItEyb6gFFgKCu8gElc5AAovJEDlouIzsIQdQPeYOcUUSvwG2EMyg8zxl7AhM9ygCoC4IA9340TqhAahED8kZnfLe4iRgk83EvfEibjhD2HihmfEHXukhTh8+eWXUQ1VEAZqECofBrI64IAD5cwzzhRWBjK6TVjkBVekW9wQpwyNW2oqO4TVNv/xO0UrOI0F5ESjxXzaaUrqbOFXoF3U+UpoRx6J5P6OHHPMseaGkwT2/b//07wokmnTptv83iuuuFL6qKTVqtV/LE/oetOr2HOvXUyFsdFGG1teQjhz5kRLnDm6hWdZKjWST5MnzzSdO3l4001dlSyut54GREQDd8h/Djd/8vMX6DfbSO0xh7mmEfCNN3a0Bvn99wdb2jEMkDVvvqMSZDW5oUMHufqqq22KId+bNPxHG2Dynnwi38lv3G3QMMp71+vPzpknV2uDbIOz2viiiuI56axbN0vLSvSdaKAidUCq9giiwc+Ektg555wrY377zRpu4vjPPxOtV8bAGd+a9BEnSJ3yQDnhG1Ee+HYMDBYqMSPBz86dK8ypPuuss6zxZX47kuwWWzSV/TQfKCc0Qvvs+38qRFwrL744SF5//Q0kEY1vdZs7TzwhV9/Jq7AwKp/EBYGGRik3l4HTNP0etYz4NWOs/AVUXVTTShexyCqCwugkyT3eUSkoVFUdTgJUQE8boBJCBsohBsjE3+EGIAHRfaxZq46M18p93fVKNldfa91auq00AEiwzCOlAUHKwQ9IxCXQ35Qg2NWJ38SD1WsM1Oyw/Q5aWRfIpMkTbToVA1NMydt7773kq69GqR8byKabRDt7oQ76/fc/rIGD4FBNUOmnT58mU6dNUVLfWmNbTeNS3brdSGs0olR04sNAojccbD85Y8Z0+Wvcn2aXATxWF26o5LGlukENg2TYREkSyZ/wWRyDDh+dMQOqW2gceI5Ex+DW77+PtdVrdetFkr71FLSRadK4ieU5v4kHZYw8Ij2ou8g/wkAlQuNAI0HjCiBO4ku+0phDXry3gS4ld+abs5sbizcI+++/x2vjtFBaHXaYuYvSKqaHRzWGf8SFcQK+O41Tff1OzNhAbUP8iENGjVTJnT3XpqP9+edYaaE9EL4j8eS71q+PsFBkC21osNMz0k3lQX5TxmbNzNY05JlfCBbkO40hvRTuKQdI+NxThqpptwMOTiToeaTKkUccLl+N/EKGDvtIWh5Eb9OrNgXVzeJPA9YuykXAVAIKQ5yAuWcFHKO2vK/KIG1kDwUfSYS08QxSuKdfP/n888+1cqgkojnIO54zPQl1xFFHHS0HqhR8r3aR+917n3To1EW6dOkqc+kSqz2kMpP0tHLijopKWJCTVTDNS4geOwDpn4qJdERcUpQYkYyZsnblVVdKZkam3N63r/kFWdMAIOnhHwTAMwCx4rcRg7YV+IkbCJgqiTvS4uQHou8cLUVOUWmdd/xG14kulPhCTMS/tq1SE8nOyS4L20nN8y6Kn8ZH8400QjL8RurkHuKkN8C9N3a4rVtXJb+CRYcxYp/BL74PvSjyBXueb6QDUuYd+21AbgC/6Q3MmYMqJFPzMVPtR3trECY9EPKBOJMnPCcdXAmXNFjeaB7QsPCMPOJaIz2aEaMCsfZUoh4eaSPPuMcfGt00bQAKtexA4hEIJ0kjqK+IB255T3xwb6/UL/40SnofCLiqotwSMM4pmF5hqXRcvaBUZVBxSAdpdDIA/D7jzDPllVdfMfVCww0a2uwLFoygMqBL71JU5843abe2r+2G1rVrZ8mbW2x6TJtOpnY8r5CAAMTBM/IUPwgXguEKcaSnV1PpNUcJvI6SUb5KZ1ny6qvvWEU9/vjjjFiNfDVwJF3g3wK/IQqeG5nqYxYcUPHR36KnhIiRuCAv4kQ8iouLVOKKTulgIJFnSI/oZfELfwHEE4UfbbbNPf4QPs/4TdpIF36jy0QyJB6FhZGUB4gj9kgD5QlQvtx/CHmzzRop+UYLY/ALu7jDb/yBxCFX/4b4x703CrynAZs7N8/SQMPmMxkY0MM//KWRsQZI/7CHW+JipKjx9vThPwZ6o1GF5bDDohns4B/hcyWOGNyzoML8UtA4xv3ie5AWjDqzZ7h3cIfuPRBw1YUWgfLBC0VUcKOFFPHnVd1Q+KkUTr4QId35DbVbyjLpJ596ylQF7HPBoCE6SioXlS0aAFogqaXkOmdOgf2GUCE9pp2VKFkyLcwNvxeo5FpNKx9TwdBb6g+pVbtONIVpVp5NE8MuMw6mTM2RI1ofKUdrXLDP84jgldw1/swMYCoZU9gYOU9jAqumiTm46BEJi+cMADLDoppK1txnKEGjTkBaT6W7rnHmPX7iP1PQiAddcGYaEBf8pHJjl3vcEkaeSu/4he4bv7mSltraoBC37Jw5FnfiSHxQ02Bq1qpt8Y/ip5K6es5zpsfNnEVPIrJLnuGe/MT4c8Lgijvs2MwBzUueE0/cMOWNdBFH4kyYNTLSJV8bF8ImvZ4vpJW0k381NH9oECgj3mg6eRM+6S27V38gcr45pMo9c6UpR8SFb0L6iJPnG9+Pey8PxIP3fiUOAVUf5SJgJAPgkgugQEJYGG+9q6pxyYWuLRWMigZ5It0x55h5ysxNRl/HO087gISRsPiNmoB3+EGecW8SkIIwuHepCvsueRIW9gkf/zG8YxoY91Ro77bSMPAMSc6fQfaQBM9wR+VPTWGTl6iLjeE59rgSF+JA/JBOiQv3vMcApECIBV0kkjJkgvSMX0hwkUoiRaVUjvWJpDqeYR+3vOM5/no+k07UCeQD6SWfCJsr8ccOecA74lG3bg2TYIkv7/AL+/wG/HZ3gCvvSCPv3F/8YnDMpf8NShdtoKflPfFlhseCEiVEzTMEDJ4TT/wwyRW/LW+j+PIMe+i0SSfph2Dxn0E2npF/zMjAeP7HywV2/R7gL79Jh7/3bxxQtVGur0jh8UJC5Y/DK21VNxR6CCxewekCU8mUPqxy8I7f8QoDICeIglqHHbrEGCqTd8d5jjvCWVTBoi47BjsQPHnNe66FhdEKNeKBZA45ET7xg/i4hxC9kkIK2M1XidzDxC+NhoYXNTIQOHpm4oXfxNP9BMQFkuA7YwdDXOvXzzKCJTwIhvBtGpWSixGY5hH5gBTokiDhQiKoMDzd+EsYnof4T97xjnAhvkhXW6yNw3wbVCMtTsqeJo8jV39vRKnAnodD3jDDId4okAZ6LZAyaWcLTPwgf7jiDkMazB99BoizScml4fM9aMCsB2FhKX2rHezhF25JH/HCYMfD8bDIS74Nbv05BqDbJ24BVR/lbka9UFABANIMcGKpyobC7yCdnkbICWJiFRxr/HnOeyoScHtcjbyxW1qBsYe/+B9VtKjiYTfuD88hwnr1ahl5Umk5gQKipILjh0/bczKEQHBP3NyfiHy0y5yeYXFBd4tb3kVuIikZ+4TXoEFdiwd2nKywxzvsQUx+Bazwwj52CIvn6Krj5IJfPKexiNQv0ZgBfro70oA/vMcuz7l6HJj2hWTq0w6jNKdJSrVIb22DiAmVRvXKXGQk1uppKnmWvkfy5z1XnpMn+EMcatdGIo0G8cgj5ijPmxsd1eTpXpSnUXozamRaekgL34T4AOxC7DUza2lPqbapXIg/6UCFgX38wuCG36TZyxS/Pe1eNngG9FaJ1wk6EPC6gHIRMIWAygO8gGKQAig0/ruqGiqaF3R+AycU0shoudq0d15x4mAKl0lisYpHZY26z2yqHk3t8vPVNBS7j04bTlFCmCvZs+bISy+9KF+OHKHxiezUqRMdXcSybIA0CEkTFqSAbpFpVhjCxC9AuEhm2MvUSs/2hvkaBrt05Sv5sOVhUUGxfP7ZpzJw4PNa2fXbalzYG5h7dhlj569oL95q8stPP0mf23rLswOeoTBIVu1atodwCfbUEGp1zRMMfhRoGBjsstWlPlR/VNJTizXSNa56w85qBfnz9Lk61rCZVcCihD9+HyuPP/ao/DNhvMWb+dP4Q1ywRxqKbUaKNiSarzhHI8w7DGnDEG92J5uv5JeuefPyiy/Kgw88Itkzc2w/5FR9X6h5yQ5sxAE3+Eu68S/a2QwvF1h+kC/Em53rGKBki8oSlaB5xwIR21GOPFAi9/Lk5cUbI8iZcmFlRd9TxhicY3N3Dcm+H35wZRYKpuy4oYAqjXJ9RQoUBctBYcL4M/9dHhP3h8KZ/M4LsxMjhoLs9+UxTsIunQGeg7Lf/JU+WxLcHiCOLlF5RYRwOdKGyoY3VDKeUfGYqcA0t1FffWWkCnkyzYvZD7hhahV2aQSRmHxUH4LmyjtIgfxIq54qmSpFLlTS01DNX0hok40aytNPPildOnU0QuJ48w8G/0/eeuM1jUKJEs18NSVGTJg0lfhraBr+GvuHdOzQwUh4wFNPy0uDBhnpQUSQFttEQkz5Go/MDCRUZn1ot580Kclq5CwstlvUH5onzDigy04jwrxnxhcgI4hT80Zj/eADD9jWku4HszM4Vy9a8o30zHJoJGPykNkLi95BaJH0zzeNSHTSxInSp3dvaVC3nm17yTOIFsKH0DFs5g7pQur8ZuN04m0b3ZeSr5NxdZXI+cZ8S8Lge9II8p35BmzBWbt2hv120q1TZ9FvrpSPqDjRk4kaaPzIz0cnzwvKO+UewSASCgKqLip1M0qhhNwo1BAWZEYhBU6yTnC8B06WuC0v3E/IjXA9Hn5fXjhp5KvEh6oBQoEkeIahwjVstIE89PCDckTrw+13dBR8VDEhFSowFT4i4kjfyWnGG2+8gUm/TgaQEXYgcNKDIQ3MVZ0+bZpJwOwDDJkgYUI4jRrWMwmPer9BA07myDXpVANXoq1ue3c89MCDcsstN1tjwblsbBFar65K6OSP2mvcuKH6P0PdzrETIdg/t6Z2t5FsIZCNGtU1MoXkIFZOu5iTO9skZMKuRTdf7c2enWN5j3qD+DCFj9MkNmyUVSYxY5940wDgn5+iQVjsIYwdDPsMN2xY08Lt0OEGm74HOUL0XHPYoEjd1a/HaSGFFj55Ut/2Y44kYvzRfyo1Z2iDlC5169SyPCQNGzaKwsIN7nleu1ak/8/OnmMqD6RfBnNnzJhtDTJ7XzRoUNvKlo8xIPWilyfdG27IVpWs7mQKXb5dA6o+Unuww00lBQTrJOv3GEDhpGDym0IL2QB+R93uxdUBqwLCJQwPn6vfx/2PYrRkDBnykQz/4gs56OCWtjw3GhyjSiMRs7lPmvzzzwS59trrbM8KNuSmcXn88cdkyy23MrK96647bUEB+1VQOVnmzVFNHOX0zjvv2nLn7bffwSp0HSWCYcM+ldtvv9M2Jvr4o4+02z5Bdtp5J5OuolkLUVccNcST/fvbHgy//fqrjB07zo7wZv9hVrWNG/e37RTHbI8//viz7NBDiJtTrz9Svx97/HFb7Va/Xj3Zd999TQUydcpUueOOO5SsFkj/J56Wfvf2k9HqJ1O+WNlHnrJD2fPPPWfbMrKB05gxv9vmSqxc44QSvil5zYY/LKtm57D3339PiTTL9qBg8/jBH3womzbeTJo330omTZ5mZw7SU2CjHfDPxH+ke4/uSoJFdmr3Rx9/JP9p1Urma/rv7fegHeLJ5jmfDBtmq/S2376pnHTSaRbuNltvbUfqz86ZbWfncejjhx98YMvMWR0HgdIY3n//A3KzNkBDNC84A++99/4nP/70m536wnckz9HdozZ47/335QnNr80330Lq168nLMRgr5JXX3lFw0zVMnC9LYfOycmWPn1u02+xm63CIz6vv/6WPProI7L77nvYM/wGlCUaMgj5+eeeVan+HznvvLa24nARsONmEZZVbgPWDCp1M0rBA1R4KiTg6gMe/p4KDXjHvUl2pQV0dYCuouu68d/vywskosmTJ8mll1yiktEsufiiC2SnnXa0jb//9793ZdKkf1QyrqtEN8SWttaqmSaDBg2Ujh1vtFMgLr74IiObgQNf0OcvqJSVJl98MUKuvOIKk7ouuvAC2Xqbre0Mvu7dupmEilSGNIgkCrmxyxnE3kxN6yOPtK0smdPLpu5sDNOmTRvZdbfd5K6777Gdx8gLlj6fe25by4c2bc6yPXDvV7K/qetNKs2xTWW+fPXVl9Lr5l6y8SYbyQUXnC9z8ubYCQ/jx/+thFRDnnnmabn7nntsAcvhhx9hR1ENGKAEMmmSNjrRABmGlYVsdUm+09A8/8LztgfFKaeeomF8ZXk1Y8YclXJr2EZInPoBGaGiqVe3ngwdOlQbiDGmkpmm5E6RueXmm+X5559TktxDTjnlZJvzzHX48G8sPJM6tSxBpk/0f0KfNbDNo9jPuFPnTuZXvkqhdl6hpuPEE0+wA2CH6He6q+/t2niN128bLaqgp0LvgxkgxOP9we+bBMs7iJnG9/U3Xrd8ZZYKBDr+7/F2iCffC0keP/7QRo6GkGdI17bYI6DKo9J/RZeEopY+avFdx+ykbBJl6T3vkE6dnMsDD5suoocPEbi0XR4gA6NvHKxSHfq9hx96yDbg6da1kx01RHe6UcOGkpuTY4NYEOe8eUWy0YYbStebuqi0dI2ccvLJduRQsx12MAlz3txieUdJCDUDR920aXOq3HZrDzvp4v333reVXkjQBfl0+aNpWK1atZBtt9te2Le2lUm42u0uKraN1jvceKMcfcyx0qNnL9lttz1MgqtbL1MeefRR2VwlrB49e8qFF7eV62+4XO3eoET/inz6+QjJqpclhcVF0uKgA+VibVzOUpK+4qorNcUJ+evvcTJZiX3goEFyzjnnaFovlssuPd82xUF3TT6XlER6fWYS5GTn6HeI1FGQI5vu/Pe/7bWxaic3XH+dHXk0ZfJkUzPUQrWh+UReoSqYNnWKHWBJWk877VRpUL++ktsEee21V+XKK6/QeF9jcevRq6c03qyJDHppkOyx1x6yaZNNZaH+sbfxOeeerVJ6Vzn7nDbSvWd3+emnH2W89g6mTpsqL7/ysqbhbLn2mvZyztlnSVdtgHbQBhTJuKg4GkBz9RAqJVYvog5C+oVESVhNlaQZ/Nti883lsEMPkU033cTUKJAzDQmCBCUZ9QdpNDWI+kkYQYKt+qj0BExFdPKDENlQxcnVJV9+I/Vij646hXZ1qCDwj6lJhIt/hJEcdnlQr26mdf0hVU7ORSc5b26BtDiwhZJIpAMlHBoV9npAR3lk6yOk5cEHy4sqCXdSSfjaa66xLnQdlVxr106XL0eOlH333sfOMZs2dZbML07IXnvtaX7zDnucnUYXGuTNJQxO5Yjm8iL9Mi92K+0KszChQQPt/qukTNcbqXDmrHlGQP+3337StOlGKrFOlylTs+XEk04UVsRxxhoNADM4dt5lZ6ldhxVyxdptbii1TH1RYlIwfiI10rhNn5FrG+SgBmAKGJI1XXKaKRoGwIY6zM9tunlTdSMqhRZpL2BX0wWjf85TCZtiYodkqnu+VcOGG6jLhExUqfJNlR7btTtPRqlkjp6X45zYzWyuxhO98qkqUT/y4INGlkcffZRKpAWy0cYbSxMlZm2PTOJt3ryZTStjBsI0JeDCwnyVjE9Tos63DeD32ms329yIbwbRMuCJCgnyJR747YNv6PvRXTN4xxmAn3/+mZHudttsa3bns8iFMQElXZYzc+hn/lzKovoN9eq3CKj6qNQETEH27j5XdgNDJwkJU8GSSZauI3rAIUOGWCEvL/CDvYLpHgMfqSZehF9e5GTPlQ3qN5BaKokipUEmGdqVjgas6ljlhIghXiop9t55+x05+qijrIvK8eN77bmX7LbrLtYw5M0psAEm9Mq1tJvPIZ+oGhgk2kyJJF/9oCmD2MlPpOGaNaOR+zm5c5RsUYmoNAn5axpJf15eNFcVoGPGDYZ8mJcfbRjENDjXuxMP3DFHl9+zZuXaM4wP/LH1J/ZpKPEn0k1HJ1Wjw4Vb0jXO+MMOaMQHtRN+shPZzJnM142e8c35LpAU9px8Ue/gN8fY4+GJJ51kWz7iB/H1BgidNnFD6t+uWTOVlE8zt/iDIc74D0nTuPuKPXaNI34QLOoOCJf9LPgdSbr0nNKNhAuUqGkgcMdWmd6osoiFOOKGb3n+ee0sbqiP+O7VNB+Y1hbZSZPa2njOnRMNdFIWAqo+KjUBU4i98lMAIV66qgwQUZgpmFRCCjTvuWc/Xo4LojKWF/jPABW7ngEqJuF6BSov6taNutwTxo+3gaLatll4NdunlhOCq6eVbnSj8WCBANIlS6BbHdZKnnv2Obn7rrvlkkvO16410nOhDart2HxHO7139uw88wsCYWc6dIhs40geGfmon+RRYeFCI5XqSiK5ucUq1TY2qZ/0YY/weU9ezJgxUxo3biTbbbud7XhHXhAGZqRK15AhA0TobpFKIUKIi6sTI3lHPCCsX1X65xuzLSVXts0knJqZrPaLVuSxaT5u2cQdFQRH+WRlsTjFF2hEh2wimRI+/mRlRURMQ0HcOR+QfXbp+m+2+WZG8nZmndrFD42+lplRpk9HEif93kBwBTxjEQjPyBN6BDVUskXHbPrmenVtu0r2BYGc0WND0OQNccQf0kb6kaYzM2mMtAeipE5jw97RfA8aW8oBYeCGc+CYUZKrjRb5zTfBnpWLgCqP1UbAFGRAoUdSYDCFSuCgUvKbAggYRfdz2OLgNwZpd8qUKVZoMYDCTGVDkqELm3yMEECCANj1Z1Qe4kN4AP89vssCdpD68JMCzx6u+BVP19JARV0eWFLMrmps8MJxSUjaHL3P+XW4hzxRF5A+Kh+DNFR04k8+sxCje7ebbQN8Kjk7pR1//AkyevRoefbZZy1/fvj+BxvB33uvfeyAxyjtUQPiecT3Im9GjByhRBedtkDaecc9RIJ9JLvc3EI5ovUR8tNPP9lpFMSDmQS33HKL7LPPPkZMxBX3xJt8ww+IA/LHT/ScnCLy8ssv2ynXw4Z9Jtddd73ty8um53w23BAmpMrv+vUa2DcHmgQNIxrkIhzil6VEz+Dczz/9LJ98MtLKD2cAcowS9ugVsMx4t912M3v9n3zSGg3STX6zj/LJJ59kcSTfCR/Dd+AKGUJ8vCdM1CUnq1T92OOP2cb5Q4cNs9kQhEt5QY9NuPgF4dM4smcz34zZI+PHT7RzDDk9mjBIgzd8bLzPic3v6XflVJGPhnwkb775ZplQgb8B6wbK9SWdiKjURhBaGTm/jeN02CmM7hyVk/cQJ+qBQYMG2YkB7Bx29NFHCxu3Q85ekfjN+XG848rhnBCfkyYFmulauGfQ6pJLLjFpjEJM5eY9dvlN/DgzjZMKOFWZ+PTv39/8Ib7LA5UNcPgnx9UQJgd+Qhz4wZ6yvhLOfqvhHlCRlgeO4UGaRM2RkzNbbrihg53ucGCLFnYYZa4SI4dk1tMKTVx2aLaNpvdS+ebbb+VUTct/L7/c3LVv/1/b2Wv8+Kk2k+Gmrt1sqtbZZ58j111/vZJzLdu/uEmTRhoqc4mLbKYCxEI+EB4NFOFzmjJhb7LJpjJPJbV69aMjeNANQ3oQEScFczzUa6+/ruEdJZdffoVKmM2ka9eustlmG5mUyqbwuKtVm8UfCSWebJNCiQt7Infs2ElatDhI+vS53Y6r4kgriDGSPqMyhfqBgTnUJDNmzjBJlvjyPi0NUk23zeDRYbMXQ6dOnS3POOKnTZuzjQgJg13bfJ8KyKtrt24mTTP174wzz7K8YnDvyKOONl04DSL7VCDNEwa9A3YmmzJlqk0T4xPXrFVd8+A62WP3Pex06t639rZtSSFZGgrKH3ElPUbc6icbr1+v3+P5556XU089TR568CHNy9ayo6YbFQiNK3sWMzPlkssulaefGWDfkDLBeYuNmzSxdETbgJZ/IDigEkAJY7UgJycnoYUvoQUq8dVXXyW++OKLxEknnWTPtHIntCAmlAQT2qVMPPXUUwntfia0wia0ICW+++4782PAgAEJLaSJZ555JqGkmhg+fHhCK13izDPPTCiZmhuV9BJNmjRJaNcvMWrUqISSYmLvvfdOTJ06NaHSUkIrSEIrtPn3wQcfJLTbmOjdu3dCu+GJRx55JKFd0sRjjz1m75cHJYGENgTm5wMPPGDhawOT0MqbUFJOKLGYcWCfeHKNficSHTp0UjGyeqJL91sTOXnzE1Nn5Sem5RQmpmYXJLLnFie++vanxGtvD05My56bmDBlVmJGzrzE8y++nthim+aJEV//kJg1pzAxfvLMRLH698/UbPs97p9piY8+HZn45offEn9OmJrIUX/+njgj8deE6eq+IDGvKJGYMDk7Mfij4YnRP45N/Dzmn0TB/ETi97+mJmbOLjYzPbswMXFaXmL8lNmJ6bOLEpNnzkt8/cMfifySROLvyTn2DMP9zDnzzfwzbY7FfVZeSWJGbnFizLgpiY8/H5UY+e3PiQlTsVdk16nZ89RtgdrTeE2epX7naVrn2xUzTp+99f7QxNjxUxMTp85O5BUkEjNmFya2bb5Homfvu+33JA1rVu58fa9hzipMzMlPJP4YN13zcKH9nqRxn6Fx+W3sxET2nGJL99SZmoea7uFffp/49Itvze/p2flqNzcxefocszNTwyF/uP/6hzGJT0eOTnz/6ziLH3GdlsP3yU/kzCtJ/PmPhqfXf6bNtjSpM3tGun79c2LincFD7ZuM+WuiXcdNnJ7YcrudEnf0eygxTz/YNHVDOJgpM/I0Prka1/mJL776UeP4Q2Ls31Pt3Z/jp1kcMZQRDM9/HjPeviH2yJMxf06ydMwtjPJnipYlytGUWXO1XBQk9tmvhZa11MTQT4ZpTBeo0Y9phvtFJTW53AasPZRLAlb3dqW1RxdGdxMpFx0fk+k5MJMuJF00JGAMUihHyiMNderUyTYvVyI1PziehdOPkVh5z2R2JIRx48aVSayEgVR78MEH2/tbb73VniFpI4EiGbj0S1wuUWmbcJBmkJY5iZb5m8RreaB7ilR/xumn2zFLdK+RhNlEnKNsABKwA4kSCcvzZXlQ2/Lrb2Os+92//5Mq7daXr7/5VnrdfItKRbvINiods58tewL/rdKtCj8amnbnVYrcoVlz2bzpFrJp440i/WijhpKm0j/2c2bnqecpspN+hx2abS2bbNpYZmXPs9N7kRTZ6xZ/tBJKow3r2p60SInYm/DPdJV669l+v+xFm6lhsR8tdnwvXX6zExjH4G+vku9WW29je/QSP/a1ZS9b9vZFKmcrRvbYnTptur2zc9lq1jap8YILLpRff/1N/hr3tx28io6ZHgYSHpIy8IMpc3Jy7RsivZO/bG9JfEiT75lL2glviy23kl13293CIr716mfZO+LF7ylTZyhPparUvbnl4dbbbGFx97Sy6IP4c5oyz9lHmOfTZ+TZNyI84nXnXXdrb+4Sk9bpifTte4eWq3m24CZ/XqEU5BdqeYi2jiQ99IpIy95772TSfL36DSyP2OuZOJI/9A4Ik/AabbiRHHDg/pZGnnMcPt8pb26+bfAUUPVRLgKGcKgMXNF9MfjVpUsXO+od0759e1slhQ4MNQMFkEEZ7AOeo0tzHSOn+KKnhCAvvPBCWwTAKiTeQagUXrqAGEgWfxg5Z4AKvSd2qKDoGyHsMWPGyOAPPjB1BlOeMHT30Y3SGCwPVHj0oxxf7qTOoI7rCCFfSJ/nTro8XxEdHbapaAe2OFhOPf0M7c6/KYce2kouv+Iq2Xa7HeShhx/RdHOMDg0FZ4o1lLp162s46CbZmCXNiKq4WD3RMCEodjLLYyBK055Vt66R1OQp2aV6WBoGUYJgmWu01y1qhZkzo6Wu5C35RuOSr8RB/vggHGmMvl20jJlvCUg38UCnTFwYOPPpYxjCYKtKdK8c3MkqPNQTxBcVBHYoL+3OO89WqrHir8WB+5X6V2DdcRZtbLBBfb3WtHiSv9FG56iZNN/Vl0y1Q7p5RqPSsFFtU0XYdpFqf9r0bLOXr34yVW6TTRtp2ZtrpMy85ylTZtrvaPBugQ38kS6mvZEu4km66P7znnTR4HS8saONU5zf7gITLEaN+loe1u/WTBsl4saMDdLCPQelkhf4O336XGsc2Kx+o42yTD0xc1auxZVnnJZC3FF7FM9fKLNzc22Te9JEOrBnDT33AVUa5SJgyM4JhwrCSbCutz3++OON+O666y7TnVKhIT4IEzeASk2lgkAZOWZA5swzz5QvvvjCToLltFyIHHsuWWIf3SBEANCv8R5ihCy4xz8IBWmYVVpUDjZOh9DRD6Jn5v3yQAPByDf+Eb6PPhMWv5UKJU0rFOEQL8yKAwlUTMrq2LGzvPTSy9KxU2d5/Y035amnnzFy8FMn/DSHbJWyuEeK44pER2WEDKJnnEaRqRJVTZWCc026iuatVrfrohMgOPEh2tCcOPPt+D4MEKFv9caERgfwvZg6lp092+7Jeydav/qG69xDOiah6j16V+6jWQ3p+v3rGwkdcMABNlBIjwTpl8HHs9ucqoQWDZQiMbI/wpw585S8ZlgjQHwoczTYhJuWTiOSYeTFwhGkeqTIKVPnaNApSsrz1I9aRnbkXxZTwDRpzDsmz4gTpMoR/pDj5MnaOKgfxcUlJsnyDLInvlyZowyZkj7tw8tee+0tQz78yPTYd999j7z6yqty2KGHmR3ygvhil3RDxoSHX2QvV7aWnJldqJJtXYs736Vxkw3tO3tvgVM5Gjba0L5vgw0aWpqwh4ROXAOqNspFwBCST/2hAnOFgFnhxEDbBRdcoJJZji0hBZAvhdIH3fjNeyo1AybsXYB0+8orr9hgHsTpEhfhIJExT5UKCEngF7Mpxo4da0cBIV1DwLOUoCEVunmQJctI27VrZ6oNRpiZKoTd5YHKTho9joB4EC5pLSqOBukAv524wIqQMX5B6PjH4M8RRxxmjZj7jx9ImU6U+E98yAfiQ1rz8uaZlNaoUQO9FklRYbHMzSuUOrWzhD2AMYQD0ZBmyAGJFDLBP8IhPzMyoilO2dkqSeq3wX+ugPBZjktext8hIbIpV8l8vS9iC8YSFe31XYnGW5+x9y4ElFEjxbrj2GGfXYiHrRohNQbemP7VpPGmwpJiGrysrJrWGMydG20uT0+EHg3ZCykSH8InLRzBFHXdC6xBousOcaH2oIs/cXKukReNT66SOY0RZId/7B7H4CDxZSkzpM9GQuRhVp26FlfuSQtpw56nlymChE8Z2XPP3W0+dh0lddRBpIvvRt5iaITIW/ICw8Bibu4cTac2AvrNsmeppJ/JZj4Fkju7SDIzaloYc3LzLD/JO8In//iuvHMVTUDVRrkIGFApqcgQLySI9IsE++WXXxrpDRgwwMgZQARUXn5TARgtpsK5NErXD+n2m2++sQ1hIGQWVVDZcAPh4B49LFN4UDtwz14GjBKjLsAvumvE6eyzz7YZC2xag3oEPTUzJ+g2UnGWBwgLKZi4QpSAeEAA33z7jc0cyJsbnbS7KsAfGgr8Jr4sNabiYiAeJG/eUYldGifeGJc2qeyYOXPyjaDwz0nV04g/bMADibMvQZ06UZjYgdA54mjixGnmlu9JegH+kOc0CHS9PWziRhyJf2paqhJfNE0Lu1z5RkY8BflSv16WzJiea8uA2eEMxY0tMNFvhH1UBkjnM2fl2BUJdVb2HCXP+tbFphvORuZ0zVEfROfJRdMZ8YO4seCBxQwJ2FHBEl7KAekjrqzM87KDfdJJ72L27DnSeNMN7TnqDjbXz8mZa9+Y/PEyR1r4PsDfeUNE/HO1MUHCZmYJPRoaBYge4idNNK7oiGvVzrQ0ZedE5Z4GjLhYPmq6vNHmnmfMiiAc8pgN48lzEDU+q2+vk4C1h3IRsBcICiKtOWRLwWLQi2k9DJ4xYMZgGeSLWgGS9sJDgWP3LSa/AwbNfL1/hw4dTAq69957bXAOyZfKwOAbU8p4jh3IhcUXVBIqx+67726SNb9RZ/Tu3dsk6osuusj0jVx5RsVcHvADKZrwqeyRpJhhEtubb7xpcUHaR6/MYgcnLuyRJ34PeBcRGXrTqLJRySIyjea0AtyRTuzyjjThxskGuHtIgcrIlWcEyenFLKFiuSyGlVgL2M9X7xcsnK9ddg1TJfdqKdHqKvyB+L13QpjExf3HECcnXPLN40x4EDqERxja61fy0W62hpUQpiZGU94yMtLVXrR3Lws0eM5CDIgbgkXfSaOJhxy3D2Hxjk1yWMbMdD8WPbB817fXTK1OfiItpsvsnGxbsstWmupcJcVClVA1/TQM+oDVgIiu0Ubtmia1x3OWCM/L5+DREvU/3a7p7Etcoo2t5iG/SQfpsmVpashf7Gru6G8GHVHxpOlzJHEOCMVN9EdaiD9LkDNrZloPhbiTB+QT+01YPmlc+V09XfNUw+IZYfOdeEbDgiqCPZ0JH/vRKEJAVUe5j6UHVFYqKcYlKyosBqkW8kWyQvKESFA3IK1C2uh+kTTxA2mMmQdUcvzhOfcQseuOUQfwnPmVuIGseIeEiN/4i1RB2FwhFQ/LJRfCxx/sLwv4T/hIU4RJuiAe/D79jDPkvfffM4JaqJIOcUCviSR+6KGHmqqjRLusPXr0lFv73C6dOt+kDVMXq0iR1Mfm4VVbivGCEzU1yUC9ocQNwWqes8Sa68+//Cz777eP6W2Z8UFPpsONHexbkZcT/5koDz/ysBJrplx40YWy3bZNVMKMFiqQ9zQ05D9AqqeBosGA6AF2XHpFRbC02K0LIL80i/UajqWvqigXAVOhAJWCe67gpZdekoEDB9o93kOOkCskDHEC7PIcYqTy4B5plis6X+x6peIedQV+QXQQIu6peJAy9vjtJA6x4Y/7iX3eYZ93rkf1irw04B47VGYaEcKAkHH79TffyPgJ41Wa0m6j5iAVH/9x06RJE9lll13l0EMOlW++HS2DXn7FZjd0797TuqoMgEViVdXG8ggYiZUVYOzbkDcn38rFJ598Iv3u6ScbbVxX3v3fUNvu8aGHHrI8Zj+Ka669xr4RhNu0aVNbes1v8pfGlm9Ag8qMD7KeBQzY9cYWe5QTU0WVDgSuqyCdgYCrNspFwDiFAP2eigAJdencWe66+257znsnJu49OCoS4DfvqTi4xw4GwnS33DvBYpLhduLwsHDHlfdUcuKBhBSPy9LgkjiIxxe/zD1FWa8oLj2u+A/Q0SIFp6RWl7F/jZOOKv1eddU1NhhUonYYKFpSWqoSll2RGTBMt/1r2d+Ancmuufpa+f2P3+Xxxx63KXBFxZGOFvIk72jk2OOXXhOARFFR8d1oZP270aiyWTwNYdMtmqo7ZixEvR9ImnvIOIrZukszVnc0eYGAqy5WiwrCAaFQkdD9UpEgIyoRz5wkIVokXAiNe6RgKhTvfdkmUjESr5Mkz3jnlY/KyD3PkVBxSzi8cynIpWgqNe+xR5iLKuciUl0aqPBI3KgrIAl+4zfpevyJJ2TkyBFGJAu0q+vEyzxmVBBMxj/iiNYqwfWVu1Xiu6FjZ+natbsNzDCIhAS8GrN+rWB5BIzukx3e2GyGPXi7d+suBYUFstdee8mdd9xhPQimBN57372Wr/OL59t+CixyYXMiTthAZ7/tdttK9qxsm9K419572YAqJ41svnlTU/mgDvJvCrhnLMLn8K6rCARc9bFaVBDAyQxydDWAEyhSCYAUkWbiwD5SEHb9N35BmrjlOffJgMw9DN5Tgf058SJM3BMm5Al4Hifd5SUdvyF24uxp8etJJ58sb7z5Bp5Io4aNbGCQDWb22GMPm0pGmvCeOb5977pbuvfoZUfOMPrORHtUEeu6BMyewGwqz9FEM2ZMl9v73C7f//C97f2AZPvmG69L//5P2J4SZNZFF19sOuObbrrJGuB+994rdbQRffKpp2weMkft/K2SL5u807j17NVLRoz80ma3oPbxMkBPCjDXdl2mGcphIOCqjXIpIiGzZCnSf0OAkJUTIWTDbwfEBiBrntN9hFD5TUWCVJ2IeedAYgY8xy5EB5BwXdr1MPHXyRfwjjAgYu/OLssA3HPvZAmhg+1V0mVe8bPPPSffffedbRDEFDdmTRAnwmGaEWECGhbCJW34x/t1HfRk+A5IvfQkWHbOPseHtDxIibmufqc0m7EgKilz/M+4v/6UO++8Q/bfbz85/rjW8uAD98uYMb/J0I8/Eg7YZFPyI5RkOlx/vey6y862bJ0DTf8cO9a+Od+fcsA3I9yAgMqOchEwhR1AlH4PwSRLdrzjGd1/f+eVxKVoKquTFcANJIkd3gHumY0AcMfveLioHNzPOGk66fIMe8Q3klATyzQA4gSun0YapqIzpQ3SbXNWGyMW/I0DQmCfWGuQNB6kLSMjml6GXywCWNdBfiG5cs3KivTv5Kv+VOKM5iWTTyx/Zk/k2Tk58vhjj8lVV10p7dpdLP3uuUcmT5pkh4qiXuI05T21h8FUtLKGcPvtS1dGRiotwuKdN8wBAZUZ5SLgOOnE751I49Kwv4+TLJXF7YD4PfapRNhxxO+xy2/sxcOO++lhEb4/S/ZvWQYgZYO4JE0jYFPkqi+q5G4/GS7p8r6oKNJDQ+IsS10fAHFGaY8GUKPGOPo2fBd6NLynR8QccbZsZGENA5hsyNT7tttse1OfBUPj5Y0neYmJGusF9q0gX/yOl7N1FeSbG/8dB/OnQby3hUDBzBEHeedCEEDocbhw4yDP8csFG8DUUk6yZh48Ww1w5cAE5u3zjvEgrjSSvOM5BytwxfCclbLYcYN7pqdiH78x7g/TVLGPH9z//fffNk2VRVHsO8N4De4pVx5PT188H+Jp473bTU5zRWO1DsKtb1ieLo2cNR3wHXdKl2495PrrO9gafnTArPiq6lh2+jmtpNCkVgo+JzHf1ruPfPbZZ/Lxx+9qRRdbuPPwQw/KBx9+aINxzz37rLzz7ruy8UYbKzmnyuzcObYxE3uJMHebpensDXL5fy9nha5MnDRFzj7nHLnyiivlhBNPNHKBhKlMEDV7MCz966wbcB0wC0+Oan2EfDli+L90wCx/Zik6+2fQYCV/N88vFzLo4dGbhJhoyHiPocF00GCy4vXuu++2jbh478IQDQF2ueIHVwiVBVc0pJCcTycF7jdu+YZcfeyGKz1nfweIE/5CXdzjP+9JG/5TBhjoZZ8RZtTgP+8oh54Gpz0aHBeysEecSDv3a6IRX/fFhIC1BioOBZ7Cz1Lf+SXzZczvY+Sll9+2adAslKAhYmbIMcceJ7XqZNnClZ9++UV++XWMbbDOJkX/TJxkmwux1wNLfEu0ckAfSHJUKgwVCkPFpFIFFUQEVuKR/048EAuEzAwRV+NANK4SJC8hIIA77GPcPe8BvbhhQ4fKe++9VyZ5IrEinXLcE4aZUBw7xdYCkCT7tkDESKx+dBNSM2oqSByDtItfSMYcxMB7pFukWqRd/Efy5TlSMAbpGHdsScs77D799NNmhzSRDuCESnqID1fIF2LnnveknQaC92sCgYADKgwQIZIVhZvBN5ZtN960sc1y+G70j7Jp48a25zH7PHDfq9fNkq2Vse157aTN2efYPsFdbuoq//nPwcLpyI0bN5GNN95E2A+CPY1ZqrzvPvvaEVVUGCoQlYdKtyakl8oObZJK7yJ4HrF0nOXQkCh5BfhWkCt2vBEjL528sYfhnvdIiriEwNg6AGkYouVoKrYcYDomM4LYQ5vphOzzzOIs9m/BLqfMDB482I5nolfEsVrvvPOOnb/IznjsAQOhQuS8h8whWo7C4hgn7BEefnEiDlfImQFx4ohxdRSIEzHxB/wmjaSBdHuDhDTtDU1FI5TSgAoD0gSFmopO1zBLJVwq4YuDXrT9gffUbmJPJd1GjTbUSpAhBx18sPTrd6+pHZhn/UT//nL8CSfI+AnTpH6DBnKzVu6WhxxiEhynC3Ns/mXt28s+WsGBEwThefd2fQbk4uMUNIRORr4rG0AaZUAZMqPXAPmYu9J7h0uEkBfEhW4fO0iPvEF3jw4fvS6SLY3t+eefb4cgsK0sBHnZZZeZdAs5M20Qidf1wEjB+MX87T///NPixTFVNK7sxcLsIvaJYcCbHRMhdt+nBb9QNWBwgzRPox+Hky7wRgcQpjc8Xk5pFOJ2KhKBgAMqDFQCKoPr5TbcsIFtLUmlqZ1VR9hacsuttjBdLysEp02fYadsHHLI/rLZ5k1tZzHUDmwrOSs7x96xzSR2p8+YZZVmxx23NzKANCAYKhOVJ6ggFg1qkyeogwCSLfmGFDx16jSbSnnnnXfajoEAoqLLH2/AeIaJ3EUrSyF0/CLPOUMQQNi4Q9fLgQqXXnqpLaSBhD/44AOzw2IaSBi/mF6KCgHVBWWEeKIb5ttRbvAbP/mNfciS8HGPVMzSdiRkvj3k6Q0MZY34+m/KYZyQ/Tmg7NBos9ALCZuFPf/5z3/sENQ1gUDAARUGRqIp7FQmury5ufOsohkxqIDBwFBeHhW2vla+EtsYnevYPyerG/YFWWi6YwaPIoEEWYsTljO1okYnVbMNJxWZCoa/VDzIwQlnfUZK6X4j5JOD78EmSdNnzJTzLzhfPvzwQzuVhsNC/T1kfNJJJ9kgFqsSyVcMg3MAMoQYyXPs08vxLju9Ht5DxHwH7jE0uqie3n77bdPXQqYQK+6457vxHZGGIWFIFECuAL94hnRNLwp/cPvYY4+VkaWvEcAf4gexuiRrZS4JrnIgfO7Zw5xVlszA4Vi1NYFAwAGrjIgOlw5IlMpH5Zo5K5uaKw20G8lmRLYFpVWyajJjxmwjVQaGqC90M1nEwjvmgDNlj+Pqvevsg2+4gQBc+iEcyB6wCfr6jkIWuSg8T8gziGnS5ClymUqnQz4cYrMF0L+iFoCIAFIpEmu3bt3sbMeWLVva+Y5Ixr7YBUIjzyE4ygBkByBKvgPh0AhC/t4Y4hduIEie+dFlLGDC7LPPPqZOYJtX9MgAf+I9GnbPY3COLWWZFdOxY0eThCF1XyNAej0OlD/CXBIBU24AEjUn+OA3+YBumimQawJhGlo54Bm3NBIiZ9flaWjLxqIELjV/7P9lUfiysKIZuKr+V35AbnWz6ihxFkjJ/CI5svXh8vuY3+T4446WbbfeShu6eUZKnKhBA8ZJKAxgjhz5pc1ggJiOPLK17dcNYUEFSIIMeA0fPtzCgFh5h7SLDhaShDQ5fv/555+XRx55xI756t69u9lnL3CWhnMQL/adQDGoGjj38ZlnnpFDDjnE7C8PuPPeDfccjovahPCJP1LvlVdeaRI888eJP4N/nAfJ4b/oiWlYiAdpIc/4jZRNg0SDwYDeiBEjLDxUEDRKNDQICLyH0LHLlbCR5lcXAgGXA55xgYAD1hYWshF89VSpVTND9t9vX/n+26+14EX6zsyaHOdVXFZQIZRIyq1mm0ixMT3SbJwCIDUID8kR0oJ4gEuTLkWjtkDdwKwGZj507tzZ3DGghySJisDn4AL8hRQhRwbkGERzyXxFQDxRa9x888121BmDfsSbgTy2LOX0HKRq4scxV0x5g7RpPNDzumTOM+LkaSZeGCRs7Hh8gbv3K0CfTaOzuhAIuBzwjAsEHLA2wInRc/M4mKBEMmpUl8MObSk//vC9nHTicdJk003sZA8It369BkZUL774srqqJs2VoA4+6CBZUBKN/kM+kAwGMmI6GPN0eQdpQz5IjhAvXXM2nkIt8f7775sOtkePHjYVDbfco75ArUEXH5KF1HB766232kGsdPFRNRDe8oBbyNdVEOinScvll19eNgeZ5ejorCFg6Kx58+YW/1NPPdXCQSomH/w90i8NB/EAzZo1s5N0WOwDSDdx88aHe6a6MTsCVcnrbB61mhAIuBwIBBywNkHV5WilBQvmS0q1hJxw3LEyYvhnMvLLL2TvPfegdpsd9OZnnnGmvPXWO7K7SqCc4HzAAfvbYQKQJoCgXNq75ppr7JgvB9LuMcccY7v9oZtFojSy7d5dbu3d20gXFQRhMdAGMUJuzHhxMJjXqlUr6+IzzTDS/y8fED/ki98QKfHDvS9P5n3//v1tuhrADjvtMZWNMOO6XIichoCpb5wlyVFlEDSDeqgdIFyfEUEa49LvoEGDpH379pYPqF5WF8IgXEBAFYWrDyAVSMoHwiBHJEdmQaTqPVLqa6+9Idttt63cf9/9Rr5uDz8AhIi0ivSHJMgsAKRM9LlImSw5hqR4R1i45Rw/7GMABMZzCO7RRx81iRf1AAf1ovNFUkVfTFh+Ms7KwFUW+MEA4auvvmozNSK1SiQtkweQJvnC3GJXKRAe+cRzBvCee+45G+xFVw1hQ9y4RQ3h0xrxB5A+iN5n26xOBAIOCKiioIsPMSChQQzz8ufZIFte6TQsDghlNslRRx4pffrcppLbC7LvvvuY22iz+miOL344INe2bdsqYb9mpMtGSBARxtUJkBOklJOdbW4gLpcW9957byNv5ukypQt1BnbZOpTlwUzxApDc8gBZxqVf4JIz7vEXdYMf6uukyQAa75hB4w0M9kknz1mV165dO4sb8SH+PiPCZ2yQf6QJA4iD58HqRCDggIAqCidCiIErBuJwpKWmSVp1Bsy2ti436gOkReZfMy8bUoHQIDngZMPMAVabQUxItEi2Pv2M34QBmdWuU8fcYw9ixv3RRx9tOtJ3333X9L0sG77//vuN8OjuO+KkvzSQHidTiI85woB4O0EC3iG5ejqII0Dq5ZnPD/b3bO7ESeYMBDrikm1c94vBP8IkvFWR3JeFQMABAVUYLpVCaLVqqpSnBItqALJAAvbFGBAUZBKRKnOzFx2QALlAOrwHLgU6EeGGGQ9xcjcyU3f4i8SNHZ7hp0u3xI3fSJdc3T1E7mS4LBA+4RI/wkHSxa0TrxMksyM8zk66hMU7/PD5wZ4e3nlDQrwBYTicwL1RAeQv/rkEvroQCDggoIoC0oAYIAqIxLvpTqZIwL4hj88AcHJxwsEt99gHEI6TDn7y3rvxwO0DSNUItrRb7hIy4Dl2AX7H/YD4nAyXBSdH/IqrBjDA4+FqAX5D/vE444fbc3dLgqcf+D1p8XuIl3zxNK0uBAIOCFiHAfk4cbgBaWkRKUIybgCEgx2IHXc8d+LiuZMuwD3+c/I1wJ67w5844XHPcydeJ9f1HYGAAwLWUSxMRIQLGcalOfbbQAXhv4FPQwOQI934+HsnbidfsFDJF+mzXv36ZdK3qyEA/kU650WSsEukKyIBrw8IBBwQsI4CIjQ1hBKekyBEzGGo7IbGe39OF9sJl4Ev4NIzV5eSIU7v3qepffSvM6ZPL5tFgASMPYgX//CX38AJPh7u+o5AwAEB6yjiUqsTJ8+YmhZtdhQBYoQ4McAJE3eQKFdIGCDBujph4qRJNtXrqaeftrm1nEDhJA7xepi4dfd+Xd2DWVUVgYADAtZRxKVMiBHihFw5rRvDe37zDtUBhlkEffv2tQ16WMDBRu0QKSTs0jDAXYP69W1xAoaFEWyQw1Jhdk2DeJ2s3Y2TeVA/LEIg4ICAdRTV06KBrrgeFjL0RRiQKL95FydJlvl+++23tvEM2zQyb5a5vBwH5OoH3NatV8/u2R3t0EMPteW/1157rbRp08aW6yIRA+wiXXsYkHBAhEDAAQHrKDiWnmloPqiWSCyUr0aNshVpHP3EDmLs88vuXlzZYwHiZKMagBukWVbFsd0jiyyOPfZYs8/5ayxwwG+kZRZfIP1yJBBbWbL8mMUX7IwGXPoF8dkR6zuqPAH76KuD1txbe9dpAX8WH0SIw99zECBnWVEY3Z6/c3gYnPIL4v75vbf2tP4O7nFHV44CGRBQ0ahWulUU5f6338bIKSefLFdffbVce801to/uFVdcYXvs2jOVXjlCyE8xjtcf3EPGbLJz1VVX2ZaP7BNBeUefCxGz/y7bUELClG825WFDHMo7pJtcNwKqOAFDZj76ykflA8cJjxacgsMqGm99XS/lJIph0w7c0fKz1ygtOcdpgzi5AsLBDSe3vvzyyzJt+rSywuUFze1xKgNhA9wQF+LEpHJ/HhBQUUhNSTUpmLLNqrgBA56RiRMn2Y5kvW6+2fbuZSczNs3hvkOHDnbPXg6UX+oMbimzLjCw6xh7Rbzwwgu2DwPvWAnHlfqAlMzx8dhnZzRUE+7Wr9SF5Hq1vqJKEzC6LQCxUWCc/CBCJzgKEIRHYXJ7gCvvMOwPyuF+dJk4LptCxPZ6+IfBjgN/KEgDBw2Ss9u0MUkAnReFj+3xCBtQyGrWzLSCqY7KpuMQZ+JBQxAQUNGgrAHKH3vapqSmyCmnnmqEy+bmXbt2tWN9nIy5Z9czK7cKyjsbq5955pl29hr77DI4x8GVbFNJPfp7/Hg58cQTTe3AzmkcKYSAwh7BnFIBqBcuBFEP/H59R5UmYKRfznPiCGs2aUZqhQTZDo/R3LFjx9rAAL9plTEci4L+CvtcJ0yYYBtLQ76oHzgTilNi6X7hF+9xhz/4x2+MS96ET2HjqBIGLDjYj40+kKrLpvpoIWW+JGROwXaSDgioaGTUKN0XQiVOBBGIGOEA/uOKgRAplxh+I7wglHCMPDphdjXjGCH2wmXaGcBuiZI79YTy/8Ybb8jGG29spx6jD2bjco6Yh6C9Z8o9xoWYAG3gNEOqrEIGkmWEdtSoUdbS85HZvAOyYzI5hSUqbIt2iqIwIoUigfIMIkW3xT3P8Id9QmfMmFG2qQj28Ysrhj1RIfI0tV9QkG8bnsQLF37WqZNle6BOnTZdPhs+Qq6/4Ubp3PkmmV+yQAq0gKdVX/5mJAEBywLlLUWJNJFYIOnVU+XIIw6Xr0Z+IUOHfSQtD2ohCdGybzrgajJP68QlF18iz78wUB5/or+ce8456ibqMcbVZxAjggYr3CBUQL1yUJ8A5Zyj59lXFzLmnv2DOSoIP/APd97bwz7xxf3qIl+vbw5+A7aYRGiCFzgCye0l218ZPPnkk6aePPvss22Xt9WFKi0Bk5kMGHCKK92hxo0b285Hm2yyiX0EChA6K1pzdueHRClYbLfHQAESAVIuBQjJoGnTpraDPn4gCeMOe/gB6XLFLcRMIYJ8q6tbCi4f11t5GgAOJKRgE0fsUgi9QCI1BBVEQEWDsshyZEAZd7CrGKvhXA9L+aX8U04RMKgHCCGUVy/T2HV1Bs9AI/WHsszAHQsx2MISP7zcY5x8Af44+TqRr++o0gRMK8uHROpFbcDu9qgTMIzA0i3iyhlVTIfhnCoOBGSPUnRfFCQKBJtI84xNpIcMGWJ7meKWEV/cYti8Gff4w7sTTjzR4kD4PloM4dNKYpfd+l9+6SU5qMVBUqwSb7SvaVQRKOzEPSCgIkHPzHtnkKATbnFRsc0FpuwbSWsZdnKlfHpP0O0nCxGAxRccrUVZbtCgQdluZbiB0N2eky/l3e9B/H59RpUmYAoEEi2qCCRWpFOkXyRVrvxGKmYjaFp9njOggM6YAYi//vpLDj/8cDsTis2qkZCxh0HyRRLgGe7wA7/4jbSNlEsB5Ijq0047zeZKMsjBWVpMTN9hh+1tI0AbDFR7NBJFWvBd+g0EHFDRKCqOBqkhRYxLn8yIYEN2SNBVBZTJOPjtKrs4eXIPaVMP2AuC8gyB+3sncpeaHYThdngXEKFKEzAfHuP33tK78Xd8fIiQAgU+//xzm+3QunVrm4AOwVKwKKC4iU8Tw08fuKBAUTAh3zZnnWUDE0jDDEIwCuyqCcL2QmbX0rjFC6FfAwIqCjXSo/0WXCKlDFPuKOsOrxOO5HJJeXbiBl6+gZdxf89vH5xO9if+m3uM10/gvUhUIHHE5/knz/nHDwjf44F/fu/Xyo4qTcDLA4XOCxuk6oWN0VwkVhTrSLDYcQnAP7J3qfxD4hcfG7sQLVLu2W3OlubNmtt77HlBB16gAgLWV8TJnXqDgSQx3DuBco/qA/J1NzxDbQeh+2GYXOllMtvpjz/+sClxzGRi6hvLpGkIqIdeB6sC1mkC5gPzQfiYgI/IB2dwDQJFTeGFwuGDFf4MPxxIwk7IqBQAgxxIy0jH/g5gNyBgfYfXP0gRguTq99QtBB+XoOP32PE6hrpj2LBhdkAoKsN9993XFni0bNnSZhodcMABctJJJ9lJzPgZV31UdqzTBAz8gwI+Kh+ZAkHBQErlPi79+r2TKS0y9xAy7v03bovnR+6RlnEXb9EDAgIiQYZ6ERdkHNQVVzmg1qN+AQgU+64GdNUfv6nPEDPTQJlrzxWhiX0pGKPxcKqKALROEzAfmA/CR4tLufzmOR8uLvG6/goCxQ7uAXYpBE6sZW6rp5ftOOWgoFCQ4uEFBKyvoB45sQLqBfWIK3XF65/XPYQb3ABXR2C3RYsWpm5gxSobA7FvxS233GL7WDz00EO22ArVIkSOQJSsS66sWKcJ2KVZPqAbPr53UXwE143DiTdecCgoFAyXhgHr7FFB4B8f3P2FoONuAwLWd1BnqDvUizgpu2DjQg51knuuTsDUPYgVsAEQ0i77D0O+7F/BQDj6YcCsqNzc3DJir+xY51nCVQJ8TP/48Q/LMwyFw0nUB+Cwy28nVkDhoDB5QWGeJf7R5XF/Af4FBKzPiNcB7qkvDgiVOfm+PQBL/amHzE4aM2aMDba5FAvhQqz4AQGzVwXLnKmnTBmlPs6cObOsDiNNuxBV2bFOEzAfBCnYJWHv+sTBB8NgBxL1QuKk64SNO3/GbyNvJV8kYPwNCAhYMSCtQrrsx0L9om6xohUChmCRaFn05DOSWJlKHUPooQ6i6wXUVVbBUndZecp71/3Gyb8yY50m4HiLC+JdHwcfLK6wxw5wadb9wF1cwnVAwu4mjuSwAwLWNTjFuQBCmXcBh2dxwYR7f4c9iBQhhjqFyc7ONikWyXafffaxrS5dcMKu19399tvPVqui873nnnts61hmRDAwRz1m6pqrH7wOVmYyXudVEAEBARUDCBGSw0ByEKwLOFz9nudx4QeJllWmTAP97rvvTB0B4aJ6YAUqU8tYeepE6uoECJnNdbj6nt0jR440AnbhCCJGB+xhASdiv4LKQsqBgAMCAlYJRYWFRmSQHeQWJz2kVn470SX3ElnMhKTLzIXtt9/e7pnf26pVK3vPMUeu8vMZEgCiZuc1diVj/+LHH3/cwvGj9AFhQt5xwk1GIOCAgIAqDUgOIoMokXLRwcalVUecCFFFOLHGSZsBNaRY3PEee3HixV90woQHebPPCzu2+d4vrkbELZsDMWfYVR6VGYGAAwICVgkLSyVNDETqVydQ1/vGpU0kYYiW5xBwfH8Hv3e9MO5xi12IGUJ2MufK4DlhAid8iNrVEbh1k4x4o7A2EQg4ICBglYDEC0ly/Dz7anNlII2ZCX7lYIMpU6bYKTLMfOAZhkE0P7mGY/CZhsZAHDMj2KUQd7xn50L8ZREG7gmHDeO55zQa/MaNn3AD2RIW09ZoDOJEGyfiykLAVfpEDFfek+F8ALokazJjPeOWFiI527FjZ+l7x53SpVsPuf76DlJUPN+2sVxYZXM9oLKAqrusEzG8hFIO56tU2vbctvLiSy/LMwOelbPbnLXUcruiYCUa+2pz2AGDatRHVyFw9bqIBOvSrJOiqwd45gN0EDrSK+oEpGGeYQ+DHdQUSLxIuagYCAMC58pz7OEHJI17jhhjm1kHYa0qP4QTMQICAioV2EmQ+beoAlg4gWFhBRIqx9GzQxmG2Q1ItRju2cUMiZddzJByWV7MbAieY/jNbmfYYaYDfvoRQ8OHD7fFGtjDb6Re/OUZ7vgN2XPIgqsiKjOCBFwOeMYtLURyNkjAARUFkyi18K0tCRhpExJFHYCEiuSKdIokikTqg21Lg0uw7HZ25ZVXyujRo21uLycp459LyUuD65u5eniEj/qBhqFZs2alNsuPipKAAwGXA55xgYAD1gbWNgED4uAqAsA9BlLELA/unulorILjODG2mVxRIO0CwscvV3+sbgQVREBAQKWCbxfp5AsZIgDR9V8R8nX72EUSRqLGgBWVCwnbw8IvyBdCX1H3axuBgAMCAlYJDIp5jxPJE9Lz3ytCgG4XsDoOMuXZ8lQXS0I8PAgZEq4KCAQcEBCwSoD0kGIxkKcPekF+K0KiTpSuu+XeVQpxcl4a4nbjbsGKSOCVAYGAAwICVhmQn0uuACLkfkX1sBAl7l2CZiBvRWcv4M7BfZx0V4TAKwMCAQcEBKwSIDknvbg07ICMl2VcSsafZMLk3ZLcxM2SwPMVUX9UFgQCrkhomUqUlSsKhZrFfgcElAelZaoUVtZKy1fCbmIPYqi2mgkKwoNAkUKRfLmHiCHnZZm4pOvSrKsifCBvWQbEydgbhGQyr8wIBFwOLLl4L6oWmGItUFritYBpgatOgaOwRnMoKbhMRwsmmJU3kcQJ+UA6ZVJfSqoUFWt3XktmQqt3GRGXsnPpLzOrC0sivLh6YFnweEO8pMPTs6LA7srYr2wIBFweUHZKy30y/FVGzUxKicxfUCL5+fOs0qSlpUp6enR4Z0oKrXYwwaycSdWyw4IDyhFlCiKDxGjda5QeqRUVzSS6tYf6X/QyYC0jEHAFoqCg0JZpsvCCLhVSQapWHvRbJVpZFizQ7pYSczDBrKyh7BQW5EeDVyo1QsYudSKR5sd2GQuovAgEXIHIzMywypIoiQ4GReI1IkZ60XfVVRKunpYSTDCrYFIlLTXFyhLiLF13k4BLy1nN2F66/8bqVEAElAeBgCsI3vFD61YtJVXSlXhRPdB9LFFCptJQgdJSqwUTzCoZVK+UJ8rV/PnFtlE5WGDlK9BsVUDYC6I88JxLCtIfz9eKcOONHaXfPffKKaefIaeedpqSL9N0onmSC5BYgjIuYJVQTVJL59rSoC8oKZE+fXrLLz/9JB988L4cckhLOzDWUKofbtu2rbz04ksyYMCz0qbNWZWCoZ1+ONfts88+k3feeUdat25tzyoTKmovCDKgymLevHmJpk2bJpR0ExMnTkxoN6z0zdrFwtK/gqLCxG23355QEVhNaiK9Zh29pqmprqVOjd0HE8wqGitDUTlKy6il19REjcyaiU8//1xL36JySL0oKipKnHHGGYmUlJTEc88+HxXUSgDihmnZsmUiNTU18d5775W+qVzo378/LUVCCbj0yepBkIArAIlSqZb/R4/+Tp7s/6TkzM5ViYPTY1lDnynFRUUqodg3NbsBASsHLefVoh3AEHSRcOvWzZLMjBrSo0d3qZuVVWpPoUWsTAJ+6SV55plnVZJTCbgSwOknSMBVEJVVAo5kjwUuf+gfTxL6ZJHxZwEBq4JllalF5S56miwBPxsk4JVGRUnAYRCughDJ4YtLtzxzA/waELCyiJeheJlaBJWMS+8WQ+hwVSoEAq5AxCvHkkwEa1iDCWYlzZLLVNwsDn0SX6scUCkQCHiNIKow/0ZypQommJUxS8LSngdURgQCrnB4hQgVI6CiEcpaVUMg4DWCZVUI7xYGE8zKmKUhkG9VQiDgCgWVIalCLPZoSRUrmGBW1CiWUMSW8jCgEiIQcIUiVlECAtYYQrmrKggEXCHwCpBsFr8NCCg3FitP/iPZAJWIWfgTFv9UKgQCrjAsqRIEBFQ0VqTcBQKuLAgEHBAQELCWEAg4ICAgYC0hEHBAQEDAWkIg4ICAgIC1hEDAAQEBAWsJgYADAgIC1hLWCQJe0ibsiaq7z3xAwGrDwoUL7cpBndxTL7ivLPWDuktcOKKL+HFobWWqux4X4ulxXZ0IEnBAwDqOuICyJGElYO0hEHBAwHqCQL6VD4GAAwLWE1Smrn1AhEDAAQHrMCBdN/HfAZUDgYADAtZhuNoh6IErJwIBBwSsw4Bs44YZEH4fsPYRCDggYB2GE20g38qJaokqrBCaN2+ebL311pKfny8dO3aUxo0bS0lJiRU0rqmpqaU2AwLWPzC3du7cuVKrVi0pKiqSxx57TH766Sc566yzZP/99zddMHVkwYIFdo99wG+vQ5B1enq6zdHlOcAu83V9jnGc0HnnlLI8oi8uLpYNNthAcnNzpVevXjJz5ky54oorZIsttrAwiQNwPwkPP70hATwjDfPnz5eMjAwpKCiwK+ktb/0nHPyAZ0aMGCEDBw6Uk046SQYNGlRqo/yo0gRM4dp2221l6tSpZZleo0YNKSwstIzzAhIQsD4iuWpDmpAqcOKNkxz31Bl3BwlCbEujiOUR7PJAHDw+hAUhA1+M4YTvSA7P48XzeBzxi9/u96rC/SRf6tSpYw3FoYceKh999JE9Xx2o0gQM+vXrJz/88IPUrVu37APS4pP5gYAD1mdAcFRvCA2h5J133pG///5bjjrqKGnevHlZfXFiwy6kx28nY5d04yTnq9awG6cP9yfu37Lg7yHMl19+WSZMmCCnnHKKScDElzi4HY8T8EaCeCDxEkeX3rni1iXh8gC/yEN62Ah7hHv44YdbD2J1ocoTMJlCy1S/fn37TWbVrFnTChcfNiBgfQYSLERCNT/ttNPk1VdflbfeekuOOOKIMtJyUJec5OKAaCEigGDDb3qaqwP4RZiHHHKIDB8+3KTLffbZZ6XJk3hB0vgHIS8pHSsLzzsH+YPB/9WF8sdyLYIMIqOdfAHkSwvo3ZBggllfDSo5lwghKCcTfjsgFEf8HrcYAPn6PeSzNAJaUhyWZRzEzaX1OXPmGPlCpMTH7XGPPYzHM34P8MPJ192Wx3h+EQ5wf1cnqjQBe1eHj0WXg0wD3nryPphg1lfjUir1gR4h9QOSmj17dhm5YM/hUiP2ZsyYId27d5cpU6YY6bzwwgs2+ITQgx9OSnHEw07+vSSDH068hM0zB2G6PcB7J3+PZ/I9g3h//fWX/abBcPeraryhwm9P7+ruVVdpAiZjAAScmZlpmeYZFW/lAwLWV6C7BPQMgQspDv8NQbtOGPJDEn388ceNiKlXn3zyiXz66af2HjgJU/eS/VxRUH+9m08Y+IWf8a4/cUmWOgkPO/FwEcAYD3r66aeNfOGD8oKGKy75A1ScqxNVmoCBqxv845FRZNrK6pACAtY1QFy1a9e2eoFxMqtXr16pjcgO9YWpVi60IFVSnyBBJz/c85v6xTt/xr3bWVlAoB4GBr/5jXG/aRSIF1fs8DwvL0+ys7PLSBsypr6PHTvWntM48Gx1wInX4+IN2epClSdgJ1oy3TNrdQ0QBARUZXj3PLmb70QLqTDoxeAc06tOOOEEm42AHbfvUiYzi5AyAdJxu3bt5Prrrze/3X+3i78rgjiB+piNk/mzzz5rc/tvu+02adWqlc1hxm6XLl2kdevWcuKJJ8qZZ55p85rx55FHHpGhQ4fKG2+8IZdddlmZ5F9ekDa/VsSgfpUn4ICAgFXD119/Leecc47stttu8uCDD8rpp58u5557rrzyyism6UHASKMQJITmhH7RRRfJqFGj5JJLLjFicn0r5AmJOmktDzQEuENgwg8I1sOYPHmy3HXXXUawxx13nDRt2lT69u0rw4YNM2Lu3bu3ScNt27Y1dwcccIAceOCBsvvuu8vll19eZXrAgYADAtZDQJR33nmnHHbYYdKtWzfZc889jXyffPJJIy+Ily63kzBECSn36dPHyBFJebvttjO/IFxI0IkXYsT+8oBE6YTrbuJdfvS4t956q9x44402be7XX381SfzYY4+Vli1bGkHffvvtRt7NmjWzxRK77LKLbL/99qtFB7wmEAg4IGA9xffffy8777yzESdSKOR26qmnyjHHHGNqBp75wNzGG29s5Ny5c2fZddddbQsAB6Tp6geukOeKAPJ1d4B4QMSAd1tuuaXpsIkDjQAS+rfffmuNBQ3Hl19+aRIvxEscUJGgH65K4z+BgAMC1lM0bNhwsQE5wCg/qgHImKtLqEzxYtk/ku/7779vuuO46sBJGDUEz+PEujS4ygJAsIQFCftgG/7yHP+QjpF8WaxxxhlnWINw8cUXW2Mxfvx484O04IeTeFVAIOCAgPUUSJejR4+2e59e9dprr0n//v1N54uKAAJEsoTYDmrRQk4++WRpoVcG4MaMGWPkCGk6+cZVCMsDfmJwh31XeWDw09UeSOPg0UcflZycHOnQoYNJ4wy6oQ5hiTV2SAPSMP7gZ1VAIOCAgPUQkNuFF14o7777rs0wgNjee+896dmzpzRp0qTUVrTjIPpUBuLylYhxd88999jeKw888EDZbIO43pd7J+JlwUkSKRqJG+AHBAoBQ6oQe1ZWlhH0b7/9ZrulffHFFzY/+bPPPjN7qCqwA/kOHjxYvvnmGyPxqoBAwAEB6ymQZhngQuJFv9q1a1dp3769bdaDdLzhhhtaVx9C3HzzzaV2KUmyheR1111nOlhmKUDSSMqQ5IqSL3CShODZHGirrbYytQjuIdMdd9zR7iFoiPbSSy+1AbarrrpK2rRpYwtFmJZGfCFuNsohDtdcc438/vvv5ndlR5XfjCcgIGDpcEKExCCwZ555xqaZoU+FNJFCfREG9iBeJ1OXfiE33EOYPruA306M2Me4BLyigHpwwxW/uLo/cTKPz78lnqgaaBQgaQbciAPgGQbgrioMxgUJOCBgHQVkBBEByGzTTTeVHXbYQTbaaCMjOgCp0v1HpUA33p9DgpAtv/EDXW+cCHmOftanrK0s+QJ3wxUSTTaEn7z4gXgQV6Rw3mPPQTx4hsFeVUCQgAMC1mFQvX2lGYTMZjWQMBIm5Ls04uR9nNySgb/Jbp1KVoWMXR/sagl++/3yUJ5w1zaCBBwQsI4CFQLk5FIk180228zugRMX8C6/P3Py43fcHsToZOngPc/i9lYEcX8gzyUR+pL89PDi96sSfmVAkIADAtYDoDdd1kYyTmDJUrHTgz+L/3YSTCbO5N9LQ1wKTw4Hv5cmAWPX41rVEQg4ICAgYC0hqCACAgIC1hICAQcEBASsJVTb+cL3E8bDKSjB7ZGZSBOjV30e3fKs9N6el17NUZnt6Jr672egzC9FXE9UzcJfZNeu5j/6ITQk9qP0fakd/OJfYvHfdu83iiiecfeld/ZIr4uslsVp8TTFwi+N/7/9j+DPlxwmz939Iizdbum19Nliecez0p+L52PptdQtsLzlusha5L4Ui/lbln67GPx20TP9JqV3oCyecTdlP+IhLbKzuPvo12JxillYsl3XFy5K6OLhl94o/HaxfCq9XWo4iz2Pfiz2bAnulvhsse/gUB+XYBf487JrdDHE3cSVhn7rz5b0DkTPoyeLPS8dB/u33SU/A4veL3q47HCT3pf+WJI9sPh96WBbaW4kFi56uVT3pW+WZHdxe7H/Yy/81vMGRI984M8uZX6CsmdxfxYLP3bvdmWh/D+7tHkTKByDuwAAAABJRU5ErkJggg==;" parent="1" vertex="1">
          <mxGeometry x="10" y="710" width="352" height="226" as="geometry" />
        </mxCell>
        <mxCell id="Ib7L2-6Yxjfy-kbsQUxr-5" value="" style="shape=image;verticalLabelPosition=bottom;labelBackgroundColor=default;verticalAlign=top;aspect=fixed;imageAspect=0;image=data:image/png,iVBORw0KGgoAAAANSUhEUgAAATQAAAEwCAYAAAA5EI2JAAAAAXNSR0IArs4c6QAAAARnQU1BAACxjwv8YQUAAAAJcEhZcwAADsMAAA7DAcdvqGQAAD2QSURBVHhe7Z0NkB3VdefPgMvGNtoVgdiSLCyNjXHVFlSwKNsaOSl9bIhrq0wCMxZljSqWprLFbkWuMpGJK7USaDSa2a3YCoEqk1qzxQoqmTe25REYsqnKYiRRDvPEl0iWYFcw5kmWYAavcYRFDHYt6b3/e+/pd/t29/t+r/u9Pr+pnu6+r/v27e7T/z7n3u6+Q4GCBEEQBoAL7FgQBKHvEUETBGFgEEETBGFgEEETBGFgEEETBGFgyEjQlujI51fSys8fUVODQto+LVHppiEaGqoz3FRSS5ZpRs/PqKl+Q+3nAeyD4PLW0zO0YWgDzTz9lk3xODFDMyfstIbtZYxKZ21SH1E+kK3tZiRoFfrBXy7R0l/+QE0NCmn7VKHK4VGaPRMQnpAJggWaRvLUgp1XQ3maRm/cQitohPbotD1qqs84e5QqV2AfBJdzPzypLvAynfzhOZsSpfwI0Zb1dkazgsa/BRuYp/HVNqlvKNNR2pKp7WYkaBfRRdeo0TVqbBIGgJR9OlGh4TOOcZ44SnvVaPo657SvHqax4X6WAuVV7N5O1Nf70B0uunilHq+8OMHSlXe24blhGraz/U75wAY6eUW2e5ORoKnQ7CNq9BE1Ngkxygf8cMzjbInG7O9jcypY08sbd7e6Lru/NpRLyke7+PXde+QZDQ18UvZp/XjkTrtUOan+j9Kwe/ddPU7Dj3CZuSxOqHrAOvHqAojMK3hfk8vGIawZcJx8ah/n5OOm17FlMOuvpO2HifaOYLofw+XusfzXraD9+nI91rDtjqhb2+HttNKem6W5sfBc8Pmspnm27B7nBLuo4thRyjLuduPnj9ePput1rF3w+htuJzoyvlJNZxgu402BLFiYokCFXXbOZSFQIVlAW2eDRU5Ry06X7QwoT+PthjBtsTQdjG6N5rdYGrXzyG86mFZ5jJY4Rw/kl1gWy5lZlX+1PGmk7xOzGMyinGl5oRzeb8gT5eb90WO1P3rP9HGxeXrbNcu5x6i6ngb7hOMcrueXzRy3WX89u5x7LHXeDRyfQqKP82gwe8bOhxg7j9g10Mu7x1vBdsG/2XOn17W2Gzu/wF4n4bnS825Zkq+1aj4412p5dX1F17PLuTan8/a2nwGZCdpL92wJPnbHSTvHJFyc/oFyTybjn7jwoltQ48YOshEHOxPBntSYQcZJ3icXa0Ce+DAxI9HLq22XZ4Npu296GWWAC8qATXlNnhGxjhmuLzrJ5YhcFOUFNbbnIyJWtky1jFuo8uajwZdoV/C//tnOMylCl3RzwPHVtjxl0/n8KrsYtced7SJcL/U6ccXKP7cK13bOKBtQY513RKzMum7eebmpZSZoOACRi1BhLqj4Sa5iT4J/8cQuYHPRTU8pDyM1Lw8YQNIJQd4NXqxJ+xRBlzNNOI3IRH6zRj/KhmyXIewXbyeWZ8Ix8ow77TibdNdwzfbiYhlfJnmfBHN83ONl0Mc6Zm/m3EVtyKapGzOfLxaY6ZJvF85Z8QXOLhPmnWaLOt21jTR7ii9T0/Z7RGaChgMXPZgJB84ndrANsQvRnqxmDzCMIF6m+PZSie1TlDQh0STsW2x5K0zuvqbtO5fDGL+7X2nH2aa7F0FCmWIXSsy4hSjquIY3pCr6OPrnwLvxaGxa1ZbteXKX89fz1jE2Er0e4oJnMPbi2FNCmWI2p6byclPLTtB+OB/M/9BOa7w7SALJJyF+d4of8AbByfMv6FoC6xPbJ5cEwXDQZfZ+i+2vJ1ZhnrF9V2l2iBlZ7AKxJKTHjqPdfmyZlH0SwJvBo0ceVf9dUgRAH1/PbmM3lQbs3Z4nHuLXVDwPQ0K6v31rJ/FlWrjeukB2guZT40Kb1Sc+fvECc0dx10terlGQnzE05NNBzyNt/zRJZTbG5S4fu3s2tIylrI6j3pf4OuH2I+t5ZUL5VaiLdd0LUW+vxWNdWLQtxG1LH8umb2rxZYzAJdhuQ9dSdL1o3sp2VOg7rdZ17SdPN7WMBO37wdc2rwhW3DgbvGRTEi8qnHjnQJkDXv0d86hHMMahDrY+QeaCjd39Ggbrm9a9ZPFJI2mfqpiyp5WrWuYFJRp6/2JGn2CE4d2T953TahmczSd2XP0LwD2OahrLh2Xi7ZllsC1so/VjPrj88998KRim4WDP96o+WtWjssfVpOrzYo4l15dV05jqukz1HERtJ8lWoteOO2/y9e3T3T6mbZn1cmpeh9JmGb0ttQ23rFmQkaAtBvO/ry7+359XUy7mYOHA6sG56DR8ouygD769gMOTE17kmGmNuNE0QvI+saFEBy9vZ7/YoPR67v7bZVyDq+Ydzc/fZtzIrBHyMq7hh7jnwj22zryzTNaGnFfefGo6GKGRYPopX9Dc4wgSjmV4AzGz4Xlzz1eC7WjCc2WHhHPMN1k9+NeaxrUTW45we1wuZ5lEO+ot+fti7dwc0YsvEt12m02wPPkk0V/8BdEddxD92q/ZRMXPfka0ezfRH/4h0Sc+YRMtBw4QXXEF0bZtNkEQhEEmX4IGMXvhBTN98cVEN99MtGwZ0fHjRI89ZtIBBOrKK82yWIfZuJFo0yai8+eJ7rmH6I03TDqWFVEThIHnwkmFnc6Whx8mOnaM6GMfM57W/DzRO95BVKkQnThBdMEFRF/4AtE3v0n01ltEr75K9OyzRM8/T3T77URPP0106pQRs+9/n+jRR4k+/3mz3uOPE739thHAj37UblAQhIEDHlouQFEeesjOKF5+OQhWrTLpk5M20XL99SYdYxcsh3Ssh/UZ5It0DIIgDCz5q0MTBEFokYy+tiEIgtB5RNAEQRgYRNAEQRgYpA6tAU6dOkXHjx/X49OnT+vx2rVr9W8bN26kTZs2hfOCkAVioxYImpBMpVIJdu7cCcEPB2UUenDTMGC5Y8eO2TUFoTeIjUYRQUsARqLuaKEh7Nu3L9EQsBzS8TsvC0NCuiB0E7HRZETQPHDyXSNpFBgIGw0M5tChQ/YXQegsYqPpiKA5uCc76W7XCDAarI+hGWMThEYQG62NCJoFdysYCtz4doHBcL2GiJrQKcRG6yOCpmAXvhOGwsBgkF87d1JBYMRGG6Pwj22geXt4eFg3aasTbFM7A/LevHmznlYGI492CC0hNto4hX+wdmJiQo+VO6/HnQTGASNxjUYQmkVstHEKLWj33Xeffhhx3759+sHDbgCDgSHCYLA9QWgGsdHmKHTICTcedNqN93Hvft3eljBYiI02R2E9NHzXEiexG268D+6AuMNie3n5nqaQf8RGm6ewHhpXsqL+oFfgDgiDES9NaASx0eYppIeGegKctB07dtiU3oDtYbuoExGEWoiNtkYhBe0x2+HKzp079bhXcKXu/v379VgQ0hAbbY3Cemi9NhSA8AEGgzugINRCbLQ1Cido3Czda1ee4YpXLocg+IiNtk7hBI1d+W4901MP3AHB/fffr8eC4CM22jqFEzRUdmZlKEDCTqEeYqOtUzhBw0niO1BW4JPIImhCGmKjrVMoQeM6AZysLOG7rzy+IfiIjbZH4Tw0kKU7D/juK4ImpCE22hqFEjQJ84S8IzbaHoUSNHTvBbKun+Dtc3kEgREbbY9ChpyCIAwmhQs5s77zMSiHhBeCj9hoexTOQ8uLsQhCGmKjrVM4QROvSMg7YqOtUyhBy9OdL0+hhZAfxEbbo1CCtmbNGrn7CblGbLQ9ChdygqwNhrcP4xWEJMRGW6OQIWdejEVCTsFHbLQ9pA4tA7I2ViG/iI22RyEFLev309hYsn5fL0vKB4ZoaKjeMENltezS3JieH5tbMiv3EydmaOaEnW4AsdH2KJyg4QTxB/Sygj+cl5e7ce9ZospzRNPlgNDpWBAs0uxWlbx1lhb1vBrOzNLo1BYaUckrts3rtPltK/Ta/UT5EaIt6+1MA4iNtoc0CmQAtp/F9+Jzw9mjRLsD2sMXupqfP0w0euMWCiVr9TCNXWE62e1blHe24blhamUvxEZbBP1yFoljx46hH1I97hWVSsVOBcGhQ4f09jHuHAvBtMoT+WIYLSk/x2OxNGp/Hw1mz9jlpxbUL866el5Rnk7NJ4mFKbXu1tmgsaUTsNtTHluUM7PBaErZzH4gYTFQ3p0zr+D1UspUPRYYptUR8HC3qwa/XLx+JF2vY8vgrY+h0WMJBtNGe0PhPLQs6ijcziY6/r145QUMDW2gk6VFG74t0Lrxe3XdE4P6qpXj60hduOr3u4kOHaSTKn36OgR0I7THhnx6HvmpMGmaRmnstxoI8eCF0AItXL2d7m2irsil/Mhe9X86HpqtHqd5t2xg/R4TjtI6Gl5dppmhXUR3LKi1j9D895aUt1eisd1Ed5eVTB+ep6NnzWoGLK+OxQNjNrTFenvpoFM3p+v2Lp+nsTM29FX57B0ZCuvBUJ+3i8bUekQnK06d3tmKKgHKpKZ1uZG3KrcNq5sJlwfORnsJVK1oqBMVKKOxc90Fd1lsj8F23fm2sJ6A6ylob4m9GYXxJqJeiF4m5tGo+bIaO+vWB96R45W05KVZDyttXdfzseh9UuVcmLL7FR4H5W3afOL7bbcT2T/jnfLxM+tEt8XLGA9rMVgoq3GCR8llCkkodzMMjI32mEIKGrvUvXDpsS02zM668nWEAIQXup23xEJEXKBbp4PpqSYFCes5FzHy9bdVF1vGtJBMC4W3j9jOqBJSX4hQflOahGOjRSgqMNHj4IbhLq6gGdLEMrZMrXNTh8Gw0d5TSEFDfQFOWi/ugDt37gwNE3c9THeEFLFyiQmXJu6p6OWa9iaQT5I3k1AnVYsEb6dKvKxJwmPK7wqKL0KewNljV0/wNLHyJZQp4VzoMsXEsXEGwkYzoJCCBnp1B2RjgWFivG/fPvtLm6RdgCFxz0LTyAXaAPBAYnkr0tLTMGKUJoJmHyJiFxMPT6xA7NhYEeQhwXNKK0c8PUUsE5aJlLsF+t5GM6CwgsZ3wG7XFbCR8ADj5AEGi6EVg+Uwyxe0xZINuxI9OL6wnfUa8PTiIJ9aIpT2m48tT5qYJoh2LNyz5XdFtJFlDEqMSmap2DrAin9kPa9MC1MIdb3wUm8vfm6apd9tNAsKK2gAdyI+gd3CNRR/gCG5zeVNYS9SVwyi3pEvFkZoZnHh4uJTF6YWMX2BNipAhuh24tT7nTEikiQ0Bv07yqr2ddouEwvlYqJX9TgXS2p/dXoDXpQVr3A+4fiCsEx2GstzmXh7Zr+wLbWNBG+wGfraRjOg0IKGE4UT1q2TBiNMM5KOGKi9CHnwhYEFwwzmYjYhlBrsharnm7no9IVeTwAhFjU8FK/cZogvH5Y1LJ8nQop4+c0yWC96PKrpZkjYh0i5ksvvHlOTP4tldXvVZeodp/r0vY32mEILGoCR8AnsNFwH0lUjKZWCYGrKzjg88UQQ7NgRBK+9ZhMsmEc6fvdBPshPyBV9b6M9ZAj/1I4UGjxUODExoV/1UCfYphKdOn+Kji8ep8deMQ8annrjlE7DANYuW6sHPX3xWlqzbA3tvHJnmIY8kbcyElKhQ+dfJZmbI3rhBTN98cVEN99MtGwZnsjE05EmHWzbRnTllWZZrMOgd248PHn+PNE99xC98YZJx7JYR8gNaTZKv1K2eF6d7/P2fGP+l2rAGLxT2eK7jD3q6XeuIbpM2SGmFV230R4jgmaZnJzUL+Tu+p+76Pmh57WQsXA1CwvdmmNr6KqPXEW3/udb7S8d5OGHif72b4k+9SmiD3+Y6I47iG68keg97yE6eZLogguIdu0i2r2b6OMfJ/rgB4l+/GOip54yy959N9G//ivRunVEv/gF0QMPmGV/9COixx8n+vSnia6/3m5MyANso8eO7KK1lzxvhIyFq1ms0E3et4bWfugq2vkfu2CjGSCCZjl47CDdvXR3yyKWBoRt37X7aNPKTaHn1hGGhogeeqgqOq+8YoQLY2X46nZr0sHv/q4RQCyLdZj9+82yq1YZocMYYFmsI6aRK049e5DWvkPdiFoVsTQgbquUvSxT3rr13PqVwgvafS/cR/uf2Z8qZAghN65SoZkCYSV7X8ANPxGO3v/C/ZE0l64Jm8fHIWpCV3gKop8Fr92nblTq5pMmZJeqMHGZsVH2vEJh4hCUp1+7PxqSugyAsBVW0CA6E49N0PFX4i8AH9p0qC3hQZ4IWVngXDat2kSHNh7qmqiJoHWPngsaROfUhAktfdYeak94dL2bGiBwvrghX+Tfh6JWSEGD4Gz+6812rgqEDB5ZJ0nzALuxLWGAgNi8ELdRLTTwyDpJmgfYjW11mQsnUdNYICafmdSemQvE5cHfeZCuufQam9I5kOctV9+ip0+/cZrO/eqcnv7Oqe/oMTy15e9arqcFQfOKuiRPR21Ui8uHHyR6T+dtVOf5fmOj9KvTRG8bG6VzxkZ1CHthf9hooTw0eGVuiAkxQfiHMLAXYNsQU9dbQ73a5LWFuqcItYBX5oaYCPs4vOwF2DbCXNdbW7mPaFV/2GhhBG3i+IQO/xiI2LHPHLNzvcUXVhE1QQMhQfjHQMSuzMZGY8LaJ6JWiC/WQshcMUPdVVZiBrBtiBiDOjaEwkLn4J6i+qa3KAiZK2aou8pKzAC2DRFjFvebUDjnDLyg6TBPeWeMbmXcpFz4jIFH5jYKQNRc0e0/lqh0oKT+d4Emu4IDuqco/anuBj8lniUc5jHcypg18MjcRgGImiu6OWSgBQ11VW5rZpZhZhIQVvfxDQiv3xraN5w9SpUrnF6bOkizXcExS9+br37nP6+grsptzcwyzEwCwuo+vuHXr+WMgRY01+OBcORJzJjKtkpE1PrTS1Pe2e7tRMNdkLOWu4JboqMPHCGyfXvmlp865xvCkScxY66uREXNLXPeQKPAIFL5eSWgr1M4HHs5v18QQNncsqLseaP6SRzzWZ2FkvlkT/iJn3DwPpnD3xVTAz6vY5b3PmUUrmM/8YPPATnr8eB/Hqk23qeGwk8Dtf9Jn47xS3Wen1aXIA8/z/FXLlA2t6woew4ZWA/NfdYMoWavHs1oBZTNrU/zn5PLnLMl2jV+xHbJdjfR7iHa8OKwDi9HbgtIiZ3T6/meqkeELvEu307rbFdud9O9dPA5lW69pnBdPY8u5o6qaSWZ6HC4za7g6MRR2kujOtzUDQSPbLF1aiepEunaLkP8erNePZrRCiibW5/mlj1HDKSgoR7KfSwCz5rlHbR6cuiJsue3Lm0Fjd8xS9NOr+aVF1Vod7URuBD0jzmyV4sR95C+Qq1yBD2kh+uasHD0CqLSTUdpixLDPUrkQuE6W1HyY0SpWZYqJ5XIjtGWszO0S0lpcJuSUN13Zk5APZT7WEQeGgHqgfc8OfRE2XNYlzaQgubWQ7lCkWdQRrw/yuSqLk15S7cqz2nvyIzpwFjN7wm9pTIdvV15UdwRsMbUqR2ZWgjFrIrb6lihyuFRWvei8szucDw7i67Uhyg1LWi2/ozmaZfyzFggdYfGLeXXBdx6KDwe4dZR5RWU0fUic1iXNpCChpfCGVck8s6OK3fYKaLHFp0PNOaAkdsWaXbrXtpwk/doRpIXdeJe2q6EanYiKlHaa3JbHXVYeIROXvEHNJ4gMomeX0NAKNXo8Dq6FZ6ZZokqCHdbyq8L4KVwJs+hps+lVRulN/JloxpdkzZAuI0Ba0vd79Ow06DMuW0csBX1buW8bizw+iSIf+cf2Ap/p9MR09CQVknvVeo3g20AiDQi2LK3lF8DNPW9f7cx4P90wEZ/fIvJ66VtZn7poJn/p41mvtOgzFz+nDUODJyH5oZqrsfTL7geJT5BlDXlAzbMBDb0PPJixSYkeVHJnlD5wAbljcXrz1Ifq2i3/oym6Va3EUHXn0239Dxbo2zevJmO4/Pn9XBDNdfj6Rdcj9KtB8wBAydop8+ftlP9CX9MEnBfBtkBcdpLB8NXh0x9WVWUqvNoSTRP86+g4avV6PajoRCWDwzR0Sv4qf0KzRzALyYsjNa9Vak+FFumGT/MrUmyUJr6M1XuuRkqdaGVE9/kx7f+IWrDw8O1hQ1ftOhn+GOSgPsyyAkDJ2j4cizj15+NPDhCQ/cM6eGr//DVcB7T4PLZy/X81u9uDZd78idP6t/cdTH43LJwS+T3b/zoG/YXdR3Z/LAMbwMD0n3wVVzG3ZdsUJ7YjYt0N+2y70UqL2tqIfb4xJHxlbolkRsARiYgXntpg32X8uh1Ae0Zhod0hLZffpS2oF7LeawiHeShlv/WeBP1XklCab3Gw9vpICXX13UCFrVTp07VFja3dfD1B4meUfb06p/ZBAWmkVYZtwmKM39k0nj4Z1QSNskL6npw83C3yWlv/oOZ5zJgYDjttb+yCYqctXQOZKNAEhCPEz+pvhD45Se+TGf/JflW/e2Xvq3Hq9+7mj7xvk9oEXLXBRAkBnnf9Y932TnDtke3RUQNYBl3m9gOi2k+GaFxJV76vchSiYKpKfP4Q8gI7XniCQp27KD5T7/TpinwDNlrr+n0QP2uhW79Hgr4ObUDB9TF+iE1PR8VF/RIhd8Uepu8/JPqpoLeiH72M/1bCOaRjt9DVJnUenseUfmEPVytoPFv2WfZ6Fi4jW6AXpPQexKoK2zgvRvM+BfPmDF4/WEzXn6jGUPYfnKnmWZeuqk5UfvHD8e9qbO3VkXz12wvXz//rhm75eHtcNpFV5pxDhm4zwe5QhPcbHYNXtYnH/yknp7793P0uQ9/TosNRAd85ZNfoT/+jT/WwgXB+eyHPkuHf9ucRF5u/fvWU/kGE0TB04I4ffGqL9KdG+4Mt8nb89eB4EG8IJBntp/Ry8Djg0hyHgyePxueU6GRuhle9I6LdB6Z85OfmJ6hwIUXku5MBeNz58zAvP/9RO9+t7rLv6nu5q/aRMXy5WZ4+23SnbhgDNBD1fveZ6Z7vQ3lTXULCBkGH/bgNi1z3t28VtkMe0GYBvXmITAQNIR+VyqhhPcGwYMoDZeMJwWx4t95Hvh5gH/390bIsAznAQH85Uvm9/fdosKXP6+m4VWo52y1Ax7lwHxOKISH9tJ5c2IgKBAzgHGaWIwNj9kpFRm9ajwziA+HiuyNvfyLlyNeGP/OQul7gG6+n3yfEVjk4eI+M/fW/3vLTmWI8rTo9deNMFx6qbrLnzdpGCA0KqSk1crNekuVFR4T0jHGPNLxO5bjdbA+8kF+yJfTe72NLgLhagr2jiAyHAa6aQyEDQML0a/MzbEu7FlBmJhLtlbrwiBm7/+Smf6XJ0zYCeHiMrz+kCkH0rCO+8xc3h6uhYc2SCQ99jD34pyeX/1Xq/U8s/6B9Tr9K3//FT2P3zGP5ZkvPv7FMD9/wPqcd9oAPvvIZ/U08mI4X/zmkrvHTmAiDz1kZxQvvxwEq1aZ9MlJm2i5/nqTjrELlkM61sP6DPJFeiPbCN/FrDMsu6yxbXQRFXZGyqQELtobuf/Yw8++Zabx2AUGTCMN8G9pA6j32AbnieVc8DvSsbw7z8sjPSmt04+ddJBCeGgfWvYhPYbHxB4Vxn69WBIfeO8H9BjeHEJKd0A4yXkD/3cMfQ+kwO1wGKHgy8qrRLrb9ydAn59Id/v+BFgO6ViP+/4EyNdITf1thHVwdYaf/9/GttElUFeGnsgBPDUlZFSpVGgTeqhPA94SgHf0M1vvx2lufRXCRX9ohPdca8ZuPRw8Lq5T+ze/bcb/1h4fLgPSk9JyzMAJmhuy8fuQqNhHvRhAOMhhIULQeqBuDcu5IScPqNB38/Z/T2rFrIf7Dmc/vLIlVIGYoRGgrpCh0xGG+8xEeMd1VhzqgXf/RnWeQ04e3FbQWiCcfJe98fK6HLYiDMU2gCtWWB7pbhrCTaRxmYG7Lzlg8AQt5bEHVPK7dWZoHGBBu/ziy/U4DVTk++LHDQkAebOoMW7DQjO4ZXb3Rcg3aATYv39/Yx5ZUh0Ut2gCdxqgkt4VOYB5pDfKVT+q1pkxqw+ayn4GYsXLvNfU8eo0FsN3f8yM3XqzvL2Dqtz0geLQPx0K66B2HttpU1W8YdPceixOc+vMsmbf0/vCcmFaGEB+eqhaB1WxNvqLv6+m5Z2XlV1yWTGdIwbusQ18esf97DZ/EZYfk/CB58WPUuQBhKqM/zVbYUDA60LuZ7fx2MPL/8XUUzXreWUBQlbG/5ptxgxcyImPJSbVo6ECP6nOLE9i5tefiZgNKHgX0hUBPNMFMUNol3cx88PNnIWcA9nK6b7y5H5KCOKV51bIfn+xXmgC9wVvfAkWLZao58o7OX+xPtch56lXfkXDv/scrV1lXqtZu/Jd4fSale/U88D/PS3szDPhGwIWdOiS58+GC22SFHbmrYLdB94ZvyEA0KFLzr7llvs6tM3/6QU6/sx5O1efnddfSof2rdXiwCEcvtefh744a+H2pg7xhQgLAw7EgUM4eGl5/wy325s6xDdHrzwxuQ8599280k7VZ9O1y7SYAfQjwF4ZQjm3fipvQMhYzEAeu9sTuoDb5yU68HXrp/IGhMz99tlH82mjuRc0iBSGemCZY1+vPlWNcM2th4IHlFdRc3t56pc+EIQOgHDNrYf6J+UB5VXU3F6ectwHQu4FDfVo9UC9mStmDEJNFgeIGYQjb6LmCi3KOnntpJ4WCsJlKtRkcYCY5bFncoSaXCaUdVV+bTSXggYRm7znFd0ggKFWHRrEjMNMHwiE66UhrMtTb0puvRnoh+72hA4DgXC9NIR1eepNya03Azmv57twUmGnMwdCdufcq3TjrT+ix555g86dN9+0gmgtX3ZhOO/ywMEP1wxJuaWQe1HicdYtiBPHJ+jBUw/aOSVmmw7RDWtvsHNCoeCWQu5FicdZtyDCWzxXtVEtZsvzbaO5aOWEN3b/X78WCy8hZDs+cylN3rxKe2lo8XRBmNlI/RqYfGaS9j+z384ZQXMbDnqJ75n1Qyus0ANeUb7FYtVGtaC5DQe9xPfM+qEVVpGZoEG87vvrn9L+exZtioFFbOdnLtPTLu4jHAgz8YhGM8ArckNOiBlaFHslahCx/Sf3R8QMwiqtmkIIvCK0eDIQM7Qo9krUIGIQVVfMIKx45qwP6Lmg3ffwa9ob8+vFXG8sDaw7sf+UfpSj1nK18D01AO8Ibxd0U9ggpBBUF7RoSiOAEMP31AC8IwhLN4UNQuq2ZgK0aOa4EcCnJ4KW5o0BiFOSN5YE8oGgJbVoNgPEBaLmtnhCzCAwnRa2pG0BeRNAqIkSl1NP30ZrL3M+4w4xW6UEptPCBiF7RQmo37qawzcB6tFVQYMA7f8fr2jPyqURb6zbQGCSnk2DmKFl1H3ko1k4rNVC9jWV/2fUjI2OkSfq7kTMhFrwxyIPHbiMdv6Hn9pUC8QMLaPuIx/NwmFtkpAhT/YI+4yOC1o9b6zRB2V7RZoHxUB4IHD8sUUWOYyxjh7sRxnRMTB6O4/khT4v0JahnMqv/vev0q2bbe87gpACPhaJru/w5Vt8LDLVg2IgPBA4Fjf+iizmsQ6+MMvr4rPbqB9LywtChgaAPqUrgoZnx5g8eGONUE/YWgYf+1gwk4D7bWy6ZyChMMAzg4eGr99GvnxbT9jaoc+FjOlKyInWSAjZxnXLmm6JzBpuiWTvq1UQsm5ctVGL2cSEV9GqEGETksBjofiUN2wj9RFRbol0Pa9WgIDhk9sDIGRMV+vQ+h2IG0LI0+dPh2ElixzGCDv1YMNRCJjfqMB1IWnAcCFuImwCh5rwyuCdNQTETYeQp6vixp2YYB5hJ0JQDkchYN1uLc0QEbQuw0bqgt6zIWDcuzbGOXphQ8gIthNdbya0hAhaD4ChQrRYxGqGE0IhSa03E5piID/BnVdw54WYoY5EBE1g0DExxAxVDyJm7SEeWg9AowAMlkMJ9tgwL3VnxQZ2AHuAHUio2T7iofWAjRs30o4d1U/EIKyAAUPoYNBCceEWcNSrCu0jgtYj3FACYgaBg9eGcEMoJqh2gA2gGkJCzc4gIWcP4AYBH64IltCzeOC84/w39YiGUBcRtAyB0PEzahyGCoOP1Jt1Dwk5M4RDTxi4hJ7FQerNukeuPsFdRLjuBI9yAKlLGWxw47rrrrvCN0SEziIhZ06QRzkGHwk1u4+EnDmB69BQpwbDFwYPCTW7jwhaTpD6tMFGHtHoDRJy5gx5lGPwkEc0eocIWs6AhyaPcgwOUm/WWyTkzBkwfIQlEnoOBlJv1lvksY0ccs011+ixPMrR3+DSuv/+++URjR4iIWeOkUc5+hcJNbNBQs4cI49y9C8cakojQG8RQcsxEDN5lKP/cB/REM+6t0jI2Qfgbg9Bw91e6tPyjTyikS0iaH0C6mOAPMqRX6TeLHsk5OwTuNlfQs/8Io9oZI8IWp+AEAb1adLBSj5x682kWiA7JOTsM+RRjvwhoWZ+EA+tz5BHOfKH+6qakC0iaH0GxEwe5cgPCDVxLlBvJh5z9kjI2afgQkJ9mjzKkR3yiEb+EA8tRplmhoZoCMNNJVqyqT5Lc2NmGTXMnLCJneJsicbqlAGCBo8ALWsSevYeHHOIGc6BiFl+EEGLMUJ7lNO6MEU0euMWWmFTfVZsm6fgzCyN0jRtWW8TO8XqcZoPFml2a+0y8OMB8NRE1HpLVx/RUDe0mbnobYxvoGNeel+QsD/dQgQtCXUCDt5OtG44TUoM5UPb6cjWYTKPvHaYs0dp/nDtMvCjHKhLk/q03tHtRzSWvleh4d+Knnd9A1U32vlttW0yjyTtT9dAHZrgUZ4OiKaDBTubzGKgPKhgtLRo5zvLYmm0gTIYVNiDetCgUqnYFKFb4BjjWCshsykd5sxsoLz+hs57X9Dj/ekrQTMXOdnBHiR9wExaVVwWgmmbNl22SQ4qnKzmYdd3hUn/vnU2WHTypinvlNjfkvI3gsjbGA1mz9j0JtBlCLdZe39wkUHUMIiodZfuHefqOQ4HnP9EG6wuy3bL10bVjs0NN9X+6tpotDyxG7ddP5pu1jE2mrI/XaZPBM0eHIiMM++fPH0gtQFA7JI8KHuSnXxmt8IQ3BNq10M6L2dPXkRMEr04NiJOt/NNn0hn/2ruTxUV/ugyYix0Bz7Gx44dsymdJu0cm/Tozayahpsf1glvxPo32LR/nQCzXi0bZXEMt2dFNcwHtj81G1vPLJdwLaXYbDfoA0GLH3C+4KMH3J7AVNEzJ74qZsA/uQp78pK2F8vLE6q0/Js+oQ3uj4+IWveAiOHY7ty506Z0A3OOo8KliAmFQqcpu1XiYpavXicLU3ZZa8tufnVtNOnm7eQNFspqbPOO2CPWjeSdsj9dJP+Cpg9w9GT6J0XfUbaqE6uGUGL89RLy8U+URi/n5KPxxSRBqBKMp5l6MBez3qjyEmvsTwpSn9Z5uN4Mx7arJNoe27crFAosq7ywUbZdFpip6WDW2iDbUWgzdW3UXg/+tlKvk4Trsu611F1yLmjeAbYnxD/g+kA2cqLcg62Jez2xkwJ8Q9DzCScz3J7Jt9WTWX9/0uH6NFRai6h1BhxLnI/uhZqGROFKsd2ovSm0eKg0Z329jD9fy0YTBE9j02PXSaSs8WspeX+6S84FjQ+6HRIPjl0mcsI9I0g5UUYkXGEy60U8L0XsxMTuPHZ7YVnrC086dn8i+5omyMlI6Nk5encsk22P7SFqu3F7iNuyLzD1bTSehyHtOnG3b8Sy/rXUbfItaAl3BoM6WCV7MBPFyjOCBPeY14vfoZKXc/PXJ0+fTLUdHiOvBMFZKDV5h2pkfxpAQs/24VCza49oREg5xzVst7qsFRj3JhhbpgEbrXWduOt5eUPwplWoGxXJ5m22E/RHyFnjQJm7h3e34RNTng2mIYb2BITCiHl18metMC2Wps1J9D0vfz1N9c6zqAyBl+3UHaqh/WkADj0xiKg1j3v8ekIoJrCb6vnX9gChUrYYnnvfTtUUrgnX1kI7ctara6Mxe7ciGIkWFO721bS5Fmw51by+NlP2p9vkv1GAD2o4RA9O1VuqYk5m9ESYk2kHnW5OJuZdQ4gsFzn5TLU87npsHLXXrU+j+9MIEnq2Tq/qzUK0AMTtJrRH35ZdGwnFw84rktZryEatqPEyiR5WWFY12HKE2+NypexPt+kDQVOUSkEwNWVnHJ54Igh27AiC116zCRbMIx2/+yAf5OfTb9toEBG15jl06JA+Zt19RCOFQbf1LpP/zwfNzRG98IKZvvhioptvJlq2DN9uIXrsMZMOtm0juvJKsyzWYTZuxEuPROfPE91zD9Ebb5h0LIt1QL9tA+s1gXzltnFwnDL7+my/2WGz2+gBF07iTdu88vDD+Awo0cc+RvSJTxDNzxO94x2kLI3oxAmiCy4g+sIXiL75TaK33iJ69VWiZ58lev55ottvJ3r6aVioOfjf/z7Ro48Sff7zZr3HHyd6+21z4PttG1ddZQ9QY9xwww30ne98R9nrY8oWN9Hy5cvtL4LPjTfeqEXtgQce6K34F8HWP/pRu7NdRPtpeQXFe+ghO6N4+eUgWLXKpE9O2kTL9debdIxdsBzSsR7WZ5Av0nu0DRzqugPqHxrZRgtI6FmfTI8Rzu2A2HrqNnrAEP6pkygUAHyQEJ+9kdAzjnx9djDoiaB9/OMft1NCp3nqqafsVH34K6sAF62ImqGdejOx7e7SjH0DFfwKRQEXrHSwEmdCOggeHOChCcVC6tOq8CMaciwGA6lDKyjyKEd7oaaQTyTkLChch4Y6NVzYRURCzcFDBK2HlA/Yrum60fVdkxS9Pq3bHZ3kkxx00dhtdOA5qLgv9HaUxWB2qrn3KkP0O269e1m3HvzOogq5bMrgg/czsc/Y9yKC9y6j7yEnoN/pzI+dNspAe2hd6z7r7FGqXJHeX2Ytyo/sJepW13ctgHCrSKEn9hH7in0u5PNmeeiisYsMrqCpE7drnGh4tZ3vGEtU2r1dZdySnNFRZUy1Og/uNbiwEXYVJfQsfL3Z2Qodqds59hJVnsuXnTaM9dT6EOezQnhlSLnI5lvq/ueG7O8O4adO7Peiqt+A8vIE9jMo+L26Hg9NuuR6W9XPqbT6WaBuUIRHOfK8j6EtuHZlbRNp1RCxaqNJn/ZJt22D/h325uTtXx+83bqfDmr200At7E+z9K2ghScGM/oguwfXfPfJPZEG+z2oUEDSu7ELP1I3Na0OuCdCLQqQMVpjrCi/Ll+O6tSUt6YNaxDr07BP2DfsY76wF7Rjk5iv2q5jj1oQYCtJ9t24bWfbRaNZr/7+tMZghJzr99DC1DonvKxQ5XC8nqB8YCVtp1la/Na4daVRQ3BEDc66Z4/S/OFR9UuJxh7ZQsFte2hPME/j9vfKi2r5q4dbcsX1ulNbaHhujI5eZ7r1X6qctL9mzyA/ysGhZr7qzZaodNMG2ju1QEFok4bQdtkeV5dpZjfR3cEeGrH27dK4bavUq2+tbm/9FhWAEp2sVNs8dT2vstMROw/C/PX2q4xe0WQtW4P70zJW2PoP674mqnrSHUan+S5ywl0Gy6FLvMRWTHP3bM01tndedD3m3X2bv8t1j0EMPXO7Twk2GYk8FCYiGLAuGuvtTxv092Mb+kDEBSYeFqYJh38yrUGlHVx9Yls88NYoouWKbz8P4EutOK54vKHfye8jGtYm2R4S7YPtsZaYNGnb/nK+WCXYuCkDb8/k24qYgfr70x59/xxa9GCDxu4wwBxI9+SlGYchLpSNY7bllaGDd6ZOg7omDP1cn5bfejPAwmCHRLuyy0Ts0bPRJm3bv3nGbDrmxdnthWVtR3ga2J826b86tLMlmpmrxvsjE7M0SiepctYmJNWf6aZqxO12HujHOpLrGKavc2sJqrRdf7Z1lv7AaS7X9Wdbx2iLW66cwI819MOjHGn1fbl+REPZJGpPlcDAqXDq0JaoNFfWU7xM1B6NfYdpTdn2KI25z2Xa5aZ3V+vvqvVnZZo5gHLY+i3U82kHqFqHVp5Lf9sgkUb2p120rPUT3h3E3Imcu0bo9UD5bbq9i4V3J8yru1LdbuwiVF14bNO/I9amum6V6p1pYaqdu1736Jf6NISVvieZ/7Kz5+Oee2MnbFsx2wZs3wXuorEWfSdo5kBb11UP7oFW6AMUT+fYXQ/axWaDqp4YvUyi6w+q22z2RBrj8crp5NecOPYWhGsoY55DT4iWK1z5DjVdXDvGEL3YtT16oZgRBZXu2Gkjtg0iy8XsEaTZeDW/9HXr0+j+tEP/eWgu0uVX14E45L0+DY0YbqV/P4hwyKDbcCvbaIN89/pUC+4qS4kyPfMM0dVXE73rXaY7ru9+l+iSS4iefJJo1SqiSy81y957r0l/8UWTx9q1pgebr32N6Je/JHrtNaLFRZMX6PU2cvjVB/QQde7cOd1rFKbz+GWKu+66S385Qwkb3XnnnbqsqDfLY1kjDKINt7sNrNcG/Slog9rl1wc+YHcwX7Aw7N+/X08rD0jP54UJW/n/+uuva3FDGSFsuUa6aEzeRpNdNMawnlp/gWLnoMuvMP6vM4xesqKxbeScPIaeXF/GA8qHRgLloYUD6tdyF3765z4jGw5pYxvu8U8dUHfWyDbaZAj/1AYFoS4I6+ANwQNSIpELT427n0sD5ezXWhWheZQ/KAiNASHDV27xbFpLz6chtMB6CBExQIiGh4mGhsyAaaRhwO8QIqxTAwhaEqhPU16ZiFnBEA9NaJqmOliBgD32mKkgriNOqWAbGJS3FU5bIFio22MgZHnxHoXeI4ImNA1/9RXg6xWJ4gEhg9C0KmJpsLChoUJNoxzcwgnvkRswhGIiIafQNBAw7mAlFvJByBA6ImRMEjMlPIRXkTCgdQytYaZK2EwjDQN+t6IVAXlyuIptvfWWFtW+eExD6DrioQktA0ELvTMWmqQ6rTRxahTkieH+++MiiXyRf6t5CwOFCJrQPhAbG4JGgNDAI+skaaFsN7Yl9B0ScgrtgVZEX8wgLrhPdkNgkCdCU24gYBpsFRUGG/HQhNaBkLkhJgSGw8tegG37dXUQOnlUo7CIoAmtASFB+MdAxFCZnwW+sIqoFRYJOYXmgZC5YoYwMCsxA9g2RIxBHZsIWiERD01oDr8BIEvPzMf3GqWhoHCIoAmNg7oqPGPG5EnMGJTPrVNDA4I80lEYJOQUGsf1fiASeRMz4AuYW2Zh4BEPTWgM3zuDmPWqNbNZ/LBYvLTCIB6a0Bion2IgZHkVM4CyuXVnbtmFgUY8NKE+vnfWDx4PygwvjevTxEsrBOKhCfVx66H8J/TzCsroepFSl1YIRNCE+uClcCbPoabPjh12QoFvsgkDjwiaUBuEbBy2+V5PL/ngB0l/1RadcDQKysreJBoKeD+EgUUETaiNG6q5Hk+/4Aqw+3qUMJCIoAm1OX3aTvQpGzfaCYWEnQOPCJpQGzdMaybcPHnShIgYPvc5M0bYyPBvGH7zN22iA4eYGG691Sa2gNuAISHnwCOCJnQfdDILNmyoCp0LOq11RQ3TZ87YGcWf/Vl0XhBSEEETauPWO7XaIPDnf24++PiNbxCVSibtS1+q9iXwqU8ZUUOFPwZMg2eeMb9/+9tmvhXEQysUImhC97nlFjuhOHHCjOF1cUjJAgYvjD0xiNy6dWZ6bIzo8svNdLOIoBUKETShNr0UhLNn7UQHccvs7oswkIigCb1l9WozdkNOHg4erHpi8NpQ3wbuvFPq0ISGEEETatNpD+3LXzZjN+TkAQKG8BLhJrj2WpP+R39k5ltBPLRCIYIm1KbTgoZ6MVT2+yCN68z+7u+idWbw5lqtQxNBKxQiaEJtWn0wFeLEoaSP+xsPLGbMj39c/Q2hKM/Dg2sGV9DWrLETwqAinw8SatPvH0tEyMrIJ4QGHvHQhNq4L3iDToSdvcIPN0XMBh4RNKE+7gO17qeE8k6/v1gvNI2EnEJ9+jHshHfWL30gCB1DPDShPn7YiY58847bjwDKLmJWCETQhMZAp70sagjl8lyXBo/SfQc1j93tCV1BBE1oDHg4bj2U2wFJ3nC9s37pA0HoCFKHJjQOBMwVMoic67nlAZSPvTOUC/V9QmEQD01oHAiE66VBOPLUm5IrZgBiKxQKETShOSYnTRjHoIEAaVmDMNMXM2kIKBwScgqtARFzWzuzDD99zwy9pot3VkhE0ITWgVfkhpwQM7Qo9krUIGIQVVfMIKzSqllYJOQUWgdekBt+8sOsvXisA9vwPTOURcSs0IiHJrQPxAWekiti8NIgMPCYOumxJW0LyJsAgkIETegMEBj3kQ4GYoaWUdRrtSpsHNYmCRnylAYAwSKCJnSWNA+KgfBA4Fjc3DHW4QHg+2sIKe08/kckEUIGoRQEiwia0BWO/8mf0PGvf50mz52zKe0BMcOr5pCvQyJkQgrSKCB0lOPKoxoeHqbNf/qndPqGG6p1W62Gm5a1SsD2/d7vEYLPyTTvTyg84qEJHeGUEpmJiQktaAw8qZ2uJ4XfMJw+XQ0r3TFEjweAz387YsjbwBh5b5J6M8FDBE1oiyQhYyqVitKi9jwzH2wPHiDyPaa8v07nL/Q3EnIKLQFh2bx5sxaXJDED3RAbFjJsfz8aHwTBQTw0oWkgJixirmhB4Fy6aVrYFsoBL1AQGPHQhKaBiKFuDAPqsTCwwHG9VqTurAvs27dPCxrCXUFgRNCEjoDwD2IGoekFvpAKAhBBE9rmPvskP8SMQ9CNbgfFXYK9NN6+IEgdmtA2aBgAXJ+F+i08VtGNRgEfqUsTXMRDE9oGgsJ1ZwDeWS/EDGBb2D4GQRBBE9qCwz03xOx2g4ALC6kImgBE0IS2eAwvkCtcEeuVdwZ4W/JMmgBE0IS2QCtjLz0yHwgavDTx0AQggia0BYRkzZo1di4buB5NHuEQRNCEluH6s16GmEm4DRJCsRFBE9omL4IiYacggia0TF4EhD1EETRBBE1omdP4rpki65BTEBgRNKHvYUFlgRWKiwia0DII8fLinaEcEnIKImhCW0i4KeQJETShLcQrEvKECJrQMnnyzvIU/grZIYImtIV4aEKeEEETWoZfecqLqGX9CpaQPSJoQttkLWi8fQk5BRE0oWXy8sqT30GLUFxE0ISWYY8o669c8DfZxEMTpE8BoS24L050/psVbk/qQrERD01oCwhJHurQxDsTgAia0BZZf1wxqU8DobiIoAltwRXxWX3Tn+vPpEFAAFKHJrRNln1jDg0N6T4N0A+oIIiHJrRNVj2Y8/Z27Nihx4IgHprQNhAzbmnspZcGzxB1d2LCAiMemtA2EDKEfL300rAdiBm8Q0FgxEMTOgLEjJ9J64WXBo8QZFFvJ+QX8dCEjgAvjevSJicnbWp3QP7YjjQECD7ioQkdhVs8ITbdeJQCYSa2gbzlzQDBRwRN6CgQM/dVpE4+wc95A+Qtz54JPhJyCh2FhQziw3VqnWJiYkKPRcyENETQhI4DseFWT3hUGLcDiyPCzW6FssJgIIImdAU8vc+NBFyv1gosivyIBvIVhDSkDk3oKixoAE/0Q5AaqVfDenjWDO+IYnnxzIRGEEETug7ECfVf8LIgThAmiBumXXHDchiwHL/sjt873bggDC4iaELPgFhBqNy3CVio8JsL18OJkAnNIIIm9Bz2wjA+ffq0HkO40GsTxhAzETKhFUTQBEEYGKSVUxCEgUEETRCEgUEETRCEgUEETRCEgUEETRCEgUEETRCEgUEETciIJSrdNKR7bRoamqGyTY1xYsYuM0Rjc0s2sUOcLdGYzXvoppIqkdDviKAVjrfo2f+2gYZGZujZt2xSJqyg8W8FtFgaJZraQiM2Ncb6PRQECzRNozT2WytsYodYPU7zwSLNbiUavXGLKpHQ74igFY5z9INnlT904iT94Kc2KTPKdO/4ERq9wny0MY2luYO0l9bR8Gqb0EnOHqX5w0TrhkXOBgERtMJxES2/DOOVtPxinZAdZyt0sgHPq/LikdpeXBssfW+ejij/b8t6myD0NSJohWM5XbIS45V0yXKdEMeptxoaGqPSWSSWaYbTDnCNV7UeLKl+a2luzMnDrh+uy2ICz8vJO1aXVaajt6uQMNGLc9ZTQyt1bFGxrOY3c0InCH2GCFoBGb5ilGjrMMUlwgqUuroXgoACXb90hLYfggiN0B6VtjDF4oKLfxfRHSbtyIsVnQNTPjBEK8fX2XzuJjp0UHljRNPXVf0sLSZbT9LBoaO0BcudmaXRw9tplytMKV6cEcsNakPI39TFHRm/V5WqGRyx1A0EKIepUztZkSaCfkQErYAsv0xdwJctV8FnlPKBlbSdZmkx2BMJ76rekRGAdWq2dBMu/nkaX71ElefszxaIzYbbp5WYcT4rlHgeUX+jTj2YyYtojO7m5VZvoTElJq44ai9u6xhtcevPlAe5cpxo9kxAe9xQMVGkaxCKZYVmdpMtR4Uqh+3vQv+Br20IBaM8HdCU8p1czswGym8Lpst2XqG8nkD5VEG4JNZT89NTo4ESE4O/XkI+QHlxAW2dDRbtvFnOyUezGCjvKFI2vV6krPFl0rZZD7N/o8HoVn8f/XIJ/YIIWhFRAjBdCqVFo4UjFK+FYFoJRETMFEYAKBh11/UEICZcmrgI6bxiy5ntVvM38xGh0turpplyNy9mIGndmIgLfYUIWhF589Fg/n+/aWeAFRx1cZsh6YK2y3giFBUwX5AsnggBvZ7vJVoPMExN8OJYVHloRcgMVrQj+5Pg/Ql9hdShFZGLttDodW4Nmq03mlrQFeyBU4dWnuNWR7NM9AFUU38Wpuk6Kf+ZrjLNjOxV43j9mdtAwMuNlv4g3Ha1/myJSgdMOXRDAqF+zjQGhHVoJ0q2NbZBbFmnd487+2P2MVouoZ8QQSsc5+hvdn+Ihj6yl8rhmwIjtGVKjW4/6IiCafE8SFasThwlJTfR1sbwodQKzeBxjNXDtE4l732E2xrREnqUhvE2AITp7Ix5HMJWxrsCNzO0gfYqQZ3f5sgLxOvqYVqhtk0TRnhGrlN+lSrJQaclVLd43kHRhoM6JD5/ZvdxmEo00+nXrITeoP00oUC8GZz8ryMBrZ8OTrpRJ4dbYTiXEOr5dV42lHTDxGhIaNK5ripWhxYulxQ6OuXxQkB/3ViI2wBJIW+Yb6xuT+gPguD/A19qsnUU+gbDAAAAAElFTkSuQmCC;" parent="1" vertex="1">
          <mxGeometry x="460" y="700" width="308" height="304" as="geometry" />
        </mxCell>
        <mxCell id="Ib7L2-6Yxjfy-kbsQUxr-29" value="Green" style="ellipse;whiteSpace=wrap;html=1;fillColor=#d5e8d4;strokeColor=#82b366;" parent="1" vertex="1">
          <mxGeometry x="500" y="1089" width="120" height="80" as="geometry" />
        </mxCell>
        <mxCell id="Ib7L2-6Yxjfy-kbsQUxr-31" value="yellow" style="ellipse;whiteSpace=wrap;html=1;fillColor=#fff2cc;strokeColor=#d6b656;" parent="1" vertex="1">
          <mxGeometry x="768" y="1089" width="120" height="80" as="geometry" />
        </mxCell>
        <mxCell id="Ib7L2-6Yxjfy-kbsQUxr-32" value="Red" style="ellipse;whiteSpace=wrap;html=1;fillColor=#e51400;fontColor=#ffffff;strokeColor=#B20000;" parent="1" vertex="1">
          <mxGeometry x="630" y="1320" width="110" height="80" as="geometry" />
        </mxCell>
        <mxCell id="Ib7L2-6Yxjfy-kbsQUxr-33" value="" style="endArrow=classic;html=1;rounded=0;exitX=1;exitY=0.5;exitDx=0;exitDy=0;entryX=0;entryY=0.5;entryDx=0;entryDy=0;" parent="1" source="Ib7L2-6Yxjfy-kbsQUxr-29" target="Ib7L2-6Yxjfy-kbsQUxr-31" edge="1">
          <mxGeometry width="50" height="50" relative="1" as="geometry">
            <mxPoint x="550" y="1020" as="sourcePoint" />
            <mxPoint x="600" y="970" as="targetPoint" />
          </mxGeometry>
        </mxCell>
        <mxCell id="Ib7L2-6Yxjfy-kbsQUxr-35" value="" style="endArrow=classic;html=1;rounded=0;entryX=1;entryY=0;entryDx=0;entryDy=0;exitX=0.5;exitY=1;exitDx=0;exitDy=0;" parent="1" source="Ib7L2-6Yxjfy-kbsQUxr-31" target="Ib7L2-6Yxjfy-kbsQUxr-32" edge="1">
          <mxGeometry width="50" height="50" relative="1" as="geometry">
            <mxPoint x="550" y="1120" as="sourcePoint" />
            <mxPoint x="600" y="1070" as="targetPoint" />
          </mxGeometry>
        </mxCell>
        <mxCell id="Ib7L2-6Yxjfy-kbsQUxr-36" value="" style="endArrow=classic;html=1;rounded=0;entryX=0.5;entryY=1;entryDx=0;entryDy=0;exitX=0;exitY=0;exitDx=0;exitDy=0;" parent="1" source="Ib7L2-6Yxjfy-kbsQUxr-32" target="Ib7L2-6Yxjfy-kbsQUxr-29" edge="1">
          <mxGeometry width="50" height="50" relative="1" as="geometry">
            <mxPoint x="838" y="1179" as="sourcePoint" />
            <mxPoint x="762" y="1322" as="targetPoint" />
          </mxGeometry>
        </mxCell>
        <mxCell id="Ib7L2-6Yxjfy-kbsQUxr-37" value="&lt;div&gt;enable_r==1&lt;/div&gt;&lt;div&gt;&lt;span style=&quot;background-color: initial;&quot;&gt;--------------&lt;/span&gt;&lt;/div&gt;&lt;div&gt;&lt;span style=&quot;background-color: initial;&quot;&gt;start_r=1&lt;/span&gt;&lt;span style=&quot;background-color: initial;&quot;&gt;&amp;nbsp;&lt;/span&gt;&lt;/div&gt;" style="text;html=1;align=center;verticalAlign=middle;resizable=0;points=[];autosize=1;strokeColor=none;fillColor=none;" parent="1" vertex="1">
          <mxGeometry x="515" y="1240" width="90" height="60" as="geometry" />
        </mxCell>
        <mxCell id="Ib7L2-6Yxjfy-kbsQUxr-39" value="" style="curved=1;endArrow=classic;html=1;rounded=0;exitX=0.5;exitY=1;exitDx=0;exitDy=0;entryX=0;entryY=1;entryDx=0;entryDy=0;" parent="1" source="Ib7L2-6Yxjfy-kbsQUxr-32" target="Ib7L2-6Yxjfy-kbsQUxr-32" edge="1">
          <mxGeometry width="50" height="50" relative="1" as="geometry">
            <mxPoint x="620" y="1450" as="sourcePoint" />
            <mxPoint x="670" y="1400" as="targetPoint" />
            <Array as="points">
              <mxPoint x="670" y="1450" />
              <mxPoint x="620" y="1400" />
            </Array>
          </mxGeometry>
        </mxCell>
        <mxCell id="Ib7L2-6Yxjfy-kbsQUxr-40" value="&lt;div&gt;&lt;span style=&quot;background-color: initial;&quot;&gt;Timeout==1&lt;/span&gt;&lt;/div&gt;&lt;div&gt;&lt;span style=&quot;background-color: initial;&quot;&gt;--------------&lt;/span&gt;&lt;br&gt;&lt;/div&gt;&lt;div&gt;&lt;span style=&quot;background-color: initial;&quot;&gt;start_r=1&amp;nbsp;&lt;/span&gt;&lt;/div&gt;" style="text;html=1;align=center;verticalAlign=middle;resizable=0;points=[];autosize=1;strokeColor=none;fillColor=none;" parent="1" vertex="1">
          <mxGeometry x="640" y="1070" width="90" height="60" as="geometry" />
        </mxCell>
        <mxCell id="Ib7L2-6Yxjfy-kbsQUxr-43" value="&lt;div&gt;&lt;span style=&quot;background-color: initial;&quot;&gt;timeout==1&lt;/span&gt;&lt;/div&gt;&lt;div&gt;&lt;span style=&quot;background-color: initial;&quot;&gt;--------------&lt;/span&gt;&lt;/div&gt;&lt;div&gt;&lt;span style=&quot;background-color: initial;&quot;&gt;enable_h=1&amp;nbsp;&lt;/span&gt;&lt;/div&gt;" style="text;html=1;align=center;verticalAlign=middle;resizable=0;points=[];autosize=1;strokeColor=none;fillColor=none;" parent="1" vertex="1">
          <mxGeometry x="790" y="1240" width="90" height="60" as="geometry" />
        </mxCell>
        <mxCell id="Ib7L2-6Yxjfy-kbsQUxr-44" value="enable_r!=1;&lt;div&gt;-------------&lt;/div&gt;&lt;div&gt;start_r=0;&lt;/div&gt;" style="text;html=1;align=center;verticalAlign=middle;whiteSpace=wrap;rounded=0;" parent="1" vertex="1">
          <mxGeometry x="670" y="1420" width="80" height="50" as="geometry" />
        </mxCell>
        <mxCell id="Ib7L2-6Yxjfy-kbsQUxr-45" value="" style="curved=1;endArrow=classic;html=1;rounded=0;exitX=-0.001;exitY=0.335;exitDx=0;exitDy=0;entryX=0;entryY=0;entryDx=0;entryDy=0;exitPerimeter=0;" parent="1" source="Ib7L2-6Yxjfy-kbsQUxr-29" target="Ib7L2-6Yxjfy-kbsQUxr-29" edge="1">
          <mxGeometry width="50" height="50" relative="1" as="geometry">
            <mxPoint x="525" y="1070" as="sourcePoint" />
            <mxPoint x="486" y="1058" as="targetPoint" />
            <Array as="points">
              <mxPoint x="510" y="1120" />
              <mxPoint x="460" y="1100" />
              <mxPoint x="460" y="1070" />
            </Array>
          </mxGeometry>
        </mxCell>
        <mxCell id="Ib7L2-6Yxjfy-kbsQUxr-46" value="" style="curved=1;endArrow=classic;html=1;rounded=0;entryX=0.63;entryY=-0.02;entryDx=0;entryDy=0;entryPerimeter=0;exitX=0.933;exitY=0.262;exitDx=0;exitDy=0;exitPerimeter=0;" parent="1" source="Ib7L2-6Yxjfy-kbsQUxr-31" target="Ib7L2-6Yxjfy-kbsQUxr-31" edge="1">
          <mxGeometry width="50" height="50" relative="1" as="geometry">
            <mxPoint x="888" y="1110" as="sourcePoint" />
            <mxPoint x="938" y="1060" as="targetPoint" />
            <Array as="points">
              <mxPoint x="938" y="1110" />
              <mxPoint x="888" y="1060" />
            </Array>
          </mxGeometry>
        </mxCell>
        <mxCell id="Ib7L2-6Yxjfy-kbsQUxr-47" value="&lt;div&gt;&lt;span style=&quot;background-color: initial;&quot;&gt;Timeout!=1&lt;/span&gt;&lt;/div&gt;&lt;div&gt;&lt;span style=&quot;background-color: initial;&quot;&gt;--------------&lt;/span&gt;&lt;br&gt;&lt;/div&gt;&lt;div&gt;&lt;span style=&quot;background-color: initial;&quot;&gt;start_r=0&amp;nbsp;&lt;/span&gt;&lt;/div&gt;" style="text;html=1;align=center;verticalAlign=middle;resizable=0;points=[];autosize=1;strokeColor=none;fillColor=none;" parent="1" vertex="1">
          <mxGeometry x="455" y="1029" width="80" height="60" as="geometry" />
        </mxCell>
        <mxCell id="Ib7L2-6Yxjfy-kbsQUxr-48" value="&lt;div&gt;&lt;span style=&quot;background-color: initial;&quot;&gt;timeout!=1&lt;/span&gt;&lt;/div&gt;&lt;div&gt;&lt;span style=&quot;background-color: initial;&quot;&gt;--------------&lt;/span&gt;&lt;/div&gt;&lt;div&gt;&lt;span style=&quot;background-color: initial;&quot;&gt;enable_h=0&lt;/span&gt;&lt;/div&gt;" style="text;html=1;align=center;verticalAlign=middle;resizable=0;points=[];autosize=1;strokeColor=none;fillColor=none;" parent="1" vertex="1">
          <mxGeometry x="900" y="1029" width="90" height="60" as="geometry" />
        </mxCell>
        <mxCell id="Ib7L2-6Yxjfy-kbsQUxr-49" value="Timer" style="rounded=0;whiteSpace=wrap;html=1;fillColor=#dae8fc;strokeColor=#6c8ebf;" parent="1" vertex="1">
          <mxGeometry x="100" y="1300" width="120" height="60" as="geometry" />
        </mxCell>
        <mxCell id="Ib7L2-6Yxjfy-kbsQUxr-50" value="" style="group" parent="1" vertex="1" connectable="0">
          <mxGeometry y="1020" width="380" height="211" as="geometry" />
        </mxCell>
        <mxCell id="Ib7L2-6Yxjfy-kbsQUxr-6" value="&lt;font style=&quot;font-size: 17px;&quot;&gt;Mạch điều khiển giao thông hướng không ưu tiên&amp;nbsp;&lt;/font&gt;" style="rounded=0;whiteSpace=wrap;html=1;fillColor=#dae8fc;strokeColor=#6c8ebf;" parent="Ib7L2-6Yxjfy-kbsQUxr-50" vertex="1">
          <mxGeometry x="81" width="210" height="160" as="geometry" />
        </mxCell>
        <mxCell id="Ib7L2-6Yxjfy-kbsQUxr-7" value="" style="endArrow=classic;html=1;rounded=0;" parent="Ib7L2-6Yxjfy-kbsQUxr-50" edge="1">
          <mxGeometry width="50" height="50" relative="1" as="geometry">
            <mxPoint y="31" as="sourcePoint" />
            <mxPoint x="80" y="31" as="targetPoint" />
          </mxGeometry>
        </mxCell>
        <mxCell id="Ib7L2-6Yxjfy-kbsQUxr-11" value="car" style="edgeLabel;html=1;align=center;verticalAlign=middle;resizable=0;points=[];" parent="Ib7L2-6Yxjfy-kbsQUxr-7" vertex="1" connectable="0">
          <mxGeometry x="0.0974" y="1" relative="1" as="geometry">
            <mxPoint as="offset" />
          </mxGeometry>
        </mxCell>
        <mxCell id="Ib7L2-6Yxjfy-kbsQUxr-8" value="" style="endArrow=classic;html=1;rounded=0;" parent="Ib7L2-6Yxjfy-kbsQUxr-50" edge="1">
          <mxGeometry width="50" height="50" relative="1" as="geometry">
            <mxPoint x="2" y="63" as="sourcePoint" />
            <mxPoint x="80" y="63" as="targetPoint" />
          </mxGeometry>
        </mxCell>
        <mxCell id="Ib7L2-6Yxjfy-kbsQUxr-12" value="Time_out" style="edgeLabel;html=1;align=center;verticalAlign=middle;resizable=0;points=[];" parent="Ib7L2-6Yxjfy-kbsQUxr-8" vertex="1" connectable="0">
          <mxGeometry x="-0.4032" relative="1" as="geometry">
            <mxPoint x="15" as="offset" />
          </mxGeometry>
        </mxCell>
        <mxCell id="Ib7L2-6Yxjfy-kbsQUxr-9" value="" style="endArrow=classic;html=1;rounded=0;" parent="Ib7L2-6Yxjfy-kbsQUxr-50" edge="1">
          <mxGeometry width="50" height="50" relative="1" as="geometry">
            <mxPoint y="101" as="sourcePoint" />
            <mxPoint x="78" y="101" as="targetPoint" />
          </mxGeometry>
        </mxCell>
        <mxCell id="Ib7L2-6Yxjfy-kbsQUxr-14" value="time_out" style="edgeLabel;html=1;align=center;verticalAlign=middle;resizable=0;points=[];" parent="Ib7L2-6Yxjfy-kbsQUxr-9" vertex="1" connectable="0">
          <mxGeometry x="-0.5818" relative="1" as="geometry">
            <mxPoint x="23" as="offset" />
          </mxGeometry>
        </mxCell>
        <mxCell id="Ib7L2-6Yxjfy-kbsQUxr-10" value="" style="endArrow=classic;html=1;rounded=0;" parent="Ib7L2-6Yxjfy-kbsQUxr-50" edge="1">
          <mxGeometry width="50" height="50" relative="1" as="geometry">
            <mxPoint y="131" as="sourcePoint" />
            <mxPoint x="78" y="131" as="targetPoint" />
          </mxGeometry>
        </mxCell>
        <mxCell id="Ib7L2-6Yxjfy-kbsQUxr-15" value="enable_r" style="edgeLabel;html=1;align=center;verticalAlign=middle;resizable=0;points=[];" parent="Ib7L2-6Yxjfy-kbsQUxr-10" vertex="1" connectable="0">
          <mxGeometry x="-0.3165" y="3" relative="1" as="geometry">
            <mxPoint x="13" as="offset" />
          </mxGeometry>
        </mxCell>
        <mxCell id="Ib7L2-6Yxjfy-kbsQUxr-16" value="" style="endArrow=classic;html=1;rounded=0;" parent="Ib7L2-6Yxjfy-kbsQUxr-50" edge="1">
          <mxGeometry width="50" height="50" relative="1" as="geometry">
            <mxPoint x="290" y="31" as="sourcePoint" />
            <mxPoint x="368" y="31" as="targetPoint" />
          </mxGeometry>
        </mxCell>
        <mxCell id="Ib7L2-6Yxjfy-kbsQUxr-17" value="enable_h" style="edgeLabel;html=1;align=center;verticalAlign=middle;resizable=0;points=[];" parent="Ib7L2-6Yxjfy-kbsQUxr-16" vertex="1" connectable="0">
          <mxGeometry x="-0.3165" y="3" relative="1" as="geometry">
            <mxPoint x="13" as="offset" />
          </mxGeometry>
        </mxCell>
        <mxCell id="Ib7L2-6Yxjfy-kbsQUxr-18" value="" style="endArrow=classic;html=1;rounded=0;" parent="Ib7L2-6Yxjfy-kbsQUxr-50" edge="1">
          <mxGeometry width="50" height="50" relative="1" as="geometry">
            <mxPoint x="290" y="61" as="sourcePoint" />
            <mxPoint x="368" y="61" as="targetPoint" />
          </mxGeometry>
        </mxCell>
        <mxCell id="Ib7L2-6Yxjfy-kbsQUxr-19" value="start_r" style="edgeLabel;html=1;align=center;verticalAlign=middle;resizable=0;points=[];" parent="Ib7L2-6Yxjfy-kbsQUxr-18" vertex="1" connectable="0">
          <mxGeometry x="-0.3165" y="3" relative="1" as="geometry">
            <mxPoint x="13" as="offset" />
          </mxGeometry>
        </mxCell>
        <mxCell id="Ib7L2-6Yxjfy-kbsQUxr-22" value="" style="endArrow=classic;html=1;rounded=0;exitX=1.024;exitY=0.695;exitDx=0;exitDy=0;exitPerimeter=0;" parent="Ib7L2-6Yxjfy-kbsQUxr-50" source="Ib7L2-6Yxjfy-kbsQUxr-6" edge="1">
          <mxGeometry width="50" height="50" relative="1" as="geometry">
            <mxPoint x="200" y="21" as="sourcePoint" />
            <mxPoint x="330" y="111" as="targetPoint" />
          </mxGeometry>
        </mxCell>
        <mxCell id="Ib7L2-6Yxjfy-kbsQUxr-23" value="D" style="rounded=0;whiteSpace=wrap;html=1;" parent="Ib7L2-6Yxjfy-kbsQUxr-50" vertex="1">
          <mxGeometry x="332" y="91" width="30" height="50" as="geometry" />
        </mxCell>
        <mxCell id="Ib7L2-6Yxjfy-kbsQUxr-24" value="" style="endArrow=classic;html=1;rounded=0;entryX=0;entryY=0.75;entryDx=0;entryDy=0;" parent="Ib7L2-6Yxjfy-kbsQUxr-50" target="Ib7L2-6Yxjfy-kbsQUxr-23" edge="1">
          <mxGeometry width="50" height="50" relative="1" as="geometry">
            <mxPoint x="310" y="191" as="sourcePoint" />
            <mxPoint x="250" y="41" as="targetPoint" />
            <Array as="points">
              <mxPoint x="310" y="129" />
            </Array>
          </mxGeometry>
        </mxCell>
        <mxCell id="Ib7L2-6Yxjfy-kbsQUxr-27" value="clk" style="edgeLabel;html=1;align=center;verticalAlign=middle;resizable=0;points=[];" parent="Ib7L2-6Yxjfy-kbsQUxr-24" vertex="1" connectable="0">
          <mxGeometry x="-0.6683" relative="1" as="geometry">
            <mxPoint as="offset" />
          </mxGeometry>
        </mxCell>
        <mxCell id="Ib7L2-6Yxjfy-kbsQUxr-25" value="" style="endArrow=none;html=1;rounded=0;entryX=0.5;entryY=1;entryDx=0;entryDy=0;" parent="Ib7L2-6Yxjfy-kbsQUxr-50" target="Ib7L2-6Yxjfy-kbsQUxr-23" edge="1">
          <mxGeometry width="50" height="50" relative="1" as="geometry">
            <mxPoint x="347" y="191" as="sourcePoint" />
            <mxPoint x="250" y="111" as="targetPoint" />
          </mxGeometry>
        </mxCell>
        <mxCell id="Ib7L2-6Yxjfy-kbsQUxr-28" value="rst" style="edgeLabel;html=1;align=center;verticalAlign=middle;resizable=0;points=[];" parent="Ib7L2-6Yxjfy-kbsQUxr-25" vertex="1" connectable="0">
          <mxGeometry x="-0.5255" y="-1" relative="1" as="geometry">
            <mxPoint as="offset" />
          </mxGeometry>
        </mxCell>
        <mxCell id="Ib7L2-6Yxjfy-kbsQUxr-26" value="" style="endArrow=classic;html=1;rounded=0;entryX=-0.016;entryY=0.951;entryDx=0;entryDy=0;entryPerimeter=0;exitX=0.994;exitY=0.593;exitDx=0;exitDy=0;exitPerimeter=0;" parent="Ib7L2-6Yxjfy-kbsQUxr-50" source="Ib7L2-6Yxjfy-kbsQUxr-23" target="Ib7L2-6Yxjfy-kbsQUxr-6" edge="1">
          <mxGeometry width="50" height="50" relative="1" as="geometry">
            <mxPoint x="200" y="161" as="sourcePoint" />
            <mxPoint x="250" y="111" as="targetPoint" />
            <Array as="points">
              <mxPoint x="380" y="121" />
              <mxPoint x="380" y="211" />
              <mxPoint x="30" y="211" />
              <mxPoint x="30" y="151" />
            </Array>
          </mxGeometry>
        </mxCell>
        <mxCell id="0X4tpplS7bHyckZx9qFQ-1" value="car" style="text;html=1;align=center;verticalAlign=middle;resizable=0;points=[];autosize=1;strokeColor=none;fillColor=none;" vertex="1" parent="1">
          <mxGeometry x="798" y="380" width="40" height="30" as="geometry" />
        </mxCell>
        <mxCell id="0X4tpplS7bHyckZx9qFQ-2" value="đèn 2way" style="text;html=1;align=center;verticalAlign=middle;resizable=0;points=[];autosize=1;strokeColor=none;fillColor=none;" vertex="1" parent="1">
          <mxGeometry x="768" y="418" width="70" height="30" as="geometry" />
        </mxCell>
        <mxCell id="0X4tpplS7bHyckZx9qFQ-3" value="đèn road" style="text;html=1;align=center;verticalAlign=middle;resizable=0;points=[];autosize=1;strokeColor=none;fillColor=none;" vertex="1" parent="1">
          <mxGeometry x="768" y="460" width="70" height="30" as="geometry" />
        </mxCell>
        <mxCell id="0X4tpplS7bHyckZx9qFQ-4" value="" style="endArrow=none;html=1;rounded=0;" edge="1" parent="1">
          <mxGeometry width="50" height="50" relative="1" as="geometry">
            <mxPoint x="910" y="370" as="sourcePoint" />
            <mxPoint x="910" y="400" as="targetPoint" />
          </mxGeometry>
        </mxCell>
        <mxCell id="0X4tpplS7bHyckZx9qFQ-5" value="" style="endArrow=none;html=1;rounded=0;" edge="1" parent="1">
          <mxGeometry width="50" height="50" relative="1" as="geometry">
            <mxPoint x="910" y="370" as="sourcePoint" />
            <mxPoint x="1180" y="370" as="targetPoint" />
          </mxGeometry>
        </mxCell>
        <mxCell id="0X4tpplS7bHyckZx9qFQ-6" value="" style="endArrow=none;html=1;rounded=0;" edge="1" parent="1">
          <mxGeometry width="50" height="50" relative="1" as="geometry">
            <mxPoint x="850" y="400" as="sourcePoint" />
            <mxPoint x="910" y="400" as="targetPoint" />
          </mxGeometry>
        </mxCell>
        <mxCell id="0X4tpplS7bHyckZx9qFQ-7" value="xanh" style="rounded=0;whiteSpace=wrap;html=1;" vertex="1" parent="1">
          <mxGeometry x="850" y="418" width="60" height="20" as="geometry" />
        </mxCell>
        <mxCell id="0X4tpplS7bHyckZx9qFQ-8" value="đỏ" style="rounded=0;whiteSpace=wrap;html=1;" vertex="1" parent="1">
          <mxGeometry x="850" y="460" width="60" height="20" as="geometry" />
        </mxCell>
        <mxCell id="0X4tpplS7bHyckZx9qFQ-17" value="" style="group" vertex="1" connectable="0" parent="1">
          <mxGeometry x="1000" y="418" width="210" height="62" as="geometry" />
        </mxCell>
        <mxCell id="0X4tpplS7bHyckZx9qFQ-9" value="vàng(t)" style="rounded=0;whiteSpace=wrap;html=1;" vertex="1" parent="0X4tpplS7bHyckZx9qFQ-17">
          <mxGeometry width="60" height="20" as="geometry" />
        </mxCell>
        <mxCell id="0X4tpplS7bHyckZx9qFQ-10" value="đỏ" style="rounded=0;whiteSpace=wrap;html=1;" vertex="1" parent="0X4tpplS7bHyckZx9qFQ-17">
          <mxGeometry y="42" width="60" height="20" as="geometry" />
        </mxCell>
        <mxCell id="0X4tpplS7bHyckZx9qFQ-11" value="đỏ(T)" style="rounded=0;whiteSpace=wrap;html=1;" vertex="1" parent="0X4tpplS7bHyckZx9qFQ-17">
          <mxGeometry x="60" width="90" height="20" as="geometry" />
        </mxCell>
        <mxCell id="0X4tpplS7bHyckZx9qFQ-12" value="xanh(T)" style="rounded=0;whiteSpace=wrap;html=1;" vertex="1" parent="0X4tpplS7bHyckZx9qFQ-17">
          <mxGeometry x="60" y="42" width="90" height="20" as="geometry" />
        </mxCell>
        <mxCell id="0X4tpplS7bHyckZx9qFQ-14" value="vàng(t)" style="rounded=0;whiteSpace=wrap;html=1;" vertex="1" parent="0X4tpplS7bHyckZx9qFQ-17">
          <mxGeometry x="150" y="42" width="60" height="20" as="geometry" />
        </mxCell>
        <mxCell id="0X4tpplS7bHyckZx9qFQ-15" value="đỏ(t)" style="rounded=0;whiteSpace=wrap;html=1;" vertex="1" parent="0X4tpplS7bHyckZx9qFQ-17">
          <mxGeometry x="150" width="60" height="20" as="geometry" />
        </mxCell>
        <mxCell id="0X4tpplS7bHyckZx9qFQ-18" value="xanh(T)" style="rounded=0;whiteSpace=wrap;html=1;" vertex="1" parent="1">
          <mxGeometry x="910" y="418" width="90" height="20" as="geometry" />
        </mxCell>
        <mxCell id="0X4tpplS7bHyckZx9qFQ-19" value="đỏ(T)" style="rounded=0;whiteSpace=wrap;html=1;" vertex="1" parent="1">
          <mxGeometry x="910" y="460" width="90" height="20" as="geometry" />
        </mxCell>
        <mxCell id="0X4tpplS7bHyckZx9qFQ-20" value="Timer" style="text;html=1;align=center;verticalAlign=middle;resizable=0;points=[];autosize=1;strokeColor=none;fillColor=none;" vertex="1" parent="1">
          <mxGeometry x="788" y="500" width="50" height="30" as="geometry" />
        </mxCell>
        <mxCell id="0X4tpplS7bHyckZx9qFQ-21" value="30-00" style="rounded=0;whiteSpace=wrap;html=1;" vertex="1" parent="1">
          <mxGeometry x="910" y="500" width="90" height="20" as="geometry" />
        </mxCell>
        <mxCell id="0X4tpplS7bHyckZx9qFQ-23" value="40-30" style="rounded=0;whiteSpace=wrap;html=1;" vertex="1" parent="1">
          <mxGeometry x="1000" y="500" width="60" height="20" as="geometry" />
        </mxCell>
        <mxCell id="0X4tpplS7bHyckZx9qFQ-24" value="30-00" style="rounded=0;whiteSpace=wrap;html=1;" vertex="1" parent="1">
          <mxGeometry x="1060" y="500" width="90" height="20" as="geometry" />
        </mxCell>
        <mxCell id="0X4tpplS7bHyckZx9qFQ-25" value="40-30" style="rounded=0;whiteSpace=wrap;html=1;" vertex="1" parent="1">
          <mxGeometry x="1150" y="500" width="60" height="20" as="geometry" />
        </mxCell>
        <mxCell id="0X4tpplS7bHyckZx9qFQ-26" value="xanh" style="rounded=0;whiteSpace=wrap;html=1;" vertex="1" parent="1">
          <mxGeometry x="1210" y="418" width="90" height="20" as="geometry" />
        </mxCell>
        <mxCell id="0X4tpplS7bHyckZx9qFQ-27" value="" style="endArrow=none;html=1;rounded=0;" edge="1" parent="1">
          <mxGeometry width="50" height="50" relative="1" as="geometry">
            <mxPoint x="1179.78" y="370" as="sourcePoint" />
            <mxPoint x="1179.78" y="400" as="targetPoint" />
          </mxGeometry>
        </mxCell>
        <mxCell id="0X4tpplS7bHyckZx9qFQ-28" value="" style="endArrow=none;html=1;rounded=0;" edge="1" parent="1">
          <mxGeometry width="50" height="50" relative="1" as="geometry">
            <mxPoint x="1181" y="400" as="sourcePoint" />
            <mxPoint x="1300" y="400" as="targetPoint" />
          </mxGeometry>
        </mxCell>
        <mxCell id="0X4tpplS7bHyckZx9qFQ-31" value="đỏ" style="rounded=0;whiteSpace=wrap;html=1;" vertex="1" parent="1">
          <mxGeometry x="1210" y="460" width="90" height="20" as="geometry" />
        </mxCell>
        <mxCell id="0X4tpplS7bHyckZx9qFQ-34" value="00" style="rounded=0;whiteSpace=wrap;html=1;" vertex="1" parent="1">
          <mxGeometry x="850" y="500" width="60" height="20" as="geometry" />
        </mxCell>
        <mxCell id="0X4tpplS7bHyckZx9qFQ-35" value="00" style="rounded=0;whiteSpace=wrap;html=1;" vertex="1" parent="1">
          <mxGeometry x="1210" y="500" width="90" height="20" as="geometry" />
        </mxCell>
        <mxCell id="0X4tpplS7bHyckZx9qFQ-36" value="car" style="text;html=1;align=center;verticalAlign=middle;resizable=0;points=[];autosize=1;strokeColor=none;fillColor=none;" vertex="1" parent="1">
          <mxGeometry x="794" y="560" width="40" height="30" as="geometry" />
        </mxCell>
        <mxCell id="0X4tpplS7bHyckZx9qFQ-37" value="đèn 2way" style="text;html=1;align=center;verticalAlign=middle;resizable=0;points=[];autosize=1;strokeColor=none;fillColor=none;" vertex="1" parent="1">
          <mxGeometry x="764" y="598" width="70" height="30" as="geometry" />
        </mxCell>
        <mxCell id="0X4tpplS7bHyckZx9qFQ-38" value="đèn road" style="text;html=1;align=center;verticalAlign=middle;resizable=0;points=[];autosize=1;strokeColor=none;fillColor=none;" vertex="1" parent="1">
          <mxGeometry x="764" y="640" width="70" height="30" as="geometry" />
        </mxCell>
        <mxCell id="0X4tpplS7bHyckZx9qFQ-39" value="" style="endArrow=none;html=1;rounded=0;" edge="1" parent="1">
          <mxGeometry width="50" height="50" relative="1" as="geometry">
            <mxPoint x="906" y="550" as="sourcePoint" />
            <mxPoint x="906" y="580" as="targetPoint" />
          </mxGeometry>
        </mxCell>
        <mxCell id="0X4tpplS7bHyckZx9qFQ-40" value="" style="endArrow=none;html=1;rounded=0;" edge="1" parent="1">
          <mxGeometry width="50" height="50" relative="1" as="geometry">
            <mxPoint x="906" y="550" as="sourcePoint" />
            <mxPoint x="1176" y="550" as="targetPoint" />
          </mxGeometry>
        </mxCell>
        <mxCell id="0X4tpplS7bHyckZx9qFQ-41" value="" style="endArrow=none;html=1;rounded=0;" edge="1" parent="1">
          <mxGeometry width="50" height="50" relative="1" as="geometry">
            <mxPoint x="846" y="580" as="sourcePoint" />
            <mxPoint x="906" y="580" as="targetPoint" />
          </mxGeometry>
        </mxCell>
        <mxCell id="0X4tpplS7bHyckZx9qFQ-42" value="xanh" style="rounded=0;whiteSpace=wrap;html=1;" vertex="1" parent="1">
          <mxGeometry x="846" y="598" width="60" height="20" as="geometry" />
        </mxCell>
        <mxCell id="0X4tpplS7bHyckZx9qFQ-43" value="đỏ" style="rounded=0;whiteSpace=wrap;html=1;" vertex="1" parent="1">
          <mxGeometry x="846" y="640" width="60" height="20" as="geometry" />
        </mxCell>
        <mxCell id="0X4tpplS7bHyckZx9qFQ-44" value="" style="group" vertex="1" connectable="0" parent="1">
          <mxGeometry x="996" y="598" width="210" height="62" as="geometry" />
        </mxCell>
        <mxCell id="0X4tpplS7bHyckZx9qFQ-45" value="vàng(t)" style="rounded=0;whiteSpace=wrap;html=1;" vertex="1" parent="0X4tpplS7bHyckZx9qFQ-44">
          <mxGeometry width="60" height="20" as="geometry" />
        </mxCell>
        <mxCell id="0X4tpplS7bHyckZx9qFQ-46" value="đỏ" style="rounded=0;whiteSpace=wrap;html=1;" vertex="1" parent="0X4tpplS7bHyckZx9qFQ-44">
          <mxGeometry y="42" width="60" height="20" as="geometry" />
        </mxCell>
        <mxCell id="0X4tpplS7bHyckZx9qFQ-47" value="đỏ(T)" style="rounded=0;whiteSpace=wrap;html=1;" vertex="1" parent="0X4tpplS7bHyckZx9qFQ-44">
          <mxGeometry x="60" width="90" height="20" as="geometry" />
        </mxCell>
        <mxCell id="0X4tpplS7bHyckZx9qFQ-48" value="xanh(T)" style="rounded=0;whiteSpace=wrap;html=1;" vertex="1" parent="0X4tpplS7bHyckZx9qFQ-44">
          <mxGeometry x="60" y="42" width="90" height="20" as="geometry" />
        </mxCell>
        <mxCell id="0X4tpplS7bHyckZx9qFQ-49" value="vàng(t)" style="rounded=0;whiteSpace=wrap;html=1;" vertex="1" parent="0X4tpplS7bHyckZx9qFQ-44">
          <mxGeometry x="150" y="42" width="60" height="20" as="geometry" />
        </mxCell>
        <mxCell id="0X4tpplS7bHyckZx9qFQ-50" value="đỏ(t)" style="rounded=0;whiteSpace=wrap;html=1;" vertex="1" parent="0X4tpplS7bHyckZx9qFQ-44">
          <mxGeometry x="150" width="60" height="20" as="geometry" />
        </mxCell>
        <mxCell id="0X4tpplS7bHyckZx9qFQ-51" value="xanh(T)" style="rounded=0;whiteSpace=wrap;html=1;" vertex="1" parent="1">
          <mxGeometry x="906" y="598" width="90" height="20" as="geometry" />
        </mxCell>
        <mxCell id="0X4tpplS7bHyckZx9qFQ-52" value="đỏ(T)" style="rounded=0;whiteSpace=wrap;html=1;" vertex="1" parent="1">
          <mxGeometry x="906" y="640" width="90" height="20" as="geometry" />
        </mxCell>
        <mxCell id="0X4tpplS7bHyckZx9qFQ-53" value="Timer" style="text;html=1;align=center;verticalAlign=middle;resizable=0;points=[];autosize=1;strokeColor=none;fillColor=none;" vertex="1" parent="1">
          <mxGeometry x="784" y="680" width="50" height="30" as="geometry" />
        </mxCell>
        <mxCell id="0X4tpplS7bHyckZx9qFQ-54" value="30-00" style="rounded=0;whiteSpace=wrap;html=1;" vertex="1" parent="1">
          <mxGeometry x="906" y="680" width="90" height="20" as="geometry" />
        </mxCell>
        <mxCell id="0X4tpplS7bHyckZx9qFQ-55" value="40-30" style="rounded=0;whiteSpace=wrap;html=1;" vertex="1" parent="1">
          <mxGeometry x="996" y="680" width="60" height="20" as="geometry" />
        </mxCell>
        <mxCell id="0X4tpplS7bHyckZx9qFQ-56" value="30-00" style="rounded=0;whiteSpace=wrap;html=1;" vertex="1" parent="1">
          <mxGeometry x="1056" y="680" width="90" height="20" as="geometry" />
        </mxCell>
        <mxCell id="0X4tpplS7bHyckZx9qFQ-57" value="40-30" style="rounded=0;whiteSpace=wrap;html=1;" vertex="1" parent="1">
          <mxGeometry x="1146" y="680" width="60" height="20" as="geometry" />
        </mxCell>
        <mxCell id="0X4tpplS7bHyckZx9qFQ-58" value="xanh" style="rounded=0;whiteSpace=wrap;html=1;" vertex="1" parent="1">
          <mxGeometry x="1206" y="598" width="154" height="20" as="geometry" />
        </mxCell>
        <mxCell id="0X4tpplS7bHyckZx9qFQ-59" value="" style="endArrow=none;html=1;rounded=0;" edge="1" parent="1">
          <mxGeometry width="50" height="50" relative="1" as="geometry">
            <mxPoint x="1175.78" y="550" as="sourcePoint" />
            <mxPoint x="1175.78" y="580" as="targetPoint" />
          </mxGeometry>
        </mxCell>
        <mxCell id="0X4tpplS7bHyckZx9qFQ-60" value="" style="endArrow=none;html=1;rounded=0;" edge="1" parent="1">
          <mxGeometry width="50" height="50" relative="1" as="geometry">
            <mxPoint x="1177" y="580" as="sourcePoint" />
            <mxPoint x="1360" y="580" as="targetPoint" />
          </mxGeometry>
        </mxCell>
        <mxCell id="0X4tpplS7bHyckZx9qFQ-61" value="đỏ" style="rounded=0;whiteSpace=wrap;html=1;" vertex="1" parent="1">
          <mxGeometry x="1206" y="640" width="154" height="20" as="geometry" />
        </mxCell>
        <mxCell id="0X4tpplS7bHyckZx9qFQ-62" value="00" style="rounded=0;whiteSpace=wrap;html=1;" vertex="1" parent="1">
          <mxGeometry x="846" y="680" width="60" height="20" as="geometry" />
        </mxCell>
        <mxCell id="0X4tpplS7bHyckZx9qFQ-63" value="00" style="rounded=0;whiteSpace=wrap;html=1;" vertex="1" parent="1">
          <mxGeometry x="1206" y="680" width="154" height="20" as="geometry" />
        </mxCell>
        <mxCell id="0X4tpplS7bHyckZx9qFQ-64" value="" style="endArrow=none;html=1;rounded=0;" edge="1" parent="1">
          <mxGeometry width="50" height="50" relative="1" as="geometry">
            <mxPoint x="1360" y="550" as="sourcePoint" />
            <mxPoint x="1360" y="580" as="targetPoint" />
          </mxGeometry>
        </mxCell>
        <mxCell id="0X4tpplS7bHyckZx9qFQ-65" value="" style="endArrow=none;html=1;rounded=0;" edge="1" parent="1">
          <mxGeometry width="50" height="50" relative="1" as="geometry">
            <mxPoint x="1360" y="550" as="sourcePoint" />
            <mxPoint x="1630" y="550" as="targetPoint" />
          </mxGeometry>
        </mxCell>
        <mxCell id="0X4tpplS7bHyckZx9qFQ-81" value="" style="group" vertex="1" connectable="0" parent="1">
          <mxGeometry x="1360" y="598" width="300" height="102" as="geometry" />
        </mxCell>
        <mxCell id="0X4tpplS7bHyckZx9qFQ-68" value="" style="group" vertex="1" connectable="0" parent="0X4tpplS7bHyckZx9qFQ-81">
          <mxGeometry x="90" width="210" height="62" as="geometry" />
        </mxCell>
        <mxCell id="0X4tpplS7bHyckZx9qFQ-69" value="vàng(t)" style="rounded=0;whiteSpace=wrap;html=1;" vertex="1" parent="0X4tpplS7bHyckZx9qFQ-68">
          <mxGeometry width="60" height="20" as="geometry" />
        </mxCell>
        <mxCell id="0X4tpplS7bHyckZx9qFQ-70" value="đỏ" style="rounded=0;whiteSpace=wrap;html=1;" vertex="1" parent="0X4tpplS7bHyckZx9qFQ-68">
          <mxGeometry y="42" width="60" height="20" as="geometry" />
        </mxCell>
        <mxCell id="0X4tpplS7bHyckZx9qFQ-71" value="đỏ(T)" style="rounded=0;whiteSpace=wrap;html=1;" vertex="1" parent="0X4tpplS7bHyckZx9qFQ-68">
          <mxGeometry x="60" width="90" height="20" as="geometry" />
        </mxCell>
        <mxCell id="0X4tpplS7bHyckZx9qFQ-72" value="xanh(T)" style="rounded=0;whiteSpace=wrap;html=1;" vertex="1" parent="0X4tpplS7bHyckZx9qFQ-68">
          <mxGeometry x="60" y="42" width="90" height="20" as="geometry" />
        </mxCell>
        <mxCell id="0X4tpplS7bHyckZx9qFQ-73" value="vàng(t)" style="rounded=0;whiteSpace=wrap;html=1;" vertex="1" parent="0X4tpplS7bHyckZx9qFQ-68">
          <mxGeometry x="150" y="42" width="60" height="20" as="geometry" />
        </mxCell>
        <mxCell id="0X4tpplS7bHyckZx9qFQ-74" value="đỏ(t)" style="rounded=0;whiteSpace=wrap;html=1;" vertex="1" parent="0X4tpplS7bHyckZx9qFQ-68">
          <mxGeometry x="150" width="60" height="20" as="geometry" />
        </mxCell>
        <mxCell id="0X4tpplS7bHyckZx9qFQ-75" value="xanh(T)" style="rounded=0;whiteSpace=wrap;html=1;" vertex="1" parent="0X4tpplS7bHyckZx9qFQ-81">
          <mxGeometry width="90" height="20" as="geometry" />
        </mxCell>
        <mxCell id="0X4tpplS7bHyckZx9qFQ-76" value="đỏ(T)" style="rounded=0;whiteSpace=wrap;html=1;" vertex="1" parent="0X4tpplS7bHyckZx9qFQ-81">
          <mxGeometry y="42" width="90" height="20" as="geometry" />
        </mxCell>
        <mxCell id="0X4tpplS7bHyckZx9qFQ-77" value="30-00" style="rounded=0;whiteSpace=wrap;html=1;" vertex="1" parent="0X4tpplS7bHyckZx9qFQ-81">
          <mxGeometry y="82" width="90" height="20" as="geometry" />
        </mxCell>
        <mxCell id="0X4tpplS7bHyckZx9qFQ-78" value="40-30" style="rounded=0;whiteSpace=wrap;html=1;" vertex="1" parent="0X4tpplS7bHyckZx9qFQ-81">
          <mxGeometry x="90" y="82" width="60" height="20" as="geometry" />
        </mxCell>
        <mxCell id="0X4tpplS7bHyckZx9qFQ-79" value="30-00" style="rounded=0;whiteSpace=wrap;html=1;" vertex="1" parent="0X4tpplS7bHyckZx9qFQ-81">
          <mxGeometry x="150" y="82" width="90" height="20" as="geometry" />
        </mxCell>
        <mxCell id="0X4tpplS7bHyckZx9qFQ-80" value="40-30" style="rounded=0;whiteSpace=wrap;html=1;" vertex="1" parent="0X4tpplS7bHyckZx9qFQ-81">
          <mxGeometry x="240" y="82" width="60" height="20" as="geometry" />
        </mxCell>
        <mxCell id="0X4tpplS7bHyckZx9qFQ-83" value="car" style="text;html=1;align=center;verticalAlign=middle;resizable=0;points=[];autosize=1;strokeColor=none;fillColor=none;" vertex="1" parent="1">
          <mxGeometry x="850" y="170" width="40" height="30" as="geometry" />
        </mxCell>
        <mxCell id="0X4tpplS7bHyckZx9qFQ-84" value="đèn 2way" style="text;html=1;align=center;verticalAlign=middle;resizable=0;points=[];autosize=1;strokeColor=none;fillColor=none;" vertex="1" parent="1">
          <mxGeometry x="820" y="208" width="70" height="30" as="geometry" />
        </mxCell>
        <mxCell id="0X4tpplS7bHyckZx9qFQ-85" value="đèn road" style="text;html=1;align=center;verticalAlign=middle;resizable=0;points=[];autosize=1;strokeColor=none;fillColor=none;" vertex="1" parent="1">
          <mxGeometry x="820" y="250" width="70" height="30" as="geometry" />
        </mxCell>
        <mxCell id="0X4tpplS7bHyckZx9qFQ-86" value="" style="endArrow=none;html=1;rounded=0;" edge="1" parent="1">
          <mxGeometry width="50" height="50" relative="1" as="geometry">
            <mxPoint x="962" y="160" as="sourcePoint" />
            <mxPoint x="962" y="190" as="targetPoint" />
          </mxGeometry>
        </mxCell>
        <mxCell id="0X4tpplS7bHyckZx9qFQ-87" value="" style="endArrow=none;html=1;rounded=0;" edge="1" parent="1">
          <mxGeometry width="50" height="50" relative="1" as="geometry">
            <mxPoint x="962" y="160" as="sourcePoint" />
            <mxPoint x="1396" y="160" as="targetPoint" />
          </mxGeometry>
        </mxCell>
        <mxCell id="0X4tpplS7bHyckZx9qFQ-88" value="" style="endArrow=none;html=1;rounded=0;" edge="1" parent="1">
          <mxGeometry width="50" height="50" relative="1" as="geometry">
            <mxPoint x="902" y="190" as="sourcePoint" />
            <mxPoint x="962" y="190" as="targetPoint" />
          </mxGeometry>
        </mxCell>
        <mxCell id="0X4tpplS7bHyckZx9qFQ-89" value="xanh" style="rounded=0;whiteSpace=wrap;html=1;" vertex="1" parent="1">
          <mxGeometry x="902" y="208" width="60" height="20" as="geometry" />
        </mxCell>
        <mxCell id="0X4tpplS7bHyckZx9qFQ-90" value="đỏ" style="rounded=0;whiteSpace=wrap;html=1;" vertex="1" parent="1">
          <mxGeometry x="902" y="250" width="60" height="20" as="geometry" />
        </mxCell>
        <mxCell id="0X4tpplS7bHyckZx9qFQ-91" value="" style="group" vertex="1" connectable="0" parent="1">
          <mxGeometry x="1052" y="208" width="210" height="62" as="geometry" />
        </mxCell>
        <mxCell id="0X4tpplS7bHyckZx9qFQ-92" value="vàng(t)" style="rounded=0;whiteSpace=wrap;html=1;" vertex="1" parent="0X4tpplS7bHyckZx9qFQ-91">
          <mxGeometry width="60" height="20" as="geometry" />
        </mxCell>
        <mxCell id="0X4tpplS7bHyckZx9qFQ-93" value="đỏ" style="rounded=0;whiteSpace=wrap;html=1;" vertex="1" parent="0X4tpplS7bHyckZx9qFQ-91">
          <mxGeometry y="42" width="60" height="20" as="geometry" />
        </mxCell>
        <mxCell id="0X4tpplS7bHyckZx9qFQ-94" value="đỏ(T)" style="rounded=0;whiteSpace=wrap;html=1;" vertex="1" parent="0X4tpplS7bHyckZx9qFQ-91">
          <mxGeometry x="60" width="90" height="20" as="geometry" />
        </mxCell>
        <mxCell id="0X4tpplS7bHyckZx9qFQ-95" value="xanh(T)" style="rounded=0;whiteSpace=wrap;html=1;" vertex="1" parent="0X4tpplS7bHyckZx9qFQ-91">
          <mxGeometry x="60" y="42" width="90" height="20" as="geometry" />
        </mxCell>
        <mxCell id="0X4tpplS7bHyckZx9qFQ-96" value="vàng(t)" style="rounded=0;whiteSpace=wrap;html=1;" vertex="1" parent="0X4tpplS7bHyckZx9qFQ-91">
          <mxGeometry x="150" y="42" width="60" height="20" as="geometry" />
        </mxCell>
        <mxCell id="0X4tpplS7bHyckZx9qFQ-97" value="đỏ(t)" style="rounded=0;whiteSpace=wrap;html=1;" vertex="1" parent="0X4tpplS7bHyckZx9qFQ-91">
          <mxGeometry x="150" width="60" height="20" as="geometry" />
        </mxCell>
        <mxCell id="0X4tpplS7bHyckZx9qFQ-98" value="xanh(T)" style="rounded=0;whiteSpace=wrap;html=1;" vertex="1" parent="1">
          <mxGeometry x="962" y="208" width="90" height="20" as="geometry" />
        </mxCell>
        <mxCell id="0X4tpplS7bHyckZx9qFQ-99" value="đỏ(T)" style="rounded=0;whiteSpace=wrap;html=1;" vertex="1" parent="1">
          <mxGeometry x="962" y="250" width="90" height="20" as="geometry" />
        </mxCell>
        <mxCell id="0X4tpplS7bHyckZx9qFQ-100" value="Timer" style="text;html=1;align=center;verticalAlign=middle;resizable=0;points=[];autosize=1;strokeColor=none;fillColor=none;" vertex="1" parent="1">
          <mxGeometry x="840" y="290" width="50" height="30" as="geometry" />
        </mxCell>
        <mxCell id="0X4tpplS7bHyckZx9qFQ-101" value="30-00" style="rounded=0;whiteSpace=wrap;html=1;" vertex="1" parent="1">
          <mxGeometry x="962" y="290" width="90" height="20" as="geometry" />
        </mxCell>
        <mxCell id="0X4tpplS7bHyckZx9qFQ-102" value="40-30" style="rounded=0;whiteSpace=wrap;html=1;" vertex="1" parent="1">
          <mxGeometry x="1052" y="290" width="60" height="20" as="geometry" />
        </mxCell>
        <mxCell id="0X4tpplS7bHyckZx9qFQ-103" value="30-00" style="rounded=0;whiteSpace=wrap;html=1;" vertex="1" parent="1">
          <mxGeometry x="1112" y="290" width="90" height="20" as="geometry" />
        </mxCell>
        <mxCell id="0X4tpplS7bHyckZx9qFQ-104" value="40-30" style="rounded=0;whiteSpace=wrap;html=1;" vertex="1" parent="1">
          <mxGeometry x="1202" y="290" width="60" height="20" as="geometry" />
        </mxCell>
        <mxCell id="0X4tpplS7bHyckZx9qFQ-109" value="00" style="rounded=0;whiteSpace=wrap;html=1;" vertex="1" parent="1">
          <mxGeometry x="902" y="290" width="60" height="20" as="geometry" />
        </mxCell>
        <mxCell id="0X4tpplS7bHyckZx9qFQ-111" value="" style="group" vertex="1" connectable="0" parent="1">
          <mxGeometry x="1260" y="210" width="300" height="102" as="geometry" />
        </mxCell>
        <mxCell id="0X4tpplS7bHyckZx9qFQ-112" value="" style="group" vertex="1" connectable="0" parent="0X4tpplS7bHyckZx9qFQ-111">
          <mxGeometry x="90" width="210" height="62" as="geometry" />
        </mxCell>
        <mxCell id="0X4tpplS7bHyckZx9qFQ-113" value="vàng(t)" style="rounded=0;whiteSpace=wrap;html=1;" vertex="1" parent="0X4tpplS7bHyckZx9qFQ-112">
          <mxGeometry width="60" height="20" as="geometry" />
        </mxCell>
        <mxCell id="0X4tpplS7bHyckZx9qFQ-114" value="đỏ" style="rounded=0;whiteSpace=wrap;html=1;" vertex="1" parent="0X4tpplS7bHyckZx9qFQ-112">
          <mxGeometry y="42" width="60" height="20" as="geometry" />
        </mxCell>
        <mxCell id="0X4tpplS7bHyckZx9qFQ-115" value="đỏ(T)" style="rounded=0;whiteSpace=wrap;html=1;" vertex="1" parent="0X4tpplS7bHyckZx9qFQ-112">
          <mxGeometry x="60" width="90" height="20" as="geometry" />
        </mxCell>
        <mxCell id="0X4tpplS7bHyckZx9qFQ-116" value="xanh(T)" style="rounded=0;whiteSpace=wrap;html=1;" vertex="1" parent="0X4tpplS7bHyckZx9qFQ-112">
          <mxGeometry x="60" y="42" width="90" height="20" as="geometry" />
        </mxCell>
        <mxCell id="0X4tpplS7bHyckZx9qFQ-117" value="vàng(t)" style="rounded=0;whiteSpace=wrap;html=1;" vertex="1" parent="0X4tpplS7bHyckZx9qFQ-112">
          <mxGeometry x="150" y="42" width="60" height="20" as="geometry" />
        </mxCell>
        <mxCell id="0X4tpplS7bHyckZx9qFQ-118" value="đỏ(t)" style="rounded=0;whiteSpace=wrap;html=1;" vertex="1" parent="0X4tpplS7bHyckZx9qFQ-112">
          <mxGeometry x="150" width="60" height="20" as="geometry" />
        </mxCell>
        <mxCell id="0X4tpplS7bHyckZx9qFQ-119" value="xanh(T)" style="rounded=0;whiteSpace=wrap;html=1;" vertex="1" parent="0X4tpplS7bHyckZx9qFQ-111">
          <mxGeometry width="90" height="20" as="geometry" />
        </mxCell>
        <mxCell id="0X4tpplS7bHyckZx9qFQ-120" value="đỏ(T)" style="rounded=0;whiteSpace=wrap;html=1;" vertex="1" parent="0X4tpplS7bHyckZx9qFQ-111">
          <mxGeometry y="42" width="90" height="20" as="geometry" />
        </mxCell>
        <mxCell id="0X4tpplS7bHyckZx9qFQ-121" value="30-00" style="rounded=0;whiteSpace=wrap;html=1;" vertex="1" parent="0X4tpplS7bHyckZx9qFQ-111">
          <mxGeometry y="82" width="90" height="20" as="geometry" />
        </mxCell>
        <mxCell id="0X4tpplS7bHyckZx9qFQ-122" value="40-30" style="rounded=0;whiteSpace=wrap;html=1;" vertex="1" parent="0X4tpplS7bHyckZx9qFQ-111">
          <mxGeometry x="90" y="82" width="60" height="20" as="geometry" />
        </mxCell>
        <mxCell id="0X4tpplS7bHyckZx9qFQ-123" value="30-00" style="rounded=0;whiteSpace=wrap;html=1;" vertex="1" parent="0X4tpplS7bHyckZx9qFQ-111">
          <mxGeometry x="150" y="82" width="90" height="20" as="geometry" />
        </mxCell>
        <mxCell id="0X4tpplS7bHyckZx9qFQ-124" value="40-30" style="rounded=0;whiteSpace=wrap;html=1;" vertex="1" parent="0X4tpplS7bHyckZx9qFQ-111">
          <mxGeometry x="240" y="82" width="60" height="20" as="geometry" />
        </mxCell>
      </root>
    </mxGraphModel>
  </diagram>
</mxfile>
